<?xml version="1.0" encoding="UTF-8"?>
<svg version="1.1" viewBox="0 0 900 900" width="80" height="80" xmlns="http://www.w3.org/2000/svg">
<path transform="translate(257,97)" d="m0 0h457l16 1 12 3 12 7 8 8 8 16 2 12v159l-6 5h-7l-5-4-1-2-1-150-2-16-6-10-9-6-8-2-240-1-236 1-11 4-7 6-5 10-1 5v405l3 10 6 9 12 6 3 1h476l10-3 8-6 5-9 2-15 1-199 5-5 5-1 8 4 1 1v206l-2 12-5 12-7 9-7 6-10 5-12 3-30 1-2 3v27l-2 8-4 6-7 6-6 2-16 1h-48v78h209l8 2 3 4v9l-3 4h-2v2l-25 1h-197l-7-3-5-5-3-8-1-19v-115h-13l-1 2v138l3 12 7 8 8 4 4 1 228 1 6 5 2 7v8l-5 2h-238l-13-4-11-8-7-8-6-12-3-10-1-11-1-82-1-1h-25l-1 1-1 121-2 9-6 5h-9l-5-3-2-9v-128l-1-44-3-5h-9l-3 2-1 3-1 178-4 5-2 1h-9l-5-3-3-9-1-90-1-34h-27v78l-1 14-3 12-6 12-10 11-8 5-11 3-13 1h-229l-3-2v-9l4-7 1-1 225-1 14-3 9-6 6-10 2-13v-135l-1-3-2-1h-9l-7 2-1 134-2 8-5 5-2 1h-88l-5-5-1-7 3-5 10-2h70v-78h-57l-11-2-8-5-5-8-2-8v-30h-29l-16-4-11-6-9-9-6-10-4-14-1-242v-43l1-128 4-13 6-10 9-9 8-5 13-4zm168 496-1 3v31l1 3 3 1h27l5-1 1-17v-13l-1-7zm94 0-1 2v34l1 1 7 1h23l5-1 1-18v-15l-2-4zm-194 1-23 1-1 9v19l1 4 2 1h60l1-1v-32l-2-1zm298 0-9 1v33h59l4-1v-32l-2-1z" fill="#273487"/>
<path transform="translate(479,138)" d="m0 0h233l8 2 7 6 4 8 1 6v371l-2 9-5 8-6 4-10 2h-440l-9-2-6-4-4-5-3-8-1-9v-70l6-7 2-1h7l3 3 3 9 1 74h441l2-1v-376h-231l-4-2-3-8 4-8z" fill="#253286"/>
<path transform="translate(481,195)" d="m0 0h18l12 4 10 7 5 5 7 8 30 52 14 24 60 104 12 21 5 11 2 7v18l-4 12-7 11-5 5-7 6-11 5-5 1-14 1h-237l-12-3-12-7-8-8-8-14-3-10v-18l4-12 14-25 12-20 14-24 11-19 15-26 16-28 14-24 13-23 12-20 9-10 13-8zm3 20-9 3-6 4-7 8-12 21-14 25-10 17-16 28-28 48-20 34-14 24-5 11-1 9 2 10 5 9 9 8 11 4h241l11-4 9-8 4-7 2-5v-15l-5-12-15-26-12-20-15-26-14-24-30-52-16-28-10-18-7-9-8-6-5-2-6-1z" fill="#263487"/>
<path transform="translate(497,266)" d="m0 0h8l8 3 5 4 5 9 1 8-5 15-13 29-1 3h31l8 4 4 5 2 5-1 9-7 11-16 21-21 28-14 19-12 15-9 5-7 1-9-3-6-4-4-5-2-6v-9l6-16 11-24 1-5-23 1-11-1-7-6-4-8 1-8 6-10 14-18 14-19 10-13 24-32 7-6zm5 19-6 5-8 11-48 64-2 4 39 1 6 2 1 2v9l-8 20-14 31-1 5 4 1 5-5 10-14 14-18 14-19 16-21 3-4v-3l-43-1-3-4v-8l16-37 7-16-1-5z" fill="#233185"/>
<path transform="translate(264,138)" d="m0 0h176l5 5 1 6-3 6-1 1-7 1-167 1-1 250-2 8-4 4h-6l-6-4-2-2-1-6v-191l1-61 3-8 7-7z" fill="#2A3889"/>
<path transform="translate(323,178)" d="m0 0h13l11 3 9 6 5 5 4 5 5 10 2 8v11l-3 10-6 10-8 8-13 7h-2v22l-4 6-4 3-7-1-5-6v-23l-5-2-11-6-8-8-7-14-2-9 1-13 4-10 7-9 8-7 11-5zm5 19-10 3-6 5-4 8-1 4v7l3 8 4 5 6 4 6 2h7l12-6 5-6 2-5v-11l-4-9-7-6-4-2z" fill="#243185"/>
<path transform="translate(154,726)" d="m0 0h93l5 3 2 3v7l-4 5-3 1h-97l-6-6v-7l5-5z" fill="#35428F"/>
</svg>
