<?xml version="1.0" standalone="no"?>
<!DOCTYPE svg PUBLIC "-//W3C//DTD SVG 20010904//EN"
 "http://www.w3.org/TR/2001/REC-SVG-20010904/DTD/svg10.dtd">
<svg version="1.0" xmlns="http://www.w3.org/2000/svg"
 width="90" height="90" viewBox="0 0 500.000000 500.000000"
 preserveAspectRatio="xMidYMid meet">
<metadata>
Created by potrace 1.16, written by Peter Selinger 2001-2019
</metadata>
<g transform="translate(0.000000,500.000000) scale(0.100000,-0.100000)"
fill="#000000" stroke="none">
<path d="M2120 4980 c-25 -25 -26 -29 -45 -250 -8 -102 -18 -195 -20 -206 -4
-17 -25 -27 -107 -53 -57 -18 -172 -66 -256 -107 -132 -65 -155 -74 -170 -62
-9 7 -84 68 -165 136 -163 135 -187 149 -227 132 -15 -6 -140 -125 -280 -265
-253 -253 -253 -254 -247 -290 6 -34 44 -84 274 -356 13 -15 6 -34 -55 -157
-38 -77 -86 -192 -107 -255 -30 -92 -42 -117 -59 -121 -12 -2 -106 -12 -211
-22 -201 -18 -245 -29 -264 -70 -14 -31 -16 -691 -1 -728 18 -48 45 -56 278
-78 l221 -22 26 -85 c33 -107 95 -254 146 -347 22 -39 39 -73 39 -76 0 -3 -63
-81 -140 -174 -77 -93 -143 -179 -146 -192 -4 -13 -2 -34 4 -46 15 -34 387
-364 418 -372 50 -13 79 14 191 178 60 87 179 258 266 382 119 169 157 231
157 254 0 23 -16 49 -65 107 -211 248 -308 486 -321 785 -12 264 66 535 216
748 64 91 196 230 279 293 79 60 255 148 366 183 425 134 903 27 1219 -273
354 -337 481 -821 335 -1277 -53 -166 -146 -326 -274 -472 -39 -45 -55 -72
-55 -92 0 -30 71 -135 295 -440 67 -91 152 -209 189 -262 71 -100 104 -126
149 -114 21 5 213 170 371 317 80 75 78 82 -93 289 l-143 172 70 147 c38 80
86 196 106 256 l37 111 221 21 c151 15 228 27 244 38 41 27 45 73 42 431 l-3
334 -27 26 c-25 26 -35 28 -247 49 -121 12 -223 24 -227 27 -3 4 -24 60 -45
125 -22 65 -69 178 -105 251 l-66 133 38 48 c22 27 83 101 136 164 113 133
124 154 104 200 -17 38 -492 512 -523 521 -36 11 -81 -17 -247 -156 l-160
-134 -75 43 c-94 53 -261 124 -363 154 -71 21 -78 25 -78 49 0 14 -9 114 -19
223 -17 179 -21 201 -42 223 l-22 24 -359 0 c-343 0 -359 -1 -378 -20z m621
-177 c4 -16 15 -111 24 -213 10 -117 22 -193 31 -207 9 -14 35 -28 72 -38 205
-58 350 -118 505 -210 85 -52 107 -53 157 -12 15 12 85 70 156 128 71 58 135
109 143 113 9 6 64 -44 187 -170 96 -98 174 -179 174 -181 0 -2 -61 -77 -135
-166 -75 -89 -139 -173 -142 -187 -4 -16 1 -38 17 -65 117 -205 189 -371 225
-522 10 -40 26 -80 36 -89 15 -13 69 -22 237 -40 119 -13 218 -23 220 -23 6
-2 1 -511 -5 -511 -53 0 -430 -43 -444 -51 -11 -5 -25 -33 -34 -67 -53 -190
-128 -373 -205 -497 -68 -110 -67 -113 79 -290 69 -83 130 -157 138 -166 12
-15 2 -27 -92 -110 -58 -52 -109 -95 -113 -97 -7 -2 -389 515 -425 575 -6 10
10 38 50 91 143 188 226 366 275 595 31 147 31 408 -1 557 -124 577 -570 1006
-1151 1106 -123 21 -345 20 -465 -1 -430 -76 -776 -320 -994 -701 -193 -336
-233 -763 -106 -1140 48 -142 157 -336 257 -457 l32 -37 -68 -98 c-62 -89
-289 -415 -328 -471 l-17 -24 -43 35 c-24 20 -74 65 -111 100 l-69 63 126 150
c69 83 132 165 141 183 16 31 15 35 -3 70 -152 290 -177 348 -232 540 -14 50
-28 77 -44 87 -16 11 -92 22 -232 36 -115 12 -211 23 -214 26 -3 2 -6 115 -8
249 l-3 244 23 8 c13 5 109 17 213 27 106 10 202 24 217 31 21 11 31 27 43 72
51 191 122 362 204 496 66 109 66 107 -92 299 -76 91 -137 169 -137 174 0 10
342 353 352 353 5 0 78 -58 163 -130 162 -135 183 -150 211 -150 9 0 59 25
111 56 140 84 288 144 485 199 44 12 61 22 71 43 8 15 22 110 31 212 9 102 19
196 22 210 l4 25 238 -2 237 -3 6 -27z"/>
<path d="M2214 3657 c-191 -82 -326 -236 -380 -437 -24 -89 -24 -272 0 -359
48 -178 170 -329 324 -404 l42 -21 0 -617 0 -616 -39 -26 c-124 -82 -241 -252
-276 -399 -19 -81 -19 -235 1 -318 47 -201 193 -365 390 -436 83 -31 125 -31
160 0 26 21 28 28 26 92 -1 38 -7 125 -12 193 -6 68 -8 126 -5 130 8 7 181 8
188 1 3 -3 -1 -75 -9 -160 -19 -218 -19 -226 12 -257 22 -22 32 -25 78 -21
125 10 296 136 379 278 119 204 121 484 4 690 -45 81 -169 200 -244 236 l-62
29 0 615 0 615 50 34 c107 73 208 207 257 343 24 66 27 86 27 213 0 111 -4
151 -19 195 -69 204 -205 341 -404 406 -71 23 -85 25 -111 14 -60 -24 -64 -41
-51 -233 6 -95 13 -178 15 -185 3 -7 -8 -17 -23 -23 -33 -13 -148 -7 -163 8
-8 8 -6 60 5 187 17 195 14 216 -35 242 -37 19 -64 17 -125 -9z m616 -278 c74
-71 113 -161 126 -288 16 -174 -85 -365 -249 -469 -34 -22 -68 -46 -75 -55
-10 -11 -12 -169 -12 -723 l0 -708 22 -23 c12 -13 26 -23 32 -23 30 0 138 -63
189 -110 186 -170 190 -516 8 -697 -29 -29 -57 -53 -63 -53 -5 0 -7 17 -4 38
3 20 8 81 11 134 8 120 -2 138 -101 189 -65 32 -73 34 -173 34 -93 0 -113 -3
-161 -26 -30 -14 -70 -38 -87 -53 -32 -27 -33 -31 -32 -99 0 -40 4 -107 7
-149 4 -43 5 -78 1 -78 -13 0 -86 58 -118 95 -80 92 -124 253 -103 380 24 146
135 304 255 363 83 41 77 -19 77 767 0 605 -2 703 -15 722 -8 12 -46 33 -84
47 -76 30 -175 110 -218 179 -58 92 -86 254 -64 372 16 88 71 193 130 248 28
26 54 47 58 47 5 0 6 -33 2 -72 -4 -40 -8 -105 -8 -144 -1 -64 1 -73 27 -97
83 -79 256 -110 375 -67 73 27 143 72 152 99 3 10 1 76 -5 146 -14 172 -16
159 21 138 18 -10 53 -39 79 -64z"/>
</g>
</svg>
