<?xml version="1.0" encoding="UTF-8"?>
<svg version="1.1" xmlns="http://www.w3.org/2000/svg" width="1000" height="500">
<path d="M0 0 C-0.4846875 -0.9075 -0.969375 -1.815 -1.46875 -2.75 C-3.35871684 -6.7613582 -3.91436355 -9.66108616 -3 -14 C-1.62281166 -16.72494959 -0.37164944 -17.88613855 2 -20 C11.7796113 -22.71034942 23.63360881 -17.28026855 32.21875 -12.69921875 C36.84573453 -9.87233916 40.95202962 -6.59662874 45 -3 C45.63679688 -2.44570312 46.27359375 -1.89140625 46.9296875 -1.3203125 C53.49072784 4.77416497 58.4317153 12.8139351 62 21 C62 21.66 62 22.32 62 23 C65.63 23.33 69.26 23.66 73 24 C72.773125 22.845 72.54625 21.69 72.3125 20.5 C71.73345317 15.76692154 72.59941179 12.11659804 75 8 C80.01903148 3.22579933 83.48565449 2.64808277 90.234375 2.71875 C94.0998786 3.11185206 96.16856481 4.38092245 99 7 C101.97669286 10.79784951 102.75210871 14.20743499 103 19 C102.37794347 21.34562029 101.71657478 23.68150707 101 26 C107.75863829 25.44879601 114.51726307 24.89742655 121.27587891 24.34594727 C123.57047222 24.15873554 125.86506852 23.97156036 128.15966797 23.78442383 C131.47624502 23.51393309 134.79281098 23.24330672 138.109375 22.97265625 C139.11925476 22.89032242 140.12913452 22.80798859 141.1696167 22.72315979 C142.14972717 22.64315231 143.12983765 22.56314484 144.13964844 22.48071289 C145.10185806 22.40255341 146.06406769 22.32439392 147.05543518 22.24386597 C149.08333584 22.07591723 151.11077644 21.90235016 153.13780212 21.72415161 C161.4617247 20.99844356 169.70984514 20.75703045 178.0625 20.75 C178.78888672 20.74932526 179.51527344 20.74865051 180.26367188 20.74795532 C191.73590289 20.7648244 202.8089538 21.31520592 214 24 C214.71462402 24.16628906 215.42924805 24.33257812 216.16552734 24.50390625 C244.52537375 31.33303314 270.89197688 49.52095086 286.78613281 74.015625 C297.20992591 91.05596898 301.23284406 108.96657036 301.25 128.8125 C301.25101212 129.85886124 301.25101212 129.85886124 301.25204468 130.92636108 C301.23562589 141.60210198 300.63258006 151.60823662 298 162 C297.83902832 162.69206543 297.67805664 163.38413086 297.51220703 164.09716797 C294.49729279 177.02857246 289.56404747 188.97293144 284 201 C283.66597168 201.72461426 283.33194336 202.44922852 282.98779297 203.19580078 C272.40885735 225.86494853 258.04539518 246.39327429 241.5234375 265.1171875 C238.13321507 268.95618677 238.13321507 268.95618677 235 273 C235.19053578 275.89802603 235.19053578 275.89802603 236 279 C236.41772461 284.26333013 236.32450168 287.96859184 233.3828125 292.453125 C230.73141496 295.41909513 227.84654436 297.02851781 224 298 C221.35622794 298.01587851 218.90603611 297.77484651 216.296875 297.359375 C213.72881658 296.8969454 213.72881658 296.8969454 210 297 C207.90465554 298.53360109 207.90465554 298.53360109 205.8125 300.6875 C200.63656551 305.55671245 195.12658154 309.81545394 189.41723633 314.04174805 C178.09226469 322.51847532 168.31052437 332.59010831 158.43359375 342.66235352 C156.79604148 344.33006373 155.15235168 345.99152716 153.5078125 347.65234375 C153.0129837 348.16063217 152.51815491 348.66892059 152.0083313 349.19261169 C148.43350372 352.79325128 145.88194346 354.69888905 140.875 355.5 C135.7681206 356.81826171 132.6203379 361.06680625 129.13671875 364.78515625 C126.32732075 367.69727446 125.45532527 367.93719651 121.375 368.5 C116.45321695 368.49101864 114.03736444 365.95517012 110.6640625 362.62890625 C109.08080779 360.91286972 109.08080779 360.91286972 107 360 C104.57997704 360.61662004 104.57997704 360.61662004 101.84375 361.65234375 C100.82152344 362.01650391 99.79929687 362.38066406 98.74609375 362.75585938 C97.13927734 363.34077148 97.13927734 363.34077148 95.5 363.9375 C93.38637211 364.69927082 91.2718319 365.45851655 89.15625 366.21484375 C88.21587891 366.55636475 87.27550781 366.89788574 86.30664062 367.24975586 C84 368 84 368 82 368 C81.9175 369.03125 81.835 370.0625 81.75 371.125 C80.73040401 376.39291263 78.86541703 379.64757265 74.5 382.8125 C70.66891399 384.63226585 67.47862264 385.12468563 63.25 385.0625 C62.05117188 385.04896484 62.05117188 385.04896484 60.828125 385.03515625 C59.92320312 385.01775391 59.92320312 385.01775391 59 385 C58.938125 386.051875 58.87625 387.10375 58.8125 388.1875 C57.85194012 392.69474252 56.57289844 394.17491751 53 397 C50.13343568 397.94783862 47.50123068 398.13048336 44.49438477 398.14526367 C43.16764488 398.15483345 43.16764488 398.15483345 41.81410217 398.16459656 C40.86611252 398.16570938 39.91812286 398.1668222 38.94140625 398.16796875 C37.46945045 398.17296135 37.46945045 398.17296135 35.96775818 398.17805481 C33.89411894 398.18311325 31.82047158 398.18546347 29.74682617 398.18530273 C26.5778257 398.18748942 23.40917329 398.20565727 20.24023438 398.22460938 C18.22395952 398.22754349 16.20768302 398.22952816 14.19140625 398.23046875 C13.24544083 398.23765427 12.2994754 398.24483978 11.32484436 398.25224304 C2.93564927 398.22316561 2.93564927 398.22316561 -1 396 C-4.22727238 392.68550404 -5 391.73899834 -5 387 C-5.94335205 387.16081055 -6.8867041 387.32162109 -7.85864258 387.48730469 C-12.65393433 388.16787542 -17.42542873 388.18100522 -22.26171875 388.203125 C-23.24759476 388.20882507 -24.23347076 388.21452515 -25.2492218 388.22039795 C-27.33614034 388.22981799 -29.42307355 388.23636998 -31.51000977 388.24023438 C-34.63260671 388.24983129 -37.75451339 388.28083777 -40.87695312 388.3125 C-72.90004123 388.48128431 -107.48219308 382.1464819 -132 360 C-132.75667969 359.33613281 -133.51335937 358.67226563 -134.29296875 357.98828125 C-152.4113388 341.11730329 -160.86419909 315.97837921 -161.97875977 291.74389648 C-162.32618824 277.84826167 -159.63940564 264.30362416 -156.90234375 250.7421875 C-152.37649855 227.66916053 -155.04629629 206.61379596 -168.1015625 186.8125 C-171.6203223 182.00139569 -175.43046839 177.48077647 -179.34985352 172.99682617 C-203.2674823 145.60277559 -213.17537233 117.61063841 -211 81 C-208.83076027 62.52964681 -201.07155078 44.82757984 -190 30 C-189.39800781 29.17628906 -188.79601562 28.35257813 -188.17578125 27.50390625 C-171.29171444 5.38117721 -147.87995272 -10.6306012 -121 -18 C-120.35417969 -18.18256348 -119.70835938 -18.36512695 -119.04296875 -18.55322266 C-75.55901441 -30.65907111 -39.43398347 -18.61774177 0 0 Z M85 14 C84.34 15.32 83.68 16.64 83 18 C83.99 19.32 84.98 20.64 86 22 C87.94999129 21.80528889 87.94999129 21.80528889 90 21 C91.28436734 19.0162233 91.28436734 19.0162233 92 17 C91.34 16.01 90.68 15.02 90 14 C87.41619823 13.74969023 87.41619823 13.74969023 85 14 Z " fill="#2E2DB6" transform="translate(211,69)"/>
<path d="M0 0 C4.47663127 2.15837579 6.98940477 4.44970553 9 9 C10.29070798 14.36140236 9.60807925 17.79702545 8 23 C14.75863829 22.44879601 21.51726307 21.89742655 28.27587891 21.34594727 C30.57047222 21.15873554 32.86506852 20.97156036 35.15966797 20.78442383 C38.47624502 20.51393309 41.79281098 20.24330672 45.109375 19.97265625 C46.11925476 19.89032242 47.12913452 19.80798859 48.1696167 19.72315979 C49.14972717 19.64315231 50.12983765 19.56314484 51.13964844 19.48071289 C52.10185806 19.40255341 53.06406769 19.32439392 54.05543518 19.24386597 C56.08333584 19.07591723 58.11077644 18.90235016 60.13780212 18.72415161 C68.4617247 17.99844356 76.70984514 17.75703045 85.0625 17.75 C85.78888672 17.74932526 86.51527344 17.74865051 87.26367188 17.74795532 C98.73590289 17.7648244 109.8089538 18.31520592 121 21 C121.71462402 21.16628906 122.42924805 21.33257812 123.16552734 21.50390625 C151.52537375 28.33303314 177.89197688 46.52095086 193.78613281 71.015625 C204.20992591 88.05596898 208.23284406 105.96657036 208.25 125.8125 C208.25067474 126.51007416 208.25134949 127.20764832 208.25204468 127.92636108 C208.23562589 138.60210198 207.63258006 148.60823662 205 159 C204.83902832 159.69206543 204.67805664 160.38413086 204.51220703 161.09716797 C201.49729279 174.02857246 196.56404747 185.97293144 191 198 C190.66597168 198.72461426 190.33194336 199.44922852 189.98779297 200.19580078 C179.40885735 222.86494853 165.04539518 243.39327429 148.5234375 262.1171875 C145.13321507 265.95618677 145.13321507 265.95618677 142 270 C142.19053578 272.89802603 142.19053578 272.89802603 143 276 C143.41772461 281.26333013 143.32450168 284.96859184 140.3828125 289.453125 C137.73141496 292.41909513 134.84654436 294.02851781 131 295 C128.35622794 295.01587851 125.90603611 294.77484651 123.296875 294.359375 C120.72881658 293.8969454 120.72881658 293.8969454 117 294 C114.90465554 295.53360109 114.90465554 295.53360109 112.8125 297.6875 C108.10055217 302.11687225 103.14718496 306.08619199 98 310 C96.86848511 310.86371216 96.86848511 310.86371216 95.71411133 311.74487305 C90.28746421 315.85626789 90.28746421 315.85626789 88 317 C88.33 316.21625 88.66 315.4325 89 314.625 C90.51051674 309.14937683 91.55270166 303.93066197 88.78515625 298.70703125 C84.18553399 292.59223931 78.49746174 287.2983585 73 282 C74.30761092 277.8292789 75.89756661 273.98836607 77.8125 270.0625 C81.17932781 262.89868457 83.64110609 255.54637301 86 248 C87.04341553 247.97812622 87.04341553 247.97812622 88.10791016 247.95581055 C91.28081338 247.88102031 94.45270008 247.78446188 97.625 247.6875 C98.71941406 247.66494141 99.81382812 247.64238281 100.94140625 247.61914062 C108.94150454 247.44321491 108.94150454 247.44321491 116 244 C120.93352045 238.49705251 120.58344351 233.18331931 120.53125 226.03125 C120.53699036 224.30074402 120.53699036 224.30074402 120.54284668 222.53527832 C120.54556325 220.1011467 120.53822005 217.66698576 120.52148438 215.23291016 C120.50007299 211.51268263 120.5212967 207.7943864 120.546875 204.07421875 C120.54423168 201.70572492 120.53910662 199.33723228 120.53125 196.96875 C120.54339539 195.3044696 120.54339539 195.3044696 120.55578613 193.60656738 C120.48112827 187.44097285 120.18022811 183.66271014 116 179 C110.54012626 174.96107132 104.15032794 175.44700323 97.625 175.3125 C96.50738281 175.27833984 95.38976562 175.24417969 94.23828125 175.20898438 C91.49228778 175.12683927 88.74660018 175.05757872 86 175 C85.47212891 173.40285156 85.47212891 173.40285156 84.93359375 171.7734375 C81.98212008 163.04035149 78.68169561 154.93096891 74.22265625 146.85546875 C72.87855788 143.7163764 72.84715728 143.07536762 74 140 C75.25927734 138.44775391 75.25927734 138.44775391 76.8359375 136.9765625 C77.69058594 136.15671875 77.69058594 136.15671875 78.5625 135.3203125 C79.76276887 134.19764722 80.96328635 133.07524769 82.1640625 131.953125 C86.83019112 127.47616376 89.7003961 123.69643511 90.4375 117.0625 C90.19172449 111.2085742 87.19720609 107.4807549 83.625 103.0625 C81.12397489 100.72690206 81.12397489 100.72690206 77.75 100.625 C75.09354906 100.70475652 75.09354906 100.70475652 74 102 C74.06627739 105.3801471 74.1218937 108.01242787 76.44140625 110.62109375 C77.53616099 111.59900692 78.66217809 112.54335529 79.8203125 113.4453125 C81 115 81 115 80.859375 117.453125 C79.9494057 120.14994309 79.04073474 121.54427375 77.125 123.625 C76.50882812 124.305625 75.89265625 124.98625 75.2578125 125.6875 C73.55641445 127.43010838 71.83941773 129.09692081 70.0546875 130.75 C69.55050293 131.22614746 69.04631836 131.70229492 68.52685547 132.19287109 C67.05381611 133.57452265 65.55850621 134.93231219 64.0625 136.2890625 C61.72892092 138.80931835 61.72892092 138.80931835 61.921875 141.83984375 C63.28209409 145.82686274 65.16486061 149.28913437 67.25 152.9375 C70.97440709 159.68090057 73.71420642 166.26428653 75.9296875 173.6328125 C77.07179249 177.22585812 78.46745879 180.55835032 80 184 C80.83249268 184.01981934 81.66498535 184.03963867 82.52270508 184.06005859 C85.614765 184.13820742 88.70643383 184.22490206 91.7980957 184.31738281 C93.7929536 184.37444092 95.7880854 184.42164442 97.78320312 184.46875 C99.03681641 184.50742187 100.29042969 184.54609375 101.58203125 184.5859375 C102.73936768 184.6173584 103.8967041 184.6487793 105.08911133 184.68115234 C108 185 108 185 111 187 C111.3742218 189.08728027 111.3742218 189.08728027 111.37231445 191.69335938 C111.37854324 192.66776978 111.38477203 193.64218018 111.39118958 194.64611816 C111.37737495 196.22894592 111.37737495 196.22894592 111.36328125 197.84375 C111.36377975 198.92378296 111.36427826 200.00381592 111.36479187 201.11657715 C111.36244836 203.40309486 111.35270369 205.689615 111.33618164 207.97607422 C111.31259687 211.48558503 111.31561778 214.99433641 111.32226562 218.50390625 C111.31668895 220.72135872 111.30957915 222.93880797 111.30078125 225.15625 C111.30169266 226.21146851 111.30260406 227.26668701 111.30354309 228.35388184 C111.29401108 229.32829224 111.28447906 230.30270264 111.2746582 231.30664062 C111.27005081 232.16664673 111.26544342 233.02665283 111.26069641 233.91271973 C111 236 111 236 109 238 C106.14257813 238.27124023 106.14257813 238.27124023 102.53125 238.30859375 C101.23832031 238.33373047 99.94539063 238.35886719 98.61328125 238.38476562 C96.55258322 238.41355732 94.49196672 238.437573 92.43115234 238.45629883 C90.44350977 238.47789848 88.45609488 238.51797504 86.46875 238.55859375 C84.68114258 238.57877563 84.68114258 238.57877563 82.85742188 238.59936523 C81.44299805 238.79767944 81.44299805 238.79767944 80 239 C77.98249579 242.02625632 77.23468034 244.27770616 76.25 247.75 C73.04904132 258.38429606 69.41712601 268.68981999 63.00390625 277.8515625 C61.66556001 280.7157276 62.08393282 282.0015803 63 285 C64.64178273 287.10956194 64.64178273 287.10956194 66.78125 288.99609375 C67.54050781 289.71990234 68.29976563 290.44371094 69.08203125 291.18945312 C70.69206383 292.68634125 72.30404103 294.18114053 73.91796875 295.67382812 C74.67722656 296.39892578 75.43648438 297.12402344 76.21875 297.87109375 C76.91935547 298.52005615 77.61996094 299.16901855 78.34179688 299.83764648 C80.60677014 302.79124899 81.1980033 304.24474544 81 308 C79.06433657 310.98602519 76.59363119 313.36267428 74.0546875 315.83984375 C73.33266144 316.56619522 72.61063538 317.29254669 71.86672974 318.04090881 C70.33664213 319.57137778 68.79779263 321.09312961 67.25097656 322.60668945 C64.88181674 324.93081285 62.54929328 327.28761539 60.21875 329.65039062 C58.72863063 331.13229084 57.23650784 332.61217981 55.7421875 334.08984375 C55.04302216 334.79801743 54.34385681 335.5061911 53.62350464 336.23582458 C52.95996979 336.87721878 52.29643494 337.51861298 51.61279297 338.17944336 C51.03463837 338.7498082 50.45648376 339.32017303 49.86080933 339.90782166 C48 341 48 341 45.39849854 340.77319336 C42.51153901 339.84253699 41.20823136 338.6550721 39.1171875 336.47265625 C38.42496094 335.76302734 37.73273438 335.05339844 37.01953125 334.32226562 C35.95798828 333.20368164 35.95798828 333.20368164 34.875 332.0625 C33.45784951 330.59300431 32.03866151 329.12547011 30.6171875 327.66015625 C29.99440918 327.00668213 29.37163086 326.35320801 28.72998047 325.67993164 C26.90329683 323.80430045 26.90329683 323.80430045 24 322 C19.5339853 322.30134009 15.98190816 324.47426465 12.125 326.5625 C2.49375732 331.6101925 -7.71389179 334.91893587 -18.02905273 338.27905273 C-19.97402799 338.83363983 -19.97402799 338.83363983 -21 340 C-21.13418103 342.12104159 -21.20361663 344.24623666 -21.24609375 346.37109375 C-21.29540039 348.31532227 -21.29540039 348.31532227 -21.34570312 350.29882812 C-21.39316046 352.37047597 -21.43758699 354.44209521 -21.47680664 356.51391602 C-21.51645885 358.50816103 -21.56859536 360.50214556 -21.62109375 362.49609375 C-21.6461499 363.69419678 -21.67120605 364.8922998 -21.69702148 366.12670898 C-22 369 -22 369 -24 371 C-26.04258728 371.26069641 -26.04258728 371.26069641 -28.58569336 371.2746582 C-29.53685532 371.28419022 -30.48801727 371.29372223 -31.46800232 371.30354309 C-33.01331383 371.30217598 -33.01331383 371.30217598 -34.58984375 371.30078125 C-35.64530899 371.30506638 -36.70077423 371.3093515 -37.78822327 371.31376648 C-40.02344037 371.31951705 -42.25867618 371.32000472 -44.49389648 371.31567383 C-47.92008305 371.31251605 -51.3454048 371.33595706 -54.77148438 371.36132812 C-56.94010307 371.36360119 -59.1087241 371.36430458 -61.27734375 371.36328125 C-62.30552719 371.372491 -63.33371063 371.38170074 -64.39305115 371.39118958 C-65.82452232 371.38184639 -65.82452232 371.38184639 -67.28491211 371.37231445 C-68.12493271 371.37294388 -68.96495331 371.3735733 -69.83042908 371.3742218 C-72.51127821 370.91181139 -73.39201615 370.16427355 -75 368 C-75.43237305 365.08911133 -75.43237305 365.08911133 -75.51171875 361.58203125 C-75.54716797 360.32841797 -75.58261719 359.07480469 -75.61914062 357.78320312 C-75.65297852 355.81770508 -75.65297852 355.81770508 -75.6875 353.8125 C-75.72067666 352.47717987 -75.75516666 351.14189168 -75.79101562 349.80664062 C-75.87362057 346.53784496 -75.94273229 343.26932188 -76 340 C-80.9020249 337.72488454 -85.61936999 335.6998264 -90.875 334.375 C-97.9428657 332.32815946 -104.10704745 328.93441317 -110.46435547 325.26513672 C-111.23924316 324.83088379 -112.01413086 324.39663086 -112.8125 323.94921875 C-113.49957031 323.55049561 -114.18664062 323.15177246 -114.89453125 322.7409668 C-117.70982131 321.75019623 -119.19019388 322.03086365 -122 323 C-124.10956194 324.64178273 -124.10956194 324.64178273 -125.99609375 326.78125 C-126.71990234 327.54050781 -127.44371094 328.29976563 -128.18945312 329.08203125 C-129.68634125 330.69206383 -131.18114053 332.30404103 -132.67382812 333.91796875 C-133.39892578 334.67722656 -134.12402344 335.43648438 -134.87109375 336.21875 C-135.52005615 336.91935547 -136.16901855 337.61996094 -136.83764648 338.34179688 C-139.79124899 340.60677014 -141.24474544 341.1980033 -145 341 C-147.98602519 339.06433657 -150.36267428 336.59363119 -152.83984375 334.0546875 C-153.56619522 333.33266144 -154.29254669 332.61063538 -155.04090881 331.86672974 C-156.57137778 330.33664213 -158.09312961 328.79779263 -159.60668945 327.25097656 C-161.93081285 324.88181674 -164.28761539 322.54929328 -166.65039062 320.21875 C-168.13229084 318.72863063 -169.61217981 317.23650784 -171.08984375 315.7421875 C-171.79801743 315.04302216 -172.5061911 314.34385681 -173.23582458 313.62350464 C-173.87721878 312.95996979 -174.51861298 312.29643494 -175.17944336 311.61279297 C-175.7498082 311.03463837 -176.32017303 310.45648376 -176.90782166 309.86080933 C-178 308 -178 308 -177.77992249 305.40126038 C-176.81179048 302.42053208 -175.51209003 301.12450735 -173.21875 299.00390625 C-172.45949219 298.28009766 -171.70023438 297.55628906 -170.91796875 296.81054688 C-169.30793617 295.31365875 -167.69595897 293.81885947 -166.08203125 292.32617188 C-161.64670316 288.13713161 -161.64670316 288.13713161 -158.75390625 282.86328125 C-159.08131031 279.05396094 -160.43105962 276.87930216 -162.4375 273.625 C-167.01080676 265.80997178 -169.69791434 257.5663416 -172.38452148 248.94970703 C-172.69848877 247.9492334 -173.01245605 246.94875977 -173.3359375 245.91796875 C-173.60970215 245.01844482 -173.8834668 244.1189209 -174.16552734 243.19213867 C-174.89127658 240.83586734 -174.89127658 240.83586734 -177 239 C-179.86402446 238.67702873 -179.86402446 238.67702873 -183.21484375 238.69140625 C-184.45814453 238.66626953 -185.70144531 238.64113281 -186.98242188 238.61523438 C-189.61518582 238.58013086 -192.24800384 238.5488692 -194.88085938 238.52148438 C-196.12544922 238.49505859 -197.37003906 238.46863281 -198.65234375 238.44140625 C-199.79695068 238.42795166 -200.94155762 238.41449707 -202.12084961 238.40063477 C-205.38146229 237.94691939 -206.05159644 237.55512202 -208 235 C-208.38095093 232.87512207 -208.38095093 232.87512207 -208.38818359 230.39257812 C-208.39764008 229.46151245 -208.40709656 228.53044678 -208.4168396 227.57116699 C-208.41076691 226.56799438 -208.40469421 225.56482178 -208.3984375 224.53125 C-208.40130768 223.49939575 -208.40417786 222.4675415 -208.40713501 221.40441895 C-208.40917701 219.22224377 -208.40363771 217.04005035 -208.39111328 214.85791016 C-208.37506205 211.512931 -208.39095791 208.16916021 -208.41015625 204.82421875 C-208.40817384 202.70572649 -208.40433022 200.58723499 -208.3984375 198.46875 C-208.40451019 197.46557739 -208.41058289 196.46240479 -208.4168396 195.42883301 C-208.40738312 194.49776733 -208.39792664 193.56670166 -208.38818359 192.60742188 C-208.38579681 191.78818237 -208.38341003 190.96894287 -208.38095093 190.12487793 C-207.90586262 187.47491807 -207.14371812 186.59135144 -205 185 C-201.90551758 184.56762695 -201.90551758 184.56762695 -198.14453125 184.48828125 C-197.48289474 184.47033005 -196.82125824 184.45237885 -196.13957214 184.43388367 C-194.03061253 184.37979102 -191.92187901 184.34589069 -189.8125 184.3125 C-188.38082792 184.27932573 -186.94918567 184.24483595 -185.51757812 184.20898438 C-182.0119361 184.12406743 -178.50621527 184.05725079 -175 184 C-174.8153418 183.22003662 -174.63068359 182.44007324 -174.44042969 181.63647461 C-173.01992333 175.77440404 -171.50978789 170.15484026 -169.25 164.5625 C-168.99976074 163.94125244 -168.74952148 163.32000488 -168.49169922 162.67993164 C-166.20391265 157.15824444 -163.37564257 152.04085341 -160.3203125 146.90234375 C-158.79439583 143.5480358 -158.61142373 141.65163544 -159 138 C-160.61449186 135.65954942 -160.61449186 135.65954942 -162.9375 133.6875 C-163.74960938 132.92179688 -164.56171875 132.15609375 -165.3984375 131.3671875 C-166.25695312 130.58601562 -167.11546875 129.80484375 -168 129 C-169.70101777 127.45222707 -171.38919266 125.89018978 -173.0625 124.3125 C-173.81660156 123.62800781 -174.57070312 122.94351563 -175.34765625 122.23828125 C-177 120 -177 120 -177.57421875 117.09521484 C-176.80884886 112.96963686 -174.69656954 110.93681564 -171.75 108.1640625 C-171.21729492 107.63984711 -170.68458984 107.11563171 -170.13574219 106.57553101 C-168.43742738 104.91070121 -166.71943325 103.26798194 -165 101.625 C-163.84238637 100.4974921 -162.68611938 99.36859983 -161.53125 98.23828125 C-158.70285311 95.47590307 -155.85662377 92.73316596 -153 90 C-150.10156266 91.29491773 -148.96716228 92.04179346 -146.9375 94.625 C-143.82545647 98.58049458 -139.81342894 101.20633762 -135.71875 104.0703125 C-128.34966592 109.30066815 -128.34966592 109.30066815 -127 112 C-126.6448235 116.68724799 -126.55789929 121.37377029 -126.48510742 126.07299805 C-126.45368517 127.63363673 -126.40616005 129.19404474 -126.34155273 130.75366211 C-125.87726033 142.13064431 -127.21805794 148.1936993 -135 157 C-140.44837595 165.32157003 -144.32937358 174.4479182 -147 184 C-147.21269531 184.72703125 -147.42539063 185.4540625 -147.64453125 186.203125 C-154.56892256 211.50953353 -149.49121735 240.37320603 -136.85522461 263.0065918 C-122.47848178 287.31081377 -99.59011523 303.80329764 -72.375 311.25 C-66.52717011 312.71491092 -61.02012921 313.79661726 -55 314 C-54.34580078 314.03109863 -53.69160156 314.06219727 -53.01757812 314.09423828 C-24.84239232 315.32705754 1.99542731 305.93907008 23 287 C23.84175781 286.25234375 24.68351563 285.5046875 25.55078125 284.734375 C39.90065741 271.25486458 49.21433604 252.95026732 54 234 C54.22558594 233.10796875 54.45117188 232.2159375 54.68359375 231.296875 C60.24278407 204.45940447 53.79508565 176.81447113 39.30224609 153.93164062 C31.65924555 142.59466643 21.64085146 132.60560625 9.9375 125.5 C6.33042618 122.43014994 5.95142404 120.31373116 4.875 115.83984375 C2.9517571 109.59789023 -0.51081967 102.65945356 -6 99 C-10.27370203 98.44600159 -12.22109935 98.40223903 -15.6875 101.0625 C-17.43282565 103.27953529 -18.78360251 105.2511127 -20.14453125 107.68359375 C-20.75683594 108.77800781 -21.36914062 109.87242187 -22 111 C-22.96035156 110.855625 -23.92070312 110.71125 -24.91015625 110.5625 C-37.290592 108.84013808 -49.51764282 108.78487254 -62 109 C-59.67875541 106.63241327 -57.27433726 104.62330558 -54.625 102.625 C-51.15229455 99.94333085 -47.98661419 97.2287721 -45 94 C-43.6078125 92.6078125 -43.6078125 92.6078125 -42.1875 91.1875 C-32.85942121 80.00823032 -29.14013826 65.88907306 -26 52 C-24.68 52.66 -23.36 53.32 -22 54 C-21.97812622 55.24873901 -21.97812622 55.24873901 -21.95581055 56.52270508 C-21.8947137 59.61489653 -21.82055444 62.70642082 -21.73754883 65.7980957 C-21.68798681 67.7929063 -21.65348867 69.78807257 -21.61914062 71.78320312 C-21.58369141 73.03681641 -21.54824219 74.29042969 -21.51171875 75.58203125 C-21.48553467 76.73936768 -21.45935059 77.8967041 -21.43237305 79.08911133 C-21.23298572 81.97620154 -21.23298572 81.97620154 -19.66992188 83.82983398 C-16.98923357 85.70827537 -13.92951023 86.39087894 -10.8125 87.25 C-4.7988463 89.01404198 0.9534044 91.0937748 6.6875 93.625 C7.34580811 93.91407227 8.00411621 94.20314453 8.68237305 94.50097656 C11.48182582 95.75962845 14.14941044 97.08981414 16.78125 98.671875 C19.9085098 100.54382629 21.40124436 100.70563836 25 100 C29.09019325 97.27020142 32.4077415 93.63226918 35.78125 90.0859375 C36.26247314 89.58682861 36.74369629 89.08771973 37.23950195 88.57348633 C38.63624629 87.11598326 40.0119377 85.63839405 41.38671875 84.16015625 C44 82 44 82 46.62109375 81.4609375 C49.62366833 82.14132386 50.46802208 83.18575434 52.375 85.5625 C54.07767686 87.52410915 54.07767686 87.52410915 56 89 C59.8436445 89.12114604 59.8436445 89.12114604 63 88 C62.00229522 81.88905822 59.68767406 79.31346286 54.97265625 75.3828125 C50.72126049 72.40262616 45.99759628 72.1820628 41 73 C33.59934993 76.56165408 27.65369277 84.15923651 22 90 C16.62363662 88.31884613 11.55949873 86.08483106 6.44921875 83.7421875 C0.44380193 81.05213832 -5.73791786 79.00864189 -12 77 C-12.0093457 76.24380371 -12.01869141 75.48760742 -12.02832031 74.70849609 C-12.082192 71.26334866 -12.16580841 67.81953438 -12.25 64.375 C-12.26417969 63.18519531 -12.27835938 61.99539062 -12.29296875 60.76953125 C-12.47784073 52.06802139 -12.47784073 52.06802139 -17 45 C-20.28293777 43.01655843 -23.29679896 41.869933 -27 41 C-27.05607422 40.10861328 -27.05607422 40.10861328 -27.11328125 39.19921875 C-27.64497731 32.4956782 -29.09835993 26.44904024 -31 20 C-27.37 20.33 -23.74 20.66 -20 21 C-20.226875 19.845 -20.45375 18.69 -20.6875 17.5 C-21.26654683 12.76692154 -20.40058821 9.11659804 -18 5 C-12.35656507 -0.36814542 -7.58259861 -0.77111172 0 0 Z M-8 11 C-8.66 12.32 -9.32 13.64 -10 15 C-9.01 16.32 -8.02 17.64 -7 19 C-5.05000871 18.80528889 -5.05000871 18.80528889 -3 18 C-1.71563266 16.0162233 -1.71563266 16.0162233 -1 14 C-1.66 13.01 -2.32 12.02 -3 11 C-5.58380177 10.74969023 -5.58380177 10.74969023 -8 11 Z " fill="#C0C9FB" transform="translate(304,72)"/>
<path d="M0 0 C1.56911133 0.6494458 1.56911133 0.6494458 3.16992188 1.31201172 C6.43960554 2.6779459 9.69016474 4.08183648 12.9375 5.5 C13.95030029 5.92611572 14.96310059 6.35223145 16.0065918 6.79125977 C22.62317882 9.76735721 26.35933584 12.73335669 30 19 C30.83494995 20.43641846 30.83494995 20.43641846 31.68676758 21.90185547 C33.49857112 25.13439359 35.22599271 28.40086815 36.9375 31.6875 C37.83952148 33.3590918 37.83952148 33.3590918 38.75976562 35.06445312 C39.6037793 36.67803711 39.6037793 36.67803711 40.46484375 38.32421875 C40.976521 39.29447998 41.48819824 40.26474121 42.01538086 41.2644043 C43.15300328 44.42509341 43.1874297 45.87366112 42 49 C35.57873214 55.44107372 25.0676318 59.22878122 17 63.3125 C14.85865161 64.40144755 12.71812454 65.49196581 10.57861328 66.58451843 C9.25658374 67.2591109 7.93337817 67.93140466 6.60888672 68.60115051 C3.60681098 70.01000054 3.60681098 70.01000054 1 72 C-1.75 72.5625 -1.75 72.5625 -5 72 C-10.16273955 64.73655954 -13.90586526 56.56227045 -17.91601562 48.62426758 C-22.75141163 37.37249139 -22.75141163 37.37249139 -31 29 C-36.48371955 28.3040518 -36.48371955 28.3040518 -41.12109375 30.68359375 C-43.1633179 33.20134618 -44.13818515 35.31699671 -45.1875 38.375 C-45.51105469 39.29023437 -45.83460938 40.20546875 -46.16796875 41.1484375 C-50.76917709 56.91783697 -48.96456305 75.81968431 -41.828125 90.40625 C-41 93 -41 93 -41.62817383 94.83422852 C-43.45371309 97.71629985 -45.67843816 99.86412002 -48.12109375 102.24609375 C-48.62165787 102.73908463 -49.12222198 103.2320755 -49.63795471 103.74000549 C-51.77013419 105.8396323 -53.91395963 107.92721981 -56.05688477 110.01586914 C-57.62410744 111.54677258 -59.18518585 113.08375642 -60.74609375 114.62109375 C-61.68122803 115.5330249 -62.6163623 116.44495605 -63.57983398 117.38452148 C-67.43765694 121.55367889 -69.42937598 124.7100681 -69.4375 130.4375 C-69.45683594 131.34371094 -69.47617188 132.24992188 -69.49609375 133.18359375 C-68.32219397 139.84801692 -62.91081231 144.34735376 -58.25 148.875 C-57.64800781 149.46796875 -57.04601562 150.0609375 -56.42578125 150.671875 C-54.95508055 152.11923124 -53.4781733 153.5602763 -52 155 C-52.24645264 155.53254395 -52.49290527 156.06508789 -52.74682617 156.61376953 C-57.65737121 167.26455262 -62.32748379 177.85326737 -66 189 C-67.05127075 189.02187378 -67.05127075 189.02187378 -68.1237793 189.04418945 C-71.31223009 189.11885487 -74.49965513 189.21545475 -77.6875 189.3125 C-78.79029297 189.33505859 -79.89308594 189.35761719 -81.02929688 189.38085938 C-82.09599609 189.41630859 -83.16269531 189.45175781 -84.26171875 189.48828125 C-85.73064575 189.52755737 -85.73064575 189.52755737 -87.22924805 189.56762695 C-90.41134469 190.06418992 -92.32029171 191.26423721 -95 193 C-95.66 193 -96.32 193 -97 193 C-97.4640625 194.175625 -97.4640625 194.175625 -97.9375 195.375 C-99 198 -99 198 -100 200 C-100.11015884 201.56054354 -100.15908872 203.1256172 -100.17700195 204.68994141 C-100.19625481 206.15253891 -100.19625481 206.15253891 -100.21589661 207.64468384 C-100.22328354 208.7029538 -100.23067047 209.76122375 -100.23828125 210.8515625 C-100.25038887 212.48356094 -100.25038887 212.48356094 -100.26274109 214.14852905 C-100.27659251 216.45691327 -100.28730991 218.76531806 -100.29516602 221.07373047 C-100.31232877 224.58991924 -100.3562007 228.10515569 -100.40039062 231.62109375 C-100.41052186 233.86457642 -100.41903661 236.10806709 -100.42578125 238.3515625 C-100.45204338 239.92074936 -100.45204338 239.92074936 -100.47883606 241.52163696 C-100.46050461 247.74984901 -99.8458677 252.90646316 -96 258 C-90.27357715 261.6923267 -84.23190485 261.53562676 -77.5625 261.6875 C-76.54478516 261.72166016 -75.52707031 261.75582031 -74.47851562 261.79101562 C-71.98578734 261.87293627 -69.49338598 261.94226649 -67 262 C-66.62887085 262.92945435 -66.62887085 262.92945435 -66.25024414 263.87768555 C-63.99239054 269.52795211 -61.73192716 275.17697441 -59.4375 280.8125 C-59.14681641 281.53630859 -58.85613281 282.26011719 -58.55664062 283.00585938 C-57.26919461 286.15967008 -56.05828643 288.91250848 -54.16015625 291.76171875 C-53.77730469 292.50035156 -53.39445313 293.23898437 -53 294 C-54.16416903 297.09205486 -55.873411 299.10300471 -58.22265625 301.3828125 C-59.15368164 302.29740234 -59.15368164 302.29740234 -60.10351562 303.23046875 C-60.74998047 303.85566406 -61.39644531 304.48085938 -62.0625 305.125 C-63.3472393 306.37536074 -64.62989681 307.62786516 -65.91015625 308.8828125 C-66.76299194 309.70869873 -66.76299194 309.70869873 -67.63305664 310.55126953 C-70.27747548 313.35390954 -70.31007119 315.87390602 -70.5 319.625 C-70.5721875 320.62789063 -70.644375 321.63078125 -70.71875 322.6640625 C-69.61911974 327.76778122 -66.61067746 330.34577668 -63 334 C-61.95427169 335.07569992 -60.90888841 336.15173531 -59.86376953 337.22802734 C-56.84040325 340.32604596 -53.78985713 343.39583932 -50.72875977 346.45654297 C-48.80130309 348.38620975 -46.88201892 350.32377307 -44.96289062 352.26171875 C-43.73225997 353.49527984 -42.501157 354.72836994 -41.26953125 355.9609375 C-40.4147393 356.82650772 -40.4147393 356.82650772 -39.54267883 357.70956421 C-35.55290017 361.67651339 -32.50909725 364.25096843 -26.8125 364.5 C-16.29920714 364.17413937 -8.75913958 354.10025504 -2 347 C2.70093367 348.4699514 7.14502002 350.34717961 11.625 352.375 C18.29621276 355.35178069 25.02022327 357.83060993 32 360 C32.0093457 360.69037354 32.01869141 361.38074707 32.02832031 362.09204102 C32.08232667 365.2495597 32.16591469 368.40564488 32.25 371.5625 C32.26417969 372.64853516 32.27835938 373.73457031 32.29296875 374.85351562 C32.49248513 381.41760447 32.97828361 385.72323074 37 391 C39.58860393 393.3909907 39.58860393 393.3909907 42 395 C38.68784607 395.48157839 35.37521694 395.95981111 32.0625 396.4375 C30.67321289 396.63956055 30.67321289 396.63956055 29.25585938 396.84570312 C27.87817383 397.04389648 27.87817383 397.04389648 26.47265625 397.24609375 C25.64000244 397.36654053 24.80734863 397.4869873 23.94946289 397.61108398 C22.48947876 397.80359741 22.48947876 397.80359741 21 398 C20.02095955 398.12989822 20.02095955 398.12989822 19.0221405 398.26242065 C13.18513915 398.98062867 7.42050269 399.17594089 1.54296875 399.203125 C0.55992264 399.20882507 -0.42312347 399.21452515 -1.43595886 399.22039795 C-3.51092471 399.22979729 -5.58590515 399.23636163 -7.66088867 399.24023438 C-10.76574378 399.24985512 -13.86991146 399.28089248 -16.97460938 399.3125 C-48.96192103 399.48181167 -83.51444388 393.11735035 -108 371 C-108.75667969 370.33613281 -109.51335937 369.67226563 -110.29296875 368.98828125 C-128.4113388 352.11730329 -136.86419909 326.97837921 -137.97875977 302.74389648 C-138.32618824 288.84826167 -135.63940564 275.30362416 -132.90234375 261.7421875 C-128.37649855 238.66916053 -131.04629629 217.61379596 -144.1015625 197.8125 C-147.6203223 193.00139569 -151.43046839 188.48077647 -155.34985352 183.99682617 C-179.2674823 156.60277559 -189.17537233 128.61063841 -187 92 C-184.83076027 73.52964681 -177.07155078 55.82757984 -166 41 C-165.39800781 40.17628906 -164.79601562 39.35257813 -164.17578125 38.50390625 C-147.29171444 16.38117721 -123.87995272 0.3693988 -97 -7 C-96.35417969 -7.18256348 -95.70835938 -7.36512695 -95.04296875 -7.55322266 C-62.16638775 -16.70599897 -31.11866698 -13.10399218 0 0 Z " fill="#B8C1FA" transform="translate(187,58)"/>
<path d="M0 0 C1.98 0.99 1.98 0.99 4 2 C4.02187378 3.24873901 4.02187378 3.24873901 4.04418945 4.52270508 C4.1052863 7.61489653 4.17944556 10.70642082 4.26245117 13.7980957 C4.31201319 15.7929063 4.34651133 17.78807257 4.38085938 19.78320312 C4.41630859 21.03681641 4.45175781 22.29042969 4.48828125 23.58203125 C4.51446533 24.73936768 4.54064941 25.8967041 4.56762695 27.08911133 C4.76701428 29.97620154 4.76701428 29.97620154 6.33007812 31.82983398 C9.01076643 33.70827537 12.07048977 34.39087894 15.1875 35.25 C21.2011537 37.01404198 26.9534044 39.0937748 32.6875 41.625 C33.34580811 41.91407227 34.00411621 42.20314453 34.68237305 42.50097656 C37.48182582 43.75962845 40.14941044 45.08981414 42.78125 46.671875 C45.9085098 48.54382629 47.40124436 48.70563836 51 48 C55.09019325 45.27020142 58.4077415 41.63226918 61.78125 38.0859375 C62.26247314 37.58682861 62.74369629 37.08771973 63.23950195 36.57348633 C64.63624629 35.11598326 66.0119377 33.63839405 67.38671875 32.16015625 C70 30 70 30 72.62109375 29.46484375 C76.30644134 30.29389567 77.66858424 32.62307009 79.9609375 35.46875 C82.02255929 37.34832695 82.02255929 37.34832695 85.35546875 36.90234375 C89.33988639 37.00910735 90.71218393 37.80873757 93.52539062 40.56835938 C94.22438477 41.30795898 94.22438477 41.30795898 94.9375 42.0625 C95.43056641 42.52849609 95.92363281 42.99449219 96.43164062 43.47460938 C99.17782908 46.27412187 99.99089222 47.64897116 100.09375 51.61328125 C100.0628125 52.73089844 100.031875 53.84851563 100 55 C101.4916062 57.31923036 101.4916062 57.31923036 103.5625 59.125 C105.56640625 61.0078125 105.56640625 61.0078125 107 63 C106.84105694 66.79108644 105.65315817 68.87910572 103.125 71.625 C102.50882812 72.305625 101.89265625 72.98625 101.2578125 73.6875 C99.55641445 75.43010838 97.83941773 77.09692081 96.0546875 78.75 C95.55050293 79.22614746 95.04631836 79.70229492 94.52685547 80.19287109 C93.05381611 81.57452265 91.55850621 82.93231219 90.0625 84.2890625 C87.72892092 86.80931835 87.72892092 86.80931835 87.921875 89.83984375 C89.28209409 93.82686274 91.16486061 97.28913437 93.25 100.9375 C96.97440709 107.68090057 99.71420642 114.26428653 101.9296875 121.6328125 C103.07179249 125.22585812 104.46745879 128.55835032 106 132 C106.83249268 132.01981934 107.66498535 132.03963867 108.52270508 132.06005859 C111.614765 132.13820742 114.70643383 132.22490206 117.7980957 132.31738281 C119.7929536 132.37444092 121.7880854 132.42164442 123.78320312 132.46875 C125.03681641 132.50742187 126.29042969 132.54609375 127.58203125 132.5859375 C128.73936768 132.6173584 129.8967041 132.6487793 131.08911133 132.68115234 C134 133 134 133 137 135 C137.3742218 137.08728027 137.3742218 137.08728027 137.37231445 139.69335938 C137.37854324 140.66776978 137.38477203 141.64218018 137.39118958 142.64611816 C137.37737495 144.22894592 137.37737495 144.22894592 137.36328125 145.84375 C137.36377975 146.92378296 137.36427826 148.00381592 137.36479187 149.11657715 C137.36244836 151.40309486 137.35270369 153.689615 137.33618164 155.97607422 C137.31259687 159.48558503 137.31561778 162.99433641 137.32226562 166.50390625 C137.31668895 168.72135872 137.30957915 170.93880797 137.30078125 173.15625 C137.30169266 174.21146851 137.30260406 175.26668701 137.30354309 176.35388184 C137.29401108 177.32829224 137.28447906 178.30270264 137.2746582 179.30664062 C137.27005081 180.16664673 137.26544342 181.02665283 137.26069641 181.91271973 C137 184 137 184 135 186 C132.14257813 186.27124023 132.14257813 186.27124023 128.53125 186.30859375 C127.23832031 186.33373047 125.94539063 186.35886719 124.61328125 186.38476562 C122.55258322 186.41355732 120.49196672 186.437573 118.43115234 186.45629883 C116.44350977 186.47789848 114.45609488 186.51797504 112.46875 186.55859375 C110.68114258 186.57877563 110.68114258 186.57877563 108.85742188 186.59936523 C107.44299805 186.79767944 107.44299805 186.79767944 106 187 C103.98249579 190.02625632 103.23468034 192.27770616 102.25 195.75 C99.04904132 206.38429606 95.41712601 216.68981999 89.00390625 225.8515625 C87.66556001 228.7157276 88.08393282 230.0015803 89 233 C90.64178273 235.10956194 90.64178273 235.10956194 92.78125 236.99609375 C93.54050781 237.71990234 94.29976563 238.44371094 95.08203125 239.18945312 C96.69206383 240.68634125 98.30404103 242.18114053 99.91796875 243.67382812 C100.67722656 244.39892578 101.43648438 245.12402344 102.21875 245.87109375 C102.91935547 246.52005615 103.61996094 247.16901855 104.34179688 247.83764648 C106.60677014 250.79124899 107.1980033 252.24474544 107 256 C105.06433657 258.98602519 102.59363119 261.36267428 100.0546875 263.83984375 C99.33266144 264.56619522 98.61063538 265.29254669 97.86672974 266.04090881 C96.33664213 267.57137778 94.79779263 269.09312961 93.25097656 270.60668945 C90.88181674 272.93081285 88.54929328 275.28761539 86.21875 277.65039062 C84.72863063 279.13229084 83.23650784 280.61217981 81.7421875 282.08984375 C81.04302216 282.79801743 80.34385681 283.5061911 79.62350464 284.23582458 C78.95996979 284.87721878 78.29643494 285.51861298 77.61279297 286.17944336 C77.03463837 286.7498082 76.45648376 287.32017303 75.86080933 287.90782166 C74 289 74 289 71.39849854 288.77319336 C68.51153901 287.84253699 67.20823136 286.6550721 65.1171875 284.47265625 C64.42496094 283.76302734 63.73273438 283.05339844 63.01953125 282.32226562 C61.95798828 281.20368164 61.95798828 281.20368164 60.875 280.0625 C59.45784951 278.59300431 58.03866151 277.12547011 56.6171875 275.66015625 C55.99440918 275.00668213 55.37163086 274.35320801 54.72998047 273.67993164 C52.90329683 271.80430045 52.90329683 271.80430045 50 270 C45.5339853 270.30134009 41.98190816 272.47426465 38.125 274.5625 C28.49375732 279.6101925 18.28610821 282.91893587 7.97094727 286.27905273 C6.02597201 286.83363983 6.02597201 286.83363983 5 288 C4.86581897 290.12104159 4.79638337 292.24623666 4.75390625 294.37109375 C4.70459961 296.31532227 4.70459961 296.31532227 4.65429688 298.29882812 C4.60683954 300.37047597 4.56241301 302.44209521 4.52319336 304.51391602 C4.48354115 306.50816103 4.43140464 308.50214556 4.37890625 310.49609375 C4.3538501 311.69419678 4.32879395 312.8922998 4.30297852 314.12670898 C4 317 4 317 2 319 C-0.04258728 319.26069641 -0.04258728 319.26069641 -2.58569336 319.2746582 C-3.53685532 319.28419022 -4.48801727 319.29372223 -5.46800232 319.30354309 C-7.01331383 319.30217598 -7.01331383 319.30217598 -8.58984375 319.30078125 C-9.64530899 319.30506638 -10.70077423 319.3093515 -11.78822327 319.31376648 C-14.02344037 319.31951705 -16.25867618 319.32000472 -18.49389648 319.31567383 C-21.92008305 319.31251605 -25.3454048 319.33595706 -28.77148438 319.36132812 C-30.94010307 319.36360119 -33.1087241 319.36430458 -35.27734375 319.36328125 C-36.30552719 319.372491 -37.33371063 319.38170074 -38.39305115 319.39118958 C-39.82452232 319.38184639 -39.82452232 319.38184639 -41.28491211 319.37231445 C-42.12493271 319.37294388 -42.96495331 319.3735733 -43.83042908 319.3742218 C-46.51127821 318.91181139 -47.39201615 318.16427355 -49 316 C-49.43237305 313.08911133 -49.43237305 313.08911133 -49.51171875 309.58203125 C-49.54716797 308.32841797 -49.58261719 307.07480469 -49.61914062 305.78320312 C-49.65297852 303.81770508 -49.65297852 303.81770508 -49.6875 301.8125 C-49.72067666 300.47717987 -49.75516666 299.14189168 -49.79101562 297.80664062 C-49.87362057 294.53784496 -49.94273229 291.26932188 -50 288 C-54.9020249 285.72488454 -59.61936999 283.6998264 -64.875 282.375 C-71.9428657 280.32815946 -78.10704745 276.93441317 -84.46435547 273.26513672 C-85.23924316 272.83088379 -86.01413086 272.39663086 -86.8125 271.94921875 C-87.49957031 271.55049561 -88.18664062 271.15177246 -88.89453125 270.7409668 C-91.70982131 269.75019623 -93.19019388 270.03086365 -96 271 C-98.10956194 272.64178273 -98.10956194 272.64178273 -99.99609375 274.78125 C-100.71990234 275.54050781 -101.44371094 276.29976563 -102.18945312 277.08203125 C-103.68634125 278.69206383 -105.18114053 280.30404103 -106.67382812 281.91796875 C-107.39892578 282.67722656 -108.12402344 283.43648438 -108.87109375 284.21875 C-109.52005615 284.91935547 -110.16901855 285.61996094 -110.83764648 286.34179688 C-113.79124899 288.60677014 -115.24474544 289.1980033 -119 289 C-121.98602519 287.06433657 -124.36267428 284.59363119 -126.83984375 282.0546875 C-127.56619522 281.33266144 -128.29254669 280.61063538 -129.04090881 279.86672974 C-130.57137778 278.33664213 -132.09312961 276.79779263 -133.60668945 275.25097656 C-135.93081285 272.88181674 -138.28761539 270.54929328 -140.65039062 268.21875 C-142.13229084 266.72863063 -143.61217981 265.23650784 -145.08984375 263.7421875 C-145.79801743 263.04302216 -146.5061911 262.34385681 -147.23582458 261.62350464 C-147.87721878 260.95996979 -148.51861298 260.29643494 -149.17944336 259.61279297 C-149.7498082 259.03463837 -150.32017303 258.45648376 -150.90782166 257.86080933 C-152 256 -152 256 -151.77992249 253.40126038 C-150.81179048 250.42053208 -149.51209003 249.12450735 -147.21875 247.00390625 C-146.45949219 246.28009766 -145.70023438 245.55628906 -144.91796875 244.81054688 C-143.30793617 243.31365875 -141.69595897 241.81885947 -140.08203125 240.32617188 C-135.64670316 236.13713161 -135.64670316 236.13713161 -132.75390625 230.86328125 C-133.08131031 227.05396094 -134.43105962 224.87930216 -136.4375 221.625 C-141.01080676 213.80997178 -143.69791434 205.5663416 -146.38452148 196.94970703 C-146.69848877 195.9492334 -147.01245605 194.94875977 -147.3359375 193.91796875 C-147.60970215 193.01844482 -147.8834668 192.1189209 -148.16552734 191.19213867 C-148.89127658 188.83586734 -148.89127658 188.83586734 -151 187 C-153.86402446 186.67702873 -153.86402446 186.67702873 -157.21484375 186.69140625 C-158.45814453 186.66626953 -159.70144531 186.64113281 -160.98242188 186.61523438 C-163.61518582 186.58013086 -166.24800384 186.5488692 -168.88085938 186.52148438 C-170.12544922 186.49505859 -171.37003906 186.46863281 -172.65234375 186.44140625 C-173.79695068 186.42795166 -174.94155762 186.41449707 -176.12084961 186.40063477 C-179.38146229 185.94691939 -180.05159644 185.55512202 -182 183 C-182.38095093 180.87512207 -182.38095093 180.87512207 -182.38818359 178.39257812 C-182.39764008 177.46151245 -182.40709656 176.53044678 -182.4168396 175.57116699 C-182.41076691 174.56799438 -182.40469421 173.56482178 -182.3984375 172.53125 C-182.40130768 171.49939575 -182.40417786 170.4675415 -182.40713501 169.40441895 C-182.40917701 167.22224377 -182.40363771 165.04005035 -182.39111328 162.85791016 C-182.37506205 159.512931 -182.39095791 156.16916021 -182.41015625 152.82421875 C-182.40817384 150.70572649 -182.40433022 148.58723499 -182.3984375 146.46875 C-182.40451019 145.46557739 -182.41058289 144.46240479 -182.4168396 143.42883301 C-182.40738312 142.49776733 -182.39792664 141.56670166 -182.38818359 140.60742188 C-182.38579681 139.78818237 -182.38341003 138.96894287 -182.38095093 138.12487793 C-181.90586262 135.47491807 -181.14371812 134.59135144 -179 133 C-175.90551758 132.56762695 -175.90551758 132.56762695 -172.14453125 132.48828125 C-171.48289474 132.47033005 -170.82125824 132.45237885 -170.13957214 132.43388367 C-168.03061253 132.37979102 -165.92187901 132.34589069 -163.8125 132.3125 C-162.38082792 132.27932573 -160.94918567 132.24483595 -159.51757812 132.20898438 C-156.0119361 132.12406743 -152.50621527 132.05725079 -149 132 C-148.8153418 131.22003662 -148.63068359 130.44007324 -148.44042969 129.63647461 C-147.01992333 123.77440404 -145.50978789 118.15484026 -143.25 112.5625 C-142.99976074 111.94125244 -142.74952148 111.32000488 -142.49169922 110.67993164 C-140.20391265 105.15824444 -137.37564257 100.04085341 -134.3203125 94.90234375 C-132.79439583 91.5480358 -132.61142373 89.65163544 -133 86 C-134.61449186 83.65954942 -134.61449186 83.65954942 -136.9375 81.6875 C-138.15566406 80.53894531 -138.15566406 80.53894531 -139.3984375 79.3671875 C-140.25695312 78.58601563 -141.11546875 77.80484375 -142 77 C-143.70101777 75.45222707 -145.38919266 73.89018978 -147.0625 72.3125 C-147.81660156 71.62800781 -148.57070312 70.94351563 -149.34765625 70.23828125 C-151 68 -151 68 -151.57421875 65.09521484 C-150.80884886 60.96963686 -148.69656954 58.93681564 -145.75 56.1640625 C-145.21729492 55.63984711 -144.68458984 55.11563171 -144.13574219 54.57553101 C-142.43742738 52.91070121 -140.71943325 51.26798194 -139 49.625 C-137.84238637 48.4974921 -136.68611938 47.36859983 -135.53125 46.23828125 C-132.70285311 43.47590307 -129.85662377 40.73316596 -127 38 C-124.10156266 39.29491773 -122.96716228 40.04179346 -120.9375 42.625 C-117.82545647 46.58049458 -113.81342894 49.20633762 -109.71875 52.0703125 C-102.34966592 57.30066815 -102.34966592 57.30066815 -101 60 C-100.6448235 64.68724799 -100.55789929 69.37377029 -100.48510742 74.07299805 C-100.45368517 75.63363673 -100.40616005 77.19404474 -100.34155273 78.75366211 C-99.87726033 90.13064431 -101.21805794 96.1936993 -109 105 C-114.44837595 113.32157003 -118.32937358 122.4479182 -121 132 C-121.21269531 132.72703125 -121.42539063 133.4540625 -121.64453125 134.203125 C-128.56892256 159.50953353 -123.49121735 188.37320603 -110.85522461 211.0065918 C-96.47848178 235.31081377 -73.59011523 251.80329764 -46.375 259.25 C-40.52717011 260.71491092 -35.02012921 261.79661726 -29 262 C-28.34580078 262.03109863 -27.69160156 262.06219727 -27.01757812 262.09423828 C1.15760768 263.32705754 27.99542731 253.93907008 49 235 C49.84175781 234.25234375 50.68351563 233.5046875 51.55078125 232.734375 C65.90065741 219.25486458 75.21433604 200.95026732 80 182 C80.22558594 181.10796875 80.45117188 180.2159375 80.68359375 179.296875 C86.24278407 152.45940447 79.79508565 124.81447113 65.30224609 101.93164062 C57.65924555 90.59466643 47.64085146 80.60560625 35.9375 73.5 C32.33042618 70.43014994 31.95142404 68.31373116 30.875 63.83984375 C28.9517571 57.59789023 25.48918033 50.65945356 20 47 C15.72629797 46.44600159 13.77890065 46.40223903 10.3125 49.0625 C8.56717435 51.27953529 7.21639749 53.2511127 5.85546875 55.68359375 C5.24316406 56.77800781 4.63085938 57.87242187 4 59 C3.03964844 58.855625 2.07929688 58.71125 1.08984375 58.5625 C-11.290592 56.84013808 -23.51764282 56.78487254 -36 57 C-33.67875541 54.63241327 -31.27433726 52.62330558 -28.625 50.625 C-25.15229455 47.94333085 -21.98661419 45.2287721 -19 42 C-18.071875 41.071875 -17.14375 40.14375 -16.1875 39.1875 C-6.85942121 28.00823032 -3.14013826 13.88907306 0 0 Z " fill="#FDFDFE" transform="translate(278,124)"/>
<path d="M0 0 C14.31465827 1.50680613 26.94575878 10.24716541 36 21 C40.87909548 27.82576346 45.05770679 34.78137086 47 43 C47.18046875 43.70253906 47.3609375 44.40507813 47.546875 45.12890625 C50.24469297 62.22283908 47.88010769 79.55167047 38 94 C32.60913398 100.89727674 26.7399253 106.32080745 19.4453125 111.1484375 C15.62612216 114.0402845 12.77250232 117.54227485 11 122 C10.70122505 125.21082305 10.70122505 125.21082305 10.75276184 128.8454895 C10.75034743 129.53353287 10.74793301 130.22157623 10.74544543 130.93046939 C10.73981122 133.23515568 10.74846926 135.53956446 10.75708008 137.84423828 C10.75600714 139.49673538 10.75406829 141.14923212 10.75132751 142.80172729 C10.74647859 147.28912204 10.75413493 151.77641741 10.76428056 156.26380014 C10.77305805 160.95539647 10.77130369 165.64698966 10.7709198 170.33859253 C10.77185643 178.21549139 10.78054122 186.09235173 10.79418945 193.96923828 C10.80992585 203.0851533 10.81518718 212.20102616 10.8144539 221.31695378 C10.81384428 230.07778264 10.81894296 238.83859773 10.82724571 247.59942245 C10.83078249 251.33224469 10.83260952 255.06506206 10.83313942 258.79788589 C10.83414147 263.1891116 10.84022677 267.58030169 10.85030556 271.97151566 C10.85323447 273.58645917 10.85445514 275.20140678 10.85387802 276.81635284 C10.85338977 279.01376609 10.85901878 281.21107853 10.86628723 283.40847778 C10.86796308 284.64032869 10.86963892 285.8721796 10.87136555 287.14135933 C10.80346688 289.94572905 10.80346688 289.94572905 12 292 C13.99954746 292.04254356 16.00041636 292.04080783 18 292 C19.82972114 290.17027886 19.14477469 287.26188247 19.15821838 284.80552673 C19.16315636 284.15130393 19.16809434 283.49708113 19.17318195 282.82303339 C19.18862828 280.61501649 19.19693673 278.40702881 19.20532227 276.19897461 C19.2148952 274.62248982 19.22490492 273.04600764 19.23532104 271.4695282 C19.26243962 267.17635247 19.28341141 262.88316567 19.30332303 258.58995128 C19.32513986 254.10825106 19.35254953 249.62658523 19.37937927 245.14491272 C19.42936454 236.65221585 19.47428165 228.15949995 19.51740164 219.66676575 C19.56672426 210.00064019 19.62166078 200.33454913 19.67708123 190.66845691 C19.7909908 170.77900339 19.89781019 150.88951696 20 131 C25.65774253 130.0223928 31.01901408 129.81637229 36.75 129.8125 C37.6884375 129.80025391 38.626875 129.78800781 39.59375 129.77539062 C40.99367188 129.77249023 40.99367188 129.77249023 42.421875 129.76953125 C43.25299805 129.76542236 44.08412109 129.76131348 44.94042969 129.75708008 C49.34349872 130.10666942 53.66884835 131.13376967 58 132 C58 168.3 58 204.6 58 242 C55.03 242.99 52.06 243.98 49 245 C44.52249998 248.78571463 44.52249998 248.78571463 42.76171875 254.13671875 C42.58034297 260.37031779 43.32566227 263.92076843 47 269 C47.66 269.33 48.32 269.66 49 270 C48.8131665 270.60368408 48.62633301 271.20736816 48.43383789 271.8293457 C46.57779308 277.90819994 44.91565086 284.0061946 43.4375 290.1875 C43.1132605 291.54137817 43.1132605 291.54137817 42.7824707 292.92260742 C41.00118303 300.57421706 39.80417681 308.18628202 39 316 C14.92330896 317.15260755 -6.40495415 309.37425578 -24.5625 293.1875 C-26.05345523 291.80426567 -27.53435409 290.41002368 -29 289 C-29.52965111 288.59917363 -30.05930222 288.19834726 -30.60500336 287.78537464 C-32.71609786 285.08350822 -32.37652357 282.8463567 -32.37854004 279.45353699 C-32.38307017 278.78550452 -32.3876003 278.11747205 -32.3922677 277.42919618 C-32.40391487 275.1859176 -32.39423574 272.94323266 -32.38476562 270.69995117 C-32.38886976 269.09349685 -32.3943297 267.4870455 -32.40104675 265.88059998 C-32.41278553 262.41837568 -32.41525116 258.95631086 -32.41069031 255.49407005 C-32.40389081 250.01869421 -32.41973181 244.54352879 -32.43908691 239.06819153 C-32.4769822 227.44130573 -32.48974409 215.81443808 -32.5 204.1875 C-32.51106957 191.64625389 -32.52642564 179.10510435 -32.57071257 166.56392461 C-32.58907032 161.12211462 -32.5929604 155.68054433 -32.58577728 150.23871076 C-32.58425457 146.85029068 -32.59504506 143.46199027 -32.60915565 140.07360268 C-32.61315583 138.5038816 -32.6120375 136.93413773 -32.60538292 135.36442566 C-32.59698537 133.21846311 -32.60700912 131.07332694 -32.62145996 128.92741394 C-32.62217247 127.72744876 -32.62288498 126.52748358 -32.62361908 125.29115582 C-33.24073277 119.8949808 -35.39927858 116.04944517 -39.5625 112.625 C-40.26632813 112.03332031 -40.97015625 111.44164062 -41.6953125 110.83203125 C-43.25245808 109.59423248 -44.83158403 108.38366522 -46.4296875 107.19921875 C-58.48757267 98.12763224 -67.46141782 85.34331041 -69.71875 70.21484375 C-70.6433874 59.64572461 -71.50248584 47.89307669 -67 38 C-66.01 37.505 -66.01 37.505 -65 37 C-64.68361572 37.61294922 -64.36723145 38.22589844 -64.04125977 38.85742188 C-60.39020781 45.92048061 -56.70687725 52.96608601 -53 60 C-52.54753906 60.86173828 -52.09507812 61.72347656 -51.62890625 62.61132812 C-50.45512588 64.83273489 -49.26317516 67.04304221 -48.0625 69.25 C-47.5521521 70.22163086 -47.5521521 70.22163086 -47.03149414 71.21289062 C-44.88209203 75.1019338 -43.20964642 77.4529129 -39 79 C-30.37521793 80.30273831 -24.45549389 77.91372203 -17.0625 73.6875 C-16.08047607 73.14786621 -15.09845215 72.60823242 -14.08666992 72.05224609 C-12.05613192 70.93447985 -10.03047812 69.80779579 -8.00976562 68.67236328 C-5.09741578 67.05412866 -2.15981526 65.5002815 0.796875 63.96484375 C2.59401018 63.01872321 4.39089686 62.07213045 6.1875 61.125 C7.01822021 60.69791748 7.84894043 60.27083496 8.70483398 59.83081055 C13.51568447 57.23726131 16.41504224 55.00919276 19 50 C21.31890252 40.41520294 16.7068671 33.09183787 12.25 24.8125 C11.81187988 23.9882251 11.37375977 23.1639502 10.92236328 22.31469727 C8.89851255 18.51359947 6.85393279 14.72427163 4.7890625 10.9453125 C4.15742188 9.78773437 3.52578125 8.63015625 2.875 7.4375 C2.31554687 6.42558594 1.75609375 5.41367188 1.1796875 4.37109375 C0 2 0 2 0 0 Z " fill="#FDFDFE" transform="translate(219,60)"/>
<path d="M0 0 C1.40765625 -0.01836914 1.40765625 -0.01836914 2.84375 -0.03710938 C4.24367188 -0.04000977 4.24367188 -0.04000977 5.671875 -0.04296875 C6.91855957 -0.04913208 6.91855957 -0.04913208 8.19042969 -0.05541992 C12.59349872 0.29416942 16.91884835 1.32126967 21.25 2.1875 C21.25 38.4875 21.25 74.7875 21.25 112.1875 C18.28 113.1775 15.31 114.1675 12.25 115.1875 C7.77249998 118.97321463 7.77249998 118.97321463 6.01171875 124.32421875 C5.83034297 130.55781779 6.57566227 134.10826843 10.25 139.1875 C10.91 139.5175 11.57 139.8475 12.25 140.1875 C12.0631665 140.79118408 11.87633301 141.39486816 11.68383789 142.0168457 C9.82779308 148.09569994 8.16565086 154.1936946 6.6875 160.375 C6.3632605 161.72887817 6.3632605 161.72887817 6.0324707 163.11010742 C4.25118303 170.76171706 3.05417681 178.37378202 2.25 186.1875 C-6.64543642 186.38615739 -15.07910197 186.52197255 -23.75 184.1875 C-23.09 183.8575 -22.43 183.5275 -21.75 183.1875 C-21.75 176.9175 -21.75 170.6475 -21.75 164.1875 C-22.41 163.8575 -23.07 163.5275 -23.75 163.1875 C-20.78 162.1975 -20.78 162.1975 -17.75 161.1875 C-17.42 108.3875 -17.09 55.5875 -16.75 1.1875 C-11.0088357 0.23063928 -5.78425817 0.00390828 0 0 Z " fill="#A9B1F2" transform="translate(255.75,189.8125)"/>
<path d="M0 0 C16.26142252 12.19606689 26.27755115 25.21701152 34 44 C34.31710937 44.76570313 34.63421875 45.53140625 34.9609375 46.3203125 C43.36855234 68.87935826 39.93007183 94.87838775 30.3046875 116.37109375 C26.15939696 124.72373007 20.98231884 131.86373134 15 139 C9.95003477 129.09853978 9.95003477 129.09853978 10.0625 124.375 C11 122 11 122 13.0625 119.375 C15.82599134 114.56117638 15.75220246 110.42718122 15 105 C13.91057728 101.4075121 13.91057728 101.4075121 11 99 C7.37 97.68 3.74 96.36 0 95 C0 63.65 0 32.3 0 0 Z " fill="#969DE8" transform="translate(310,207)"/>
<path d="M0 0 C0.01401855 1.66385742 0.01401855 1.66385742 0.02832031 3.36132812 C0.06842102 7.50658206 0.13423398 11.6511094 0.20751953 15.79589844 C0.23561334 17.5842144 0.25688514 19.37265186 0.27099609 21.16113281 C0.29258751 23.74346602 0.33931709 26.32435619 0.390625 28.90625 C0.39185364 29.69616333 0.39308228 30.48607666 0.39434814 31.29992676 C0.5385569 36.85940261 1.74472671 41.41022232 5 46 C10.72642285 49.6923267 16.76809515 49.53562676 23.4375 49.6875 C24.45521484 49.72166016 25.47292969 49.75582031 26.52148438 49.79101562 C29.01421266 49.87293627 31.50661402 49.94226649 34 50 C34.37112915 50.92945435 34.37112915 50.92945435 34.74975586 51.87768555 C37.00760946 57.52795211 39.26807284 63.17697441 41.5625 68.8125 C41.85318359 69.53630859 42.14386719 70.26011719 42.44335938 71.00585938 C43.73080539 74.15967008 44.94171357 76.91250848 46.83984375 79.76171875 C48 82 48 82 47.5703125 83.921875 C45.26525741 86.97234592 42.61595434 89.59171946 39.875 92.25 C39.31167969 92.80429687 38.74835938 93.35859375 38.16796875 93.9296875 C36.78313972 95.29104485 35.39216796 96.64614859 34 98 C31.09652422 94.53171434 29.33990934 90.68092329 27.5625 86.5625 C27.25755615 85.86108887 26.9526123 85.15967773 26.63842773 84.43701172 C20 68.84807311 20 68.84807311 20 63 C13.07 63 6.14 63 -1 63 C0.65 64.65 2.3 66.3 4 68 C7.33316615 72.05385072 8.61539156 74.89282736 8.3203125 80.046875 C7.58764841 84.51433894 5.77842435 87.27995748 2.5 90.3125 C-1.75798097 93.18663716 -5.96950897 93.69550349 -11 93 C-16.10209922 90.30455136 -19.17381037 87.4785689 -21 82 C-21.3823833 77.33492377 -21.47936179 74.95872359 -19.375 70.75 C-15.58075147 66.3566596 -11.83371963 63.68631996 -6 63 C-6.78375 62.5875 -7.5675 62.175 -8.375 61.75 C-11.19261302 59.87159132 -11.8066432 59.07070219 -13 56 C-13.26069641 53.69239807 -13.26069641 53.69239807 -13.2746582 51.12719727 C-13.28419022 50.162621 -13.29372223 49.19804474 -13.30354309 48.20423889 C-13.30263168 47.16875412 -13.30172028 46.13326935 -13.30078125 45.06640625 C-13.30506638 43.99631821 -13.3093515 42.92623016 -13.31376648 41.82371521 C-13.31950671 39.5617646 -13.32001231 37.29979553 -13.31567383 35.0378418 C-13.31251502 31.57894364 -13.33597366 28.12090172 -13.36132812 24.66210938 C-13.36360126 22.46354275 -13.36430455 20.26497382 -13.36328125 18.06640625 C-13.372491 17.03294571 -13.38170074 15.99948517 -13.39118958 14.93470764 C-13.33287947 5.87542961 -13.33287947 5.87542961 -10 2 C-6.54557187 0.09097393 -3.8810993 -0.07139146 0 0 Z " fill="#A8B0F2" transform="translate(86,270)"/>
<path d="M0 0 C1.40765625 -0.01836914 1.40765625 -0.01836914 2.84375 -0.03710938 C4.24367188 -0.04000977 4.24367188 -0.04000977 5.671875 -0.04296875 C6.91855957 -0.04913208 6.91855957 -0.04913208 8.19042969 -0.05541992 C12.59349872 0.29416942 16.91884835 1.32126967 21.25 2.1875 C21.25 38.4875 21.25 74.7875 21.25 112.1875 C18.28 113.1775 15.31 114.1675 12.25 115.1875 C10.27 116.1775 10.27 116.1775 8.25 117.1875 C8.22684592 104.7397412 8.20906923 92.29198751 8.19818783 79.84421158 C8.19296573 74.06442759 8.18588024 68.28465833 8.17456055 62.50488281 C8.16370783 56.92874761 8.15771808 51.35262658 8.15512276 45.77648163 C8.15327282 43.64739509 8.14966046 41.51830934 8.14426994 39.38922882 C8.13702793 36.41083592 8.1360104 33.43250183 8.13647461 30.45410156 C8.13287933 29.57081177 8.12928406 28.68752197 8.12557983 27.77746582 C8.1269545 26.96420837 8.12832916 26.15095093 8.12974548 25.31304932 C8.12882369 24.60879948 8.1279019 23.90454964 8.12695217 23.17895889 C8.25677423 21.07786295 8.67838414 19.20958029 9.25 17.1875 C7.33627365 16.69672179 5.41876751 16.22068358 3.5 15.75 C2.43265625 15.48316406 1.3653125 15.21632812 0.265625 14.94140625 C-5.01261675 13.9504523 -10.39809225 13.63349231 -15.75 13.1875 C-15.75 61.3675 -15.75 109.5475 -15.75 159.1875 C-16.08 159.1875 -16.41 159.1875 -16.75 159.1875 C-16.75 107.0475 -16.75 54.9075 -16.75 1.1875 C-11.0088357 0.23063928 -5.78425817 0.00390828 0 0 Z " fill="#99A0EA" transform="translate(255.75,189.8125)"/>
<path d="M0 0 C12.01068874 12.01068874 19.17545134 26.52945626 23 43 C23.22558594 43.95003906 23.45117188 44.90007812 23.68359375 45.87890625 C27.18833364 63.25758199 24.93357744 80.77700295 20.125 97.625 C19.75834229 98.94262329 19.75834229 98.94262329 19.38427734 100.28686523 C17.51518954 106.51047827 17.51518954 106.51047827 14.8046875 109.0859375 C14.20914062 109.38757813 13.61359375 109.68921875 13 110 C12.29753005 108.1096624 11.61359151 106.21243172 10.9375 104.3125 C10.55464844 103.25675781 10.17179687 102.20101562 9.77734375 101.11328125 C8.96345148 97.85362225 8.95585795 96.15961734 10 93 C10.680625 92.13375 11.36125 91.2675 12.0625 90.375 C14.82356854 85.56539674 14.75975281 81.42334187 14 76 C12.83947797 72.42586422 12.83947797 72.42586422 10 70 C6.7 68.68 3.4 67.36 0 66 C0 44.22 0 22.44 0 0 Z " fill="#A9B0F0" transform="translate(311,236)"/>
<path d="M0 0 C4.80476416 4.50860279 7.17056193 9.49698661 7.48101807 16.10009766 C7.49249937 18.0380727 7.48223752 19.9762577 7.45410156 21.9140625 C7.45468567 22.9783699 7.45526978 24.04267731 7.45587158 25.13923645 C7.45309904 28.6348301 7.42204507 32.12955647 7.390625 35.625 C7.38315969 38.05736831 7.37746813 40.48974265 7.37347412 42.92211914 C7.3582408 49.30744182 7.31897823 55.69239748 7.2746582 62.07757568 C7.23365616 68.59984371 7.21545254 75.12217134 7.1953125 81.64453125 C7.15248223 94.42984828 7.08425835 107.21489355 7 120 C2.71 120 -1.58 120 -6 120 C-6.13936645 106.12592755 -6.24580743 92.25202319 -6.31087303 78.37739182 C-6.34211029 71.93395919 -6.38444542 65.49100747 -6.45263672 59.04785156 C-6.51809847 52.82324789 -6.55376318 46.59910515 -6.56926346 40.37418365 C-6.5803016 38.00602214 -6.60185628 35.63788424 -6.63438034 33.26992035 C-6.94863299 9.42997107 -6.94863299 9.42997107 0 0 Z " fill="#6C7EF6" transform="translate(293,182)"/>
<path d="M0 0 C10.56 0 21.12 0 32 0 C37.625 15.75 37.625 15.75 38 22 C25.61744898 32.16891061 7.69516719 43.55303881 -9 42 C-9.41574298 33.96230238 -7.86803819 26.79628724 -6 19 C-5.74863281 17.90429688 -5.49726563 16.80859375 -5.23828125 15.6796875 C-3.90093235 10.03310325 -2.32903716 5.43442005 0 0 Z " fill="#6D7FF7" transform="translate(278,333)"/>
<path d="M0 0 C0.33 0 0.66 0 1 0 C0.99097656 0.556875 0.98195313 1.11375 0.97265625 1.6875 C1.14385502 6.09400755 1.64687059 9.12727032 4.68359375 12.41796875 C5.31579834 13.1042334 5.94800293 13.79049805 6.59936523 14.49755859 C7.39157471 15.32336426 8.18378418 16.14916992 9 17 C9.487034 17.5085553 9.97406799 18.0171106 10.4758606 18.54107666 C13.98595224 22.19478625 17.53523682 25.80767696 21.10644531 29.40161133 C22.37329859 30.68006164 23.63565202 31.96298608 24.89355469 33.25024414 C26.73176768 35.13118962 28.58293775 36.99846994 30.4375 38.86328125 C30.99187744 39.43516678 31.54625488 40.00705231 32.11743164 40.5962677 C35.81101162 44.26974228 39.09330449 46.2270608 44 48 C42.55973828 49.71742548 41.10811799 51.42237256 39.63671875 53.11328125 C38.27669453 54.68104186 36.94682273 56.2748988 35.625 57.875 C32.6753673 60.2627979 30.82077464 60.79893933 27.16015625 61.34765625 C21.04593827 60.36363202 16.12995549 54.4645909 11.921875 50.29296875 C10.94290253 49.32753899 10.94290253 49.32753899 9.94415283 48.34260559 C8.57335489 46.98624888 7.20529416 45.62712081 5.83984375 44.26538086 C3.75451838 42.19199252 1.6512515 40.13801106 -0.453125 38.08398438 C-1.78760454 36.75896589 -3.12097634 35.43283064 -4.453125 34.10546875 C-5.08019348 33.49793259 -5.70726196 32.89039642 -6.35333252 32.26445007 C-10.22363222 28.35367126 -12.05735748 25.46004046 -13 20 C-11.79765425 14.34981576 -7.30607269 11.25665211 -3.21484375 7.5 C-0.88403265 4.86910211 -0.30163865 3.44729886 0 0 Z " fill="#A9B0F1" transform="translate(115,375)"/>
<path d="M0 0 C2.4375 0.8125 2.4375 0.8125 4.4375 2.8125 C4.69197559 4.78374386 4.69197559 4.78374386 4.69819641 7.24681091 C4.70528122 8.17919586 4.71236603 9.11158081 4.71966553 10.07221985 C4.71718811 11.09824814 4.71471069 12.12427643 4.7121582 13.18139648 C4.71726913 14.25951599 4.72238007 15.3376355 4.72764587 16.44842529 C4.74159272 20.02687061 4.74058127 23.60512442 4.73828125 27.18359375 C4.74216537 29.66219658 4.74649945 32.14079874 4.75126648 34.61940002 C4.75873966 39.82058874 4.75842945 45.02170959 4.75317383 50.22290039 C4.74780093 55.57258312 4.75484562 60.92207667 4.77368164 66.27172852 C4.79609527 72.71904037 4.80394074 79.16619389 4.80000877 85.61354256 C4.80052348 88.07559826 4.80578909 90.53765759 4.81582069 92.99969292 C4.82811001 96.43805001 4.82143829 99.87586111 4.80981445 103.31420898 C4.81745819 104.33821304 4.82510193 105.3622171 4.83297729 106.41725159 C4.82596298 107.35245636 4.81894867 108.28766113 4.8117218 109.25120544 C4.81188954 110.0643946 4.81205729 110.87758375 4.81223011 111.715415 C4.34449447 114.3329826 3.56204486 115.25073067 1.4375 116.8125 C-1.90442692 116.56796876 -3.16793557 116.20706443 -5.5625 113.8125 C-5.81697559 111.84125614 -5.81697559 111.84125614 -5.82319641 109.37818909 C-5.83028122 108.44580414 -5.83736603 107.51341919 -5.84466553 106.55278015 C-5.8409494 105.01373772 -5.8409494 105.01373772 -5.8371582 103.44360352 C-5.84226913 102.36548401 -5.84738007 101.2873645 -5.85264587 100.17657471 C-5.86659272 96.59812939 -5.86558127 93.01987558 -5.86328125 89.44140625 C-5.86716537 86.96280342 -5.87149945 84.48420126 -5.87626648 82.00559998 C-5.88373966 76.80441126 -5.88342945 71.60329041 -5.87817383 66.40209961 C-5.87280093 61.05241688 -5.87984562 55.70292333 -5.89868164 50.35327148 C-5.92109527 43.90595963 -5.92894074 37.45880611 -5.92500877 31.01145744 C-5.92552348 28.54940174 -5.93078909 26.08734241 -5.94082069 23.62530708 C-5.95311001 20.18694999 -5.94643829 16.74913889 -5.93481445 13.31079102 C-5.94245819 12.28678696 -5.95010193 11.2627829 -5.95797729 10.20774841 C-5.95096298 9.27254364 -5.94394867 8.33733887 -5.9367218 7.37379456 C-5.93688954 6.5606054 -5.93705729 5.74741625 -5.93723011 4.909585 C-5.28294816 1.24805678 -3.7042696 -0.27104412 0 0 Z " fill="#2F2EB6" transform="translate(209.5625,221.1875)"/>
<path d="M0 0 C4.70093367 1.4699514 9.14502002 3.34717961 13.625 5.375 C20.29621276 8.35178069 27.02022327 10.83060993 34 13 C34.01401855 14.0355603 34.01401855 14.0355603 34.02832031 15.09204102 C34.08232667 18.2495597 34.16591469 21.40564488 34.25 24.5625 C34.26417969 25.64853516 34.27835938 26.73457031 34.29296875 27.85351562 C34.49248513 34.41760447 34.97828361 38.72323074 39 44 C41.58860393 46.3909907 41.58860393 46.3909907 44 48 C40.54199242 48.50227048 37.08354301 49.00143081 33.625 49.5 C32.64015625 49.64308594 31.6553125 49.78617187 30.640625 49.93359375 C29.22910156 50.13662109 29.22910156 50.13662109 27.7890625 50.34375 C26.91975098 50.46943359 26.05043945 50.59511719 25.15478516 50.72460938 C23 51 23 51 21 51 C21 43.08 21 35.16 21 27 C17.7 26.34 14.4 25.68 11 25 C8.45205656 24.13890118 5.92698901 23.20531698 3.4375 22.1875 C2.80126709 21.92759277 2.16503418 21.66768555 1.50952148 21.39990234 C-3.54342406 19.29253097 -8.33379795 16.85789068 -13 14 C-8.88380164 9.08064098 -4.59589638 4.47352044 0 0 Z " fill="#A9B0F0" transform="translate(185,405)"/>
<path d="M0 0 C0.33 0 0.66 0 1 0 C1 31.68 1 63.36 1 96 C-7.98203564 87.01796436 -12.69287213 68.61271779 -13 56 C-13.05027344 54.8346875 -13.10054687 53.669375 -13.15234375 52.46875 C-13.45100812 42.64317778 -12.22377957 33.55708057 -10 24 C-9.79503906 23.09765625 -9.59007812 22.1953125 -9.37890625 21.265625 C-7.38853871 13.69975586 -3.62278882 6.88826149 0 0 Z " fill="#99A1EB" transform="translate(176,235)"/>
<path d="M0 0 C1.39798828 0.18175781 1.39798828 0.18175781 2.82421875 0.3671875 C3.79617187 0.49222656 4.768125 0.61726563 5.76953125 0.74609375 C8.81462535 1.29698684 11.64248235 2.07898356 14.51171875 3.2421875 C14.84171875 2.5821875 15.17171875 1.9221875 15.51171875 1.2421875 C15.79370117 1.81138916 16.07568359 2.38059082 16.36621094 2.96704102 C17.66254266 5.58067297 18.96210626 8.19268543 20.26171875 10.8046875 C20.70515625 11.69994141 21.14859375 12.59519531 21.60546875 13.51757812 C22.26289063 14.83725586 22.26289063 14.83725586 22.93359375 16.18359375 C23.58038086 17.48321045 23.58038086 17.48321045 24.24023438 18.80908203 C25.37215753 20.97512393 26.6007609 23.01596449 27.90234375 25.08203125 C29.51171875 28.2421875 29.51171875 28.2421875 29.5234375 30.98046875 C28.24942288 33.82855548 26.95833093 34.78391892 24.32421875 36.4296875 C23.18919922 37.16251953 23.18919922 37.16251953 22.03125 37.91015625 C19.26291218 39.3737271 16.50233099 40.32899042 13.51171875 41.2421875 C8.74937084 32.87711776 4.04859793 24.48206441 -0.48828125 15.9921875 C-0.87363037 15.27812744 -1.25897949 14.56406738 -1.65600586 13.82836914 C-4.9093559 7.69815644 -4.9093559 7.69815644 -5.48828125 4.2421875 C-4.0349522 1.27390414 -3.34640679 0.32570992 0 0 Z " fill="#A7AFF2" transform="translate(200.48828125,73.7578125)"/>
<path d="M0 0 C1.87890625 1.7421875 1.87890625 1.7421875 3.5625 3.875 C5.36160178 6.12699346 6.88772884 7.9172322 9.21484375 9.6328125 C9.80394531 10.08398438 10.39304687 10.53515625 11 11 C11 11.66 11 12.32 11 13 C-29.31358968 30 -29.31358968 30 -36 30 C-36 24.06 -36 18.12 -36 12 C-34.76765625 11.56429688 -33.5353125 11.12859375 -32.265625 10.6796875 C-23.65720939 7.59368458 -15.40469894 4.51697082 -7.4453125 -0.03125 C-4.41631767 -1.23123517 -3.03856022 -1.13637212 0 0 Z " fill="#A4ABEC" transform="translate(328,407)"/>
<path d="M0 0 C0.33 0 0.66 0 1 0 C1.03867188 0.87011719 1.03867188 0.87011719 1.078125 1.7578125 C1.13484375 2.53898438 1.1915625 3.32015625 1.25 4.125 C1.29640625 4.89070312 1.3428125 5.65640625 1.390625 6.4453125 C2.93571221 12.92279349 8.13493615 17.39179512 12.75 21.875 C13.35199219 22.46796875 13.95398438 23.0609375 14.57421875 23.671875 C16.04491945 25.11923124 17.5218267 26.5602763 19 28 C18.75354736 28.53254395 18.50709473 29.06508789 18.25317383 29.61376953 C13.34262879 40.26455262 8.67251621 50.85326737 5 62 C3.35 62 1.7 62 0 62 C0.71258332 57.30192158 2.54574121 54.15775503 5.0390625 50.18359375 C6.22146482 47.49675271 6.01059954 46.71437075 5 44 C3.4327449 42.03699638 3.4327449 42.03699638 1.4375 40.1796875 C0.72335938 39.47972656 0.00921875 38.77976563 -0.7265625 38.05859375 C-1.47679688 37.33800781 -2.22703125 36.61742187 -3 35.875 C-4.48123899 34.43702744 -5.96050745 32.99702138 -7.4375 31.5546875 C-8.09621094 30.92030762 -8.75492187 30.28592773 -9.43359375 29.63232422 C-11.64036505 27.33268692 -11.98798376 26.07510148 -12.5 22.875 C-11.68529912 16.56106817 -7.28953963 12.98828441 -2.625 8.9375 C-0.29647567 6.16118253 -0.27197894 3.53572619 0 0 Z " fill="#A7AFF2" transform="translate(116,185)"/>
<path d="M0 0 C1.68869029 0.95863024 3.31790572 2.0205309 4.93359375 3.09765625 C4.93359375 3.75765625 4.93359375 4.41765625 4.93359375 5.09765625 C5.59359375 5.09765625 6.25359375 5.09765625 6.93359375 5.09765625 C9.35822643 9.9469216 9.9695436 14.85867382 8.31640625 20.02734375 C6.25686213 24.27401437 3.54414052 26.64848555 -0.7890625 28.48828125 C-5.10587099 29.64337923 -8.8538913 29.64315687 -13.06640625 28.09765625 C-17.88545176 24.16908654 -20.70792488 20.1447479 -21.44140625 13.91015625 C-20.95380718 8.95289901 -19.27847664 5.86060942 -16.06640625 2.09765625 C-11.19884003 -1.36372417 -5.55151621 -2.42419706 0 0 Z " fill="#6F81F8" transform="translate(438.06640625,337.90234375)"/>
<path d="M0 0 C2.5 0.125 2.5 0.125 3.5 1.125 C3.65573962 2.7161053 3.7524632 4.31305824 3.82421875 5.91015625 C4.43166639 16.66718615 5.0625222 26.42460035 9.64331055 36.30102539 C11.61492184 40.62763335 11.61492184 40.62763335 11.0234375 43.1875 C8.84295262 45.96062949 6.40589057 48.42761598 3.875 50.875 C3.359375 51.38160156 2.84375 51.88820312 2.3125 52.41015625 C1.04616661 53.65303902 -0.2263144 54.88965276 -1.5 56.125 C-6.93320822 51.71633962 -7.92072836 42.97308556 -9.25 36.4375 C-9.81051612 29.01066136 -9.50650553 22.20420696 -8.1875 14.875 C-8.06987305 14.20154541 -7.95224609 13.52809082 -7.83105469 12.83422852 C-5.40179108 0.27008955 -5.40179108 0.27008955 0 0 Z " fill="#A8B0F2" transform="translate(134.5,109.875)"/>
<path d="M0 0 C5.34740414 1.95385921 8.45618143 4.91236287 11 10 C11.37381854 15.60727817 11.18490827 19.16772538 8 24 C3.57466189 28.09343776 0.14035745 29.36336397 -5.9375 29.28515625 C-10.2295991 28.69174103 -13.04427497 26.08754917 -15.8125 22.9375 C-18.30909337 18.86411082 -18.62713547 14.65493512 -18 10 C-14.17920383 2.35840766 -8.43449648 -1.38325742 0 0 Z " fill="#6F81F8" transform="translate(83,334)"/>
<path d="M0 0 C4.47663127 2.15837579 6.98940477 4.44970553 9 9 C10.26426335 14.25155543 10.24931931 18.05149752 8 23 C4.96801019 26.51153922 1.84807085 28.57620436 -2.69140625 29.6171875 C-8.0113039 29.98713866 -11.39351714 29.27222923 -15.5625 25.875 C-18.57298554 22.78415243 -20.47314827 20.39043105 -21 16 C-20.47874489 10.35641102 -19.1589884 6.03666521 -15 2 C-10.3040292 -0.88904291 -5.3415301 -0.62704919 0 0 Z M-8 11 C-8.66 12.32 -9.32 13.64 -10 15 C-9.01 16.32 -8.02 17.64 -7 19 C-5.05000871 18.80528889 -5.05000871 18.80528889 -3 18 C-1.71563266 16.0162233 -1.71563266 16.0162233 -1 14 C-1.66 13.01 -2.32 12.02 -3 11 C-5.58380177 10.74969023 -5.58380177 10.74969023 -8 11 Z " fill="#6D7FF8" transform="translate(304,72)"/>
<path d="M0 0 C2.9375 2.5 2.9375 2.5 5 5 C4.8131665 5.60368408 4.62633301 6.20736816 4.43383789 6.8293457 C2.57779308 12.90819994 0.91565086 19.0061946 -0.5625 25.1875 C-0.77865967 26.09008545 -0.99481934 26.9926709 -1.2175293 27.92260742 C-2.99881697 35.57421706 -4.19582319 43.18628202 -5 51 C-8.3 51 -11.6 51 -15 51 C-14.30952147 40.81544174 -11.29573907 31.23583901 -7 22 C-7.49371094 21.59007812 -7.98742187 21.18015625 -8.49609375 20.7578125 C-9.13675781 20.21898437 -9.77742187 19.68015625 -10.4375 19.125 C-11.07558594 18.59132813 -11.71367187 18.05765625 -12.37109375 17.5078125 C-14.79918365 15.26022809 -14.98867504 14.09814963 -15.375 10.75 C-14.87855761 5.78557614 -13.52492587 4.44295085 -10 1 C-6.36217368 -0.21260877 -3.82264001 -0.39544552 0 0 Z " fill="#989FE8" transform="translate(263,325)"/>
<path d="M0 0 C0.87648193 -0.00287018 1.75296387 -0.00574036 2.65600586 -0.00869751 C4.50863288 -0.01073848 6.36128142 -0.00520628 8.21386719 0.00732422 C11.05192179 0.02337766 13.88855227 0.00747695 16.7265625 -0.01171875 C18.52604481 -0.00973632 20.32552624 -0.00589266 22.125 0 C22.97505615 -0.00607269 23.8251123 -0.01214539 24.70092773 -0.0184021 C30.62637901 0.05244438 30.62637901 0.05244438 32.78686523 1.76644897 C34.0625 3.3984375 34.0625 3.3984375 34.4375 5.8984375 C33.99106995 8.87463785 33.38204419 9.55824552 31.0625 11.3984375 C28.01387475 11.69691743 25.17389905 11.81865595 22.125 11.796875 C21.24851807 11.79974518 20.37203613 11.80261536 19.46899414 11.80557251 C17.61636712 11.80761348 15.76371858 11.80208128 13.91113281 11.78955078 C11.07307821 11.77349734 8.23644773 11.78939805 5.3984375 11.80859375 C3.59895519 11.80661132 1.79947376 11.80276766 0 11.796875 C-0.85005615 11.80294769 -1.7001123 11.80902039 -2.57592773 11.8152771 C-8.50137901 11.74443062 -8.50137901 11.74443062 -10.66186523 10.03042603 C-11.9375 8.3984375 -11.9375 8.3984375 -12.3125 5.8984375 C-11.30315469 -0.83053123 -5.58520336 -0.03989998 0 0 Z " fill="#FCFCFE" transform="translate(282.9375,311.6015625)"/>
<path d="M0 0 C1.15822266 -0.01740234 1.15822266 -0.01740234 2.33984375 -0.03515625 C8.00557472 -0.00569838 8.00557472 -0.00569838 10.22583008 1.70385742 C12.24575766 4.35310139 11.78421457 6.80644266 11.6875 10.0625 C11.66042969 11.24199219 11.63335937 12.42148437 11.60546875 13.63671875 C11.57066406 14.54035156 11.53585937 15.44398438 11.5 16.375 C8.98287811 17.67435464 6.46170913 18.96454372 3.9375 20.25 C3.23302734 20.61480469 2.52855469 20.97960937 1.80273438 21.35546875 C-2.57465515 23.57442197 -6.73641861 25.18566956 -11.5 26.375 C-11.586985 22.60431168 -11.64038579 18.83388068 -11.6875 15.0625 C-11.71263672 13.99064453 -11.73777344 12.91878906 -11.76367188 11.81445312 C-11.77333984 10.78642578 -11.78300781 9.75839844 -11.79296875 8.69921875 C-11.8086792 7.75135498 -11.82438965 6.80349121 -11.84057617 5.8269043 C-11.5 3.375 -11.5 3.375 -10.22583008 1.56713867 C-7.18014968 -0.53670309 -3.56819429 -0.05361227 0 0 Z " fill="#FBFCFE" transform="translate(293.5,346.625)"/>
<path d="M0 0 C2.375 0.9375 2.375 0.9375 3.6875 2.75 C4.375 4.9375 4.375 4.9375 4.375 8.9375 C5.798125 8.8446875 5.798125 8.8446875 7.25 8.75 C8.28125 8.811875 9.3125 8.87375 10.375 8.9375 C12.375 11.9375 12.375 11.9375 12.25 15 C11.375 17.9375 11.375 17.9375 9.5 19.3125 C7.375 19.9375 7.375 19.9375 4.375 19.9375 C4.271875 20.88625 4.16875 21.835 4.0625 22.8125 C3.375 25.9375 3.375 25.9375 0.375 27.9375 C-2.8125 27.5625 -2.8125 27.5625 -5.625 26.9375 C-5.955 24.6275 -6.285 22.3175 -6.625 19.9375 C-8.935 19.6075 -11.245 19.2775 -13.625 18.9375 C-14.8125 16.1875 -14.8125 16.1875 -15.625 12.9375 C-14.625 10.5625 -14.625 10.5625 -12.625 8.9375 C-9.4375 8.6875 -9.4375 8.6875 -6.625 8.9375 C-6.74875 7.5453125 -6.74875 7.5453125 -6.875 6.125 C-6.625 2.9375 -6.625 2.9375 -4.9375 1 C-2.625 -0.0625 -2.625 -0.0625 0 0 Z " fill="#6D80F8" transform="translate(416.625,377.0625)"/>
<path d="M0 0 C2 2 2 2 2.125 5.125 C2.08375 6.07375 2.0425 7.0225 2 8 C3.7015625 8.2165625 3.7015625 8.2165625 5.4375 8.4375 C9 9 9 9 10 10 C10.1875 12.9375 10.1875 12.9375 10 16 C8 18 8 18 4.875 18.125 C3.451875 18.063125 3.451875 18.063125 2 18 C2.04125 18.94875 2.0825 19.8975 2.125 20.875 C2 24 2 24 0 26 C-3 26.3125 -3 26.3125 -6 26 C-8.1519437 22.77208445 -8.20086443 21.71599191 -8 18 C-8.94875 18.061875 -9.8975 18.12375 -10.875 18.1875 C-11.90625 18.125625 -12.9375 18.06375 -14 18 C-16 15 -16 15 -15.625 11.8125 C-15.41875 10.884375 -15.2125 9.95625 -15 9 C-11.535 8.505 -11.535 8.505 -8 8 C-7.87625 6.865625 -7.7525 5.73125 -7.625 4.5625 C-7.41875 3.386875 -7.2125 2.21125 -7 1 C-4.48718205 -0.25640898 -2.78302919 -0.20872719 0 0 Z " fill="#6F81F8" transform="translate(331,104)"/>
<path d="M0 0 C1.92532764 1.57488423 3.76558114 3.14018078 5.53125 4.89453125 C6.45164062 5.78978516 6.45164062 5.78978516 7.390625 6.703125 C8.78125 8.45703125 8.78125 8.45703125 8.78125 11.45703125 C4.99133507 12.79538111 1.19904164 14.12685788 -2.59375 15.45703125 C-3.67398437 15.83859375 -4.75421875 16.22015625 -5.8671875 16.61328125 C-6.8984375 16.97421875 -7.9296875 17.33515625 -8.9921875 17.70703125 C-9.94528809 18.0421875 -10.89838867 18.37734375 -11.88037109 18.72265625 C-14.21875 19.45703125 -14.21875 19.45703125 -16.21875 19.45703125 C-16.21875 15.49703125 -16.21875 11.53703125 -16.21875 7.45703125 C-13.97921944 6.06181569 -11.7298839 4.69140341 -9.46875 3.33203125 C-8.83453125 2.93371094 -8.2003125 2.53539062 -7.546875 2.125 C-2.80983432 -0.68761791 -2.80983432 -0.68761791 0 0 Z " fill="#C3CCFA" transform="translate(309.21875,417.54296875)"/>
<path d="M0 0 C3.96 0 7.92 0 12 0 C12.32470459 4.13998349 12.4304413 6.33999001 10.125 9.875 C7.77347149 12.22652851 6.91687791 12.96242304 3.6171875 13.09765625 C2.71226562 13.08605469 1.80734375 13.07445312 0.875 13.0625 C-0.73375 13.041875 -2.3425 13.02125 -4 13 C-2.68 8.71 -1.36 4.42 0 0 Z " fill="#A5ACED" transform="translate(390,320)"/>
<path d="M0 0 C2.5 0.25 2.5 0.25 4.5 2.25 C4.75 4.75 4.75 4.75 4.5 7.25 C2.5 9.25 2.5 9.25 0 9.5 C-2.5 9.25 -2.5 9.25 -4.5 7.25 C-4.75 4.75 -4.75 4.75 -4.5 2.25 C-2.5 0.25 -2.5 0.25 0 0 Z " fill="#B3BDFA" transform="translate(79.5,343.75)"/>
<path d="M0 0 C2.625 0.375 2.625 0.375 5 1 C5.75 2.75 5.75 2.75 6 5 C4.0625 7.25 4.0625 7.25 2 9 C0.68 8.34 -0.64 7.68 -2 7 C-2.125 4.625 -2.125 4.625 -2 2 C-1.34 1.34 -0.68 0.68 0 0 Z " fill="#C5CEFB" transform="translate(430,347)"/>
</svg>
