<?xml version="1.0" encoding="UTF-8"?>
<svg version="1.1" xmlns="http://www.w3.org/2000/svg" width="1500" height="1000">
<path d="M0 0 C10.96725689 8.88172799 10.96725689 8.88172799 14.1796875 12.56884766 C14.1796875 13.22884766 14.1796875 13.88884766 14.1796875 14.56884766 C14.8396875 14.56884766 15.4996875 14.56884766 16.1796875 14.56884766 C31.67861299 33.57160355 41.06626597 58.86192583 39.1796875 83.56884766 C38.60310031 88.58416206 37.92535559 93.57553457 37.1796875 98.56884766 C42.32503697 97.91122574 47.15988218 96.97746114 51.1796875 93.56884766 C54.66297343 87.88068278 56.39719006 81.27582319 58.09985352 74.87133789 C59.64652092 71.57343594 60.99260632 70.38575786 64.1796875 68.56884766 C67.64115663 67.99037352 71.05160821 68.00819566 74.5546875 68.03759766 C75.55677246 68.03377075 76.55885742 68.02994385 77.59130859 68.02600098 C79.70606493 68.02328384 81.82085499 68.03063109 83.93554688 68.04736328 C87.16873244 68.06877511 90.39969588 68.04755422 93.6328125 68.02197266 C95.69010906 68.02461597 97.74740424 68.02974101 99.8046875 68.03759766 C101.25174072 68.02545227 101.25174072 68.02545227 102.72802734 68.01306152 C106.9360852 68.07172543 109.52149364 68.1940238 113.22998047 70.3059082 C115.30736617 72.71703869 116.03991816 74.23223726 116.75 77.30712891 C119.15262074 87.29576394 119.15262074 87.29576394 125.24023438 95.15234375 C129.93040386 97.52396549 134.89672562 98.77958512 139.9921875 99.97900391 C143.7113843 100.98185876 146.8783035 102.8743036 150.171875 104.81884766 C154.09242843 106.28333454 157.30612767 104.56887569 160.921875 102.93994141 C162.99615382 101.97815821 165.06224343 101.00269824 167.12109375 100.00830078 C171.61520543 97.94100941 175.16496154 96.63209236 180.1796875 97.56884766 C183.21289992 99.52889634 185.63914094 102.0168768 188.1796875 104.56884766 C189.08944336 105.44976074 189.99919922 106.33067383 190.93652344 107.23828125 C193.48002523 109.70479494 195.99491878 112.19837882 198.5 114.70385742 C200.06753957 116.26918156 201.64295711 117.82629057 203.21875 119.38330078 C204.22444605 120.38606708 205.22967185 121.38930529 206.234375 122.39306641 C207.13655762 123.29114014 208.03874023 124.18921387 208.96826172 125.11450195 C211.68847677 128.13352623 212.99274595 130.24483898 213.55859375 134.25244141 C212.93906894 139.67488017 210.33027422 144.17509769 207.93554688 149.02392578 C205.77899657 153.45011156 205.77899657 153.45011156 205.26171875 158.25634766 C206.85120163 162.26049176 208.72365832 166.0876432 210.625 169.95166016 C212.1796875 173.56884766 212.1796875 173.56884766 212.984375 177.24853516 C213.91297877 181.36092328 214.75652745 184.09251204 217.1796875 187.56884766 C222.57599425 190.94814941 228.76389374 192.77166778 234.85546875 194.48901367 C238.25327282 196.0676363 239.93300532 197.53204565 242.1796875 200.56884766 C242.91071167 204.02921345 242.88074887 207.41728497 242.84375 210.94384766 C242.85092545 212.4469751 242.85092545 212.4469751 242.85824585 213.98046875 C242.86164228 216.09523085 242.85245791 218.21004563 242.83154297 220.32470703 C242.80477463 223.55832187 242.83130043 226.78846555 242.86328125 230.02197266 C242.85997711 232.07927197 242.85357078 234.13656913 242.84375 236.19384766 C242.85387115 237.1585498 242.86399231 238.12325195 242.87442017 239.1171875 C242.79540458 243.65152079 242.68911241 245.88026669 239.93115234 249.6081543 C237.37434534 251.43013451 235.48724577 252.47057012 232.4921875 253.31494141 C222.0909058 256.06503243 222.0909058 256.06503243 214.7578125 263.19775391 C213.42923839 266.56390081 212.68313789 269.98428086 212.1796875 273.56884766 C213.19804687 273.41287109 214.21640625 273.25689453 215.265625 273.09619141 C241.96202018 269.29973942 268.06643016 274.01532683 290.08984375 290.13134766 C299.95199718 297.91135239 307.96436101 306.27601632 315.1796875 316.56884766 C315.75460937 317.38869141 316.32953125 318.20853516 316.921875 319.05322266 C329.94937395 339.16822103 333.50917034 365.72772973 328.8671875 389.00634766 C327.67831098 394.43492137 326.24307499 400.36315758 322.3671875 404.50634766 C319.19978293 406.0448013 317.6841231 406.24277758 314.1796875 405.56884766 C307.23311583 400.72282022 301.61711174 393.86351859 295.85287666 387.70589638 C292.36075058 383.99518946 288.81758037 380.33303563 285.28126621 376.66450214 C282.19067786 373.45280803 279.12221039 370.2245098 276.09399414 366.95385742 C273.14182212 363.76743814 270.14017883 360.63601235 267.09892082 357.5345974 C265.95765547 356.35228636 264.83507196 355.15161878 263.7331562 353.93255043 C260.1783146 350.01363838 256.98835398 346.87131677 252.1796875 344.56884766 C246.20819231 344.31700236 240.69223212 346.52257612 235.1796875 348.56884766 C233.50163705 349.01717698 231.81781012 349.4455686 230.125 349.83447266 C228.18302115 350.33485984 226.24108982 350.83545992 224.30078125 351.34228516 C221.49871108 352.05843291 219.08718555 352.56884766 216.1796875 352.56884766 C216.07301758 353.14715332 215.96634766 353.72545898 215.85644531 354.32128906 C214.93222677 359.14913992 213.86582867 363.90398067 212.6015625 368.65478516 C212.32828125 369.68732422 212.055 370.71986328 211.7734375 371.78369141 C211.20405166 373.91625227 210.6257083 376.04643888 210.0390625 378.17431641 C209.7709375 379.19912109 209.5028125 380.22392578 209.2265625 381.27978516 C208.97745117 382.20065918 208.72833984 383.1215332 208.47167969 384.0703125 C208.11060043 387.16001576 208.54847656 387.93468054 210.1796875 390.56884766 C211.98641731 392.54898957 213.80686993 394.43854536 215.71508789 396.31542969 C216.27948074 396.8785083 216.8438736 397.44158691 217.42536926 398.02172852 C219.28813686 399.87801565 221.15777329 401.72722698 223.02734375 403.57666016 C224.32297137 404.86601663 225.61808469 406.15589011 226.91270447 407.44625854 C230.31935631 410.83961397 233.7315319 414.22735566 237.14532471 417.61352539 C242.61447699 423.03953577 248.07689905 428.4723013 253.53613091 433.90829086 C255.44661871 435.80853285 257.36047045 437.70533864 259.27467346 439.60183716 C260.44112357 440.76146163 261.60746557 441.92119485 262.77368164 443.08105469 C263.30928711 443.60992279 263.84489258 444.13879089 264.39672852 444.6836853 C269.04010384 449.31259468 269.04010384 449.31259468 269.4921875 453.38134766 C269.09420903 457.44072808 268.05027094 458.69826421 265.1796875 461.56884766 C262.63233522 462.5463869 260.43247188 463.23949362 257.8046875 463.81884766 C256.83402344 464.05861328 256.83402344 464.05861328 255.84375 464.30322266 C230.65324614 470.3976994 205.71983648 465.94608752 183.24609375 453.45166016 C178.52596817 450.55344292 174.36048034 447.18751709 170.1796875 443.56884766 C169.44363281 442.97716797 168.70757812 442.38548828 167.94921875 441.77587891 C148.62900297 425.73839006 137.80052544 401.80638095 135.45703125 377.10791016 C134.72017369 367.70519258 135.8073893 358.86861849 137.1796875 349.56884766 C135.22065005 350.0451274 133.26247653 350.52496188 131.3046875 351.00634766 C129.66886719 351.40660156 129.66886719 351.40660156 128 351.81494141 C125.25484029 352.44749546 125.25484029 352.44749546 123.1796875 353.56884766 C122.23052146 355.61971578 122.23052146 355.61971578 121.41015625 358.11962891 C121.07822266 359.04582031 120.74628906 359.97201172 120.40429688 360.92626953 C119.71783341 362.88223795 119.03803938 364.84056099 118.36523438 366.80126953 C118.02943359 367.73132813 117.69363281 368.66138672 117.34765625 369.61962891 C117.05141357 370.47210205 116.7551709 371.3245752 116.44995117 372.20288086 C114.72214015 375.42106587 113.37784248 376.73899819 110.1796875 378.56884766 C106.71815846 379.14689881 103.30775469 379.12949955 99.8046875 379.10009766 C98.80260254 379.10392456 97.80051758 379.10775146 96.76806641 379.11169434 C94.65331007 379.11441147 92.53852001 379.10706423 90.42382812 379.09033203 C87.19064256 379.06892021 83.95967912 379.09014109 80.7265625 379.11572266 C78.66926594 379.11307935 76.61197076 379.1079543 74.5546875 379.10009766 C73.58998535 379.10819458 72.6252832 379.1162915 71.63134766 379.12463379 C67.4232898 379.06596988 64.83788136 378.94367151 61.12939453 376.83178711 C59.05200883 374.42065663 58.31945684 372.90545806 57.609375 369.83056641 C55.20675426 359.84193137 55.20675426 359.84193137 49.11914062 351.98535156 C44.42897114 349.61372982 39.46264938 348.35811019 34.3671875 347.15869141 C30.6479907 346.15583656 27.4810715 344.26339171 24.1875 342.31884766 C20.26694657 340.85436077 17.05324733 342.56881962 13.4375 344.19775391 C11.36322118 345.15953711 9.29713157 346.13499707 7.23828125 347.12939453 C2.74416957 349.19668591 -0.80558654 350.50560295 -5.8203125 349.56884766 C-8.85352492 347.60879898 -11.27976594 345.12081852 -13.8203125 342.56884766 C-14.73006836 341.68793457 -15.63982422 340.80702148 -16.57714844 339.89941406 C-19.12065023 337.43290037 -21.63554378 334.93931649 -24.140625 332.43383789 C-25.70816457 330.86851375 -27.28358211 329.31140475 -28.859375 327.75439453 C-29.86507105 326.75162823 -30.87029685 325.74839003 -31.875 324.74462891 C-32.77718262 323.84655518 -33.67936523 322.94848145 -34.60888672 322.02319336 C-37.32910177 319.00416908 -38.63337095 316.89285633 -39.19921875 312.88525391 C-38.57969394 307.46281514 -35.97089922 302.96259762 -33.57617188 298.11376953 C-31.41962157 293.68758375 -31.41962157 293.68758375 -30.90234375 288.88134766 C-32.49214081 284.87641208 -34.36427353 281.04910942 -36.26953125 277.18603516 C-37.8203125 273.56884766 -37.8203125 273.56884766 -38.58984375 269.88916016 C-39.50110558 265.71441386 -40.31049284 263.05852842 -42.8203125 259.56884766 C-48.56506025 256.15758594 -55.09771172 254.35549914 -61.51782227 252.64868164 C-64.81572422 251.10201423 -66.0034023 249.75592883 -67.8203125 246.56884766 C-68.39878664 243.10737852 -68.38096449 239.69692695 -68.3515625 236.19384766 C-68.35730286 234.69072021 -68.35730286 234.69072021 -68.36315918 233.15722656 C-68.36587632 231.04247023 -68.35852907 228.92768017 -68.34179688 226.81298828 C-68.32038505 223.57980272 -68.34160593 220.34883927 -68.3671875 217.11572266 C-68.36454419 215.05842609 -68.35941915 213.00113091 -68.3515625 210.94384766 C-68.35965942 209.97914551 -68.36775635 209.01444336 -68.37609863 208.02050781 C-68.31752403 203.81885605 -68.19783641 201.23107045 -66.08764648 197.52954102 C-63.68242841 195.44961139 -62.06391418 194.63419485 -59.01171875 193.82275391 C-48.11328438 191.17877121 -48.11328438 191.17877121 -40.328125 183.93994141 C-38.996187 180.5749782 -38.27924012 177.15957808 -37.8203125 173.56884766 C-38.83867188 173.72482422 -39.85703125 173.88080078 -40.90625 174.04150391 C-62.31920846 177.08989424 -83.50188125 174.9457759 -102.8203125 164.56884766 C-104.22410156 163.85148437 -104.22410156 163.85148437 -105.65625 163.11962891 C-128.76442307 150.59512041 -145.09336224 129.7265529 -152.6328125 104.72900391 C-153.03232724 103.34334129 -153.42860036 101.95673617 -153.8203125 100.56884766 C-154.0884375 99.63943359 -154.3565625 98.71001953 -154.6328125 97.75244141 C-157.96117226 83.35266271 -156.70059479 66.69522098 -152.8203125 52.56884766 C-152.47806641 51.28880859 -152.47806641 51.28880859 -152.12890625 49.98291016 C-151.11965795 46.78791839 -150.05024934 44.7796231 -147.5703125 42.50634766 C-143.83723743 41.23370843 -141.65015894 41.62776287 -137.8203125 42.56884766 C-135.50291167 44.40379915 -133.67436142 46.0794471 -131.69238281 48.22192383 C-131.12381561 48.81049667 -130.55524841 49.39906952 -129.9694519 50.00547791 C-128.7412502 51.27980584 -127.51986511 52.56073175 -126.30466461 53.84746361 C-124.37712268 55.88434025 -122.42832294 57.89845389 -120.47186279 59.907547 C-114.91490241 65.62007733 -109.39109635 71.36365212 -103.90039062 77.13989258 C-100.5355628 80.67653806 -97.1395377 84.18061286 -93.72231293 87.66662025 C-92.42930518 88.9986534 -91.148678 90.34282383 -89.88114166 91.69911766 C-83.40525661 99.20304297 -83.40525661 99.20304297 -74.72035217 102.96673584 C-71.86131358 102.47516222 -69.48408969 101.70059538 -66.8203125 100.56884766 C-65.72195068 100.31216309 -64.62358887 100.05547852 -63.49194336 99.79101562 C-62.15208374 99.42967529 -62.15208374 99.42967529 -60.78515625 99.06103516 C-59.79193359 98.79677734 -58.79871094 98.53251953 -57.77539062 98.26025391 C-56.77958984 97.99083984 -55.78378906 97.72142578 -54.7578125 97.44384766 C-52.72584087 96.89741376 -50.69331563 96.35303299 -48.66015625 95.81103516 C-47.77706787 95.57239746 -46.89397949 95.33375977 -45.98413086 95.08789062 C-43.8203125 94.56884766 -43.8203125 94.56884766 -41.8203125 94.56884766 C-41.45679687 92.88082031 -41.45679687 92.88082031 -41.0859375 91.15869141 C-40.74820436 89.60773387 -40.40959823 88.05696629 -40.0703125 86.50634766 C-39.89346924 85.69665527 -39.71662598 84.88696289 -39.53442383 84.05273438 C-38.07892969 77.49563386 -36.34545855 71.05243157 -34.45703125 64.60791016 C-33.79234121 61.4353405 -33.62789381 60.49461439 -34.8203125 57.56884766 C-36.60703944 55.53887738 -38.39209296 53.67988932 -40.33398438 51.80981445 C-40.90798477 51.24501373 -41.48198517 50.68021301 -42.07337952 50.09829712 C-43.31974113 48.87338454 -44.56943352 47.65185396 -45.82203674 46.43332481 C-47.80483149 44.50271241 -49.7767957 42.56163716 -51.74597168 40.61714172 C-57.34594629 35.09051608 -62.96231625 29.58078078 -68.59228516 24.0847168 C-72.03616903 20.72126919 -75.46522717 17.34328263 -78.88563538 13.95597267 C-80.1909365 12.66927634 -81.50190042 11.38829827 -82.81858826 10.11325645 C-84.6618714 8.32775686 -86.48579632 6.52440166 -88.30664062 4.71606445 C-88.85316788 4.19582199 -89.39969513 3.67557953 -89.96278381 3.13957214 C-93.6017454 -0.52807291 -94.67495955 -3.28695192 -94.8203125 -8.43115234 C-93.43802311 -12.23244817 -92.29511145 -13.20220021 -88.63671875 -14.96630859 C-59.70583908 -26.71318549 -23.92312799 -18.80866098 0 0 Z M-68.8203125 -1.43115234 C-64.07637475 4.36277962 -58.86648808 9.54016393 -53.48172379 14.73807907 C-50.83758451 17.29677985 -48.21328061 19.87573526 -45.5859375 22.45166016 C-42.25979539 25.7117552 -38.92797904 28.96518197 -35.57128906 32.19384766 C-32.8408429 34.8211992 -30.13315572 37.47019735 -27.43923569 40.1349678 C-26.41457336 41.14057857 -25.38192508 42.13812215 -24.3411293 43.1270256 C-15.22512469 51.80189865 -15.22512469 51.80189865 -15.04711914 57.16235352 C-15.32525635 59.36529541 -15.32525635 59.36529541 -15.8203125 61.56884766 C-15.96740662 62.31906189 -16.11450073 63.06927612 -16.26605225 63.84222412 C-16.80161669 66.25343513 -17.442952 68.61192458 -18.12109375 70.98681641 C-18.35813522 71.84769363 -18.5951767 72.70857086 -18.83940125 73.59553528 C-19.33919284 75.40123561 -19.84454607 77.20540505 -20.35522461 79.00805664 C-21.13266434 81.75582401 -21.89088767 84.50836238 -22.64648438 87.26220703 C-23.1368996 89.02488916 -23.62839913 90.78727004 -24.12109375 92.54931641 C-24.34622147 93.36506638 -24.57134918 94.18081635 -24.80329895 95.02128601 C-26.06962933 99.46105059 -27.4382843 103.57354902 -29.8203125 107.56884766 C-32.59375 108.96728516 -32.59375 108.96728516 -36.1953125 109.94384766 C-36.86506104 110.13100342 -37.53480957 110.31815918 -38.22485352 110.51098633 C-39.80202221 110.94900309 -41.38216098 111.37639831 -42.96435547 111.79589844 C-46.32698244 112.70597512 -49.66789264 113.68182864 -53.01171875 114.65869141 C-54.9473004 115.21662546 -56.88359254 115.77198868 -58.82037354 116.32574463 C-60.72398163 116.87164591 -62.62544316 117.42501472 -64.52685547 117.97851562 C-65.72584473 118.31383301 -66.92483398 118.64915039 -68.16015625 118.99462891 C-69.22613037 119.29796143 -70.29210449 119.60129395 -71.39038086 119.91381836 C-72.5222583 120.12997803 -73.65413574 120.3461377 -74.8203125 120.56884766 C-75.80041794 120.81826614 -75.80041794 120.81826614 -76.80032349 121.07272339 C-81.02058705 121.69654901 -83.17277338 121.04118004 -86.64927673 118.50532532 C-90.03034765 115.50530978 -93.13538201 112.23933204 -96.2578125 108.97509766 C-97.42877006 107.78479771 -98.60181881 106.59655167 -99.77685547 105.41027832 C-102.8543884 102.29284189 -105.90434863 99.14977745 -108.9487915 96.00006104 C-112.66497743 92.16534692 -116.41270757 88.36150445 -120.1558075 84.55309296 C-123.06416979 81.5928102 -125.96754688 78.628117 -128.85717773 75.64953613 C-129.3865242 75.10537552 -129.91587067 74.5612149 -130.46125793 74.00056458 C-131.89206553 72.52901969 -133.32038693 71.05505859 -134.74853516 69.58093262 C-136.45853425 67.45273152 -136.45853425 67.45273152 -137.8203125 67.56884766 C-141.73634393 86.65950086 -135.76016426 106.9576871 -125.3203125 122.99853516 C-112.63583143 141.53662503 -93.61712086 152.91911485 -71.6171875 157.10009766 C-58.00292573 158.78087071 -44.88187392 157.92270146 -31.8203125 153.56884766 C-32.62888778 148.5036347 -34.64829164 144.24396427 -36.76171875 139.60400391 C-37.93158114 136.24982281 -38.16693808 134.09898475 -37.8203125 130.56884766 C-36.23608398 128.18432617 -36.23608398 128.18432617 -34.00390625 125.88525391 C-33.18132324 125.02561035 -32.35874023 124.1659668 -31.51123047 123.28027344 C-30.62322754 122.38550293 -29.73522461 121.49073242 -28.8203125 120.56884766 C-27.93617676 119.65989746 -27.05204102 118.75094727 -26.14111328 117.81445312 C-23.40859779 115.02412217 -20.65020029 112.26206691 -17.8828125 109.50634766 C-16.92886972 108.54883145 -15.97509297 107.59114981 -15.02148438 106.63330078 C-14.12107422 105.73417969 -13.22066406 104.83505859 -12.29296875 103.90869141 C-11.48093994 103.09779053 -10.66891113 102.28688965 -9.83227539 101.45141602 C-7.19302492 98.98190256 -6.27284936 98.60416761 -2.6171875 98.31884766 C1.60470199 98.59683215 4.1749637 99.66504404 7.9296875 101.56884766 C12.34925512 103.91903361 12.34925512 103.91903361 17.1796875 104.56884766 C24.36188876 81.61145433 22.23439369 58.96076709 11.1796875 37.56884766 C9.07524293 34.02265621 6.75763815 30.78464177 4.1796875 27.56884766 C3.19548828 26.32167969 3.19548828 26.32167969 2.19140625 25.04931641 C-11.35458906 8.9278485 -31.15345808 -0.00943903 -51.8203125 -2.43115234 C-53.86057169 -2.51764712 -55.90322767 -2.56148416 -57.9453125 -2.55615234 C-58.93789062 -2.55873047 -59.93046875 -2.56130859 -60.953125 -2.56396484 C-63.68004413 -2.43764979 -66.16467174 -2.04399252 -68.8203125 -1.43115234 Z M82.1796875 158.56884766 C105.2796875 181.66884766 128.3796875 204.76884766 152.1796875 228.56884766 C154.50041576 226.70569686 154.50041576 226.70569686 154.26171875 223.73291016 C152.71774292 203.4598362 146.21960044 185.88795097 130.515625 172.25634766 C121.76731684 165.6005743 92.58717109 148.16136407 82.1796875 158.56884766 Z M40.01953125 175.59228516 C34.302687 181.73394798 29.32496543 188.77402844 26.1796875 196.56884766 C26.38736918 200.81081991 29.40130438 203.18922706 32.26647949 205.98948669 C32.80157371 206.52432192 33.33666793 207.05915715 33.88797712 207.61019951 C35.68587883 209.40367008 37.49426841 211.18618137 39.30273438 212.96899414 C40.5925544 214.25142097 41.88168701 215.53453949 43.17018127 216.81829834 C45.94776335 219.58299856 48.72988797 222.34301676 51.51551819 225.09960747 C55.91831637 229.45712826 60.30917117 233.82654967 64.69812012 238.19801331 C75.60148229 249.05426821 86.51989954 259.89534895 97.44268799 270.73205566 C105.9303319 279.15305963 114.41351879 287.57844533 122.88295221 296.0177694 C127.24710796 300.36539754 131.62048673 304.70346447 136.00098419 309.03462398 C138.72238831 311.7294112 141.43546561 314.43246206 144.1462841 317.13789368 C145.40659046 318.39229977 146.67035165 319.64324558 147.93776131 320.89047432 C149.66548306 322.59163247 151.38049721 324.30466324 153.09289551 326.02122498 C153.59901477 326.51364652 154.10513404 327.00606806 154.62659025 327.51341146 C157.47749182 330.40239632 158.89029638 332.48212438 159.1796875 336.56884766 C158.85009766 338.60180664 158.85009766 338.60180664 158.21875 340.56494141 C157.99445313 341.28875 157.77015625 342.01255859 157.5390625 342.75830078 C157.17554688 343.87108398 157.17554688 343.87108398 156.8046875 345.00634766 C150.00866207 366.38395513 152.74100106 387.39728137 162.1796875 407.56884766 C171.97227841 426.22140177 187.76109489 438.12226035 207.1796875 445.56884766 C218.69272313 449.15349245 231.26044878 451.27483699 243.1796875 448.56884766 C238.45244423 442.83797276 233.33073899 437.5995009 228.05685997 432.37085533 C226.53724513 430.86415308 225.02090737 429.3542182 223.50532532 427.84346008 C220.29543688 424.6449115 217.08159425 421.45035462 213.8671875 418.25634766 C210.12274023 414.5355229 206.37994281 410.81306846 202.64130592 407.0864048 C201.14707042 405.59865178 199.64985865 404.11393865 198.1525116 402.62931824 C197.25099869 401.73110855 196.34948578 400.83289886 195.4206543 399.9074707 C194.62378708 399.1158403 193.82691986 398.3242099 193.00590515 397.5085907 C190.5951478 394.9479705 190.20828051 394.02876381 189.98706055 390.47045898 C190.20286493 386.09939455 191.07904918 382.33431583 192.26171875 378.14306641 C192.47656418 377.35543411 192.69140961 376.56780182 192.9127655 375.75630188 C193.59763243 373.25395646 194.29481824 370.75523403 194.9921875 368.25634766 C195.44935467 366.59054781 195.90574183 364.92453368 196.36132812 363.25830078 C197.23090094 360.07851371 198.12460745 356.90697084 199.03369141 353.73828125 C199.74211706 351.24381189 200.32383981 348.83010815 200.82177734 346.27832031 C201.34899874 343.73277897 201.81763574 341.78086913 203.1796875 339.56884766 C206.27670501 337.66185977 209.64525299 337.25853179 213.1796875 336.56884766 C215.3394651 335.99664735 217.48539134 335.38375619 219.63302612 334.76760864 C222.86716612 333.84106494 226.11257641 332.95735029 229.35766602 332.07006836 C231.03704994 331.60917313 232.71543554 331.14462537 234.39282227 330.67651367 C236.84424128 329.99271312 239.29861351 329.32061836 241.75390625 328.65087891 C242.86665169 328.33688896 242.86665169 328.33688896 244.00187683 328.01655579 C248.48624555 326.8097373 252.53243714 325.80938627 257.1796875 326.56884766 C260.21033455 328.53440415 262.64367517 331.01091956 265.1796875 333.56884766 C266.400616 334.76246414 266.400616 334.76246414 267.64620972 335.98019409 C269.95088901 338.24790716 272.23760782 340.53187389 274.51397514 342.8279705 C276.02046849 344.34740514 277.53021984 345.86353721 279.04078674 347.37892151 C282.23577507 350.58522924 285.42675191 353.79551056 288.6171875 357.00634766 C292.34095556 360.7537287 296.06635612 364.49945749 299.79594612 368.241045 C301.28540339 369.7369965 302.77182863 371.23591709 304.25816345 372.73497009 C305.15322098 373.63333084 306.0482785 374.53169159 306.97045898 375.45727539 C307.76129379 376.25334702 308.5521286 377.04941864 309.3669281 377.86961365 C310.88717609 379.68282971 310.88717609 379.68282971 312.1796875 379.56884766 C315.86393955 362.84115486 310.75413049 343.02406593 302.4296875 328.38134766 C291.16441126 310.81907085 276.12413183 298.95106984 256.1796875 292.56884766 C255.18839844 292.24916016 254.19710937 291.92947266 253.17578125 291.60009766 C238.23416241 287.47827177 220.79626544 288.12999267 206.296875 293.67041016 C202.51555227 294.76026508 199.06167323 295.20965772 195.1796875 294.56884766 C192.7834502 292.94106814 191.18200572 291.61032345 189.2333374 289.55761719 C188.69029536 289.01858828 188.14725331 288.47955936 187.58775544 287.92419624 C185.77817555 286.11841827 183.99870692 284.28566302 182.21777344 282.45166016 C180.92436091 281.1494401 179.62914739 279.84900676 178.33227539 278.55023193 C175.54638926 275.75262158 172.77358661 272.94286649 170.01024628 270.12298584 C165.64327274 265.66693445 161.2481078 261.23942247 156.84869385 256.81542969 C149.89688429 249.81811172 142.96402962 242.80235558 136.03920007 235.77834511 C123.62912958 223.19085796 111.19652413 210.62572224 98.74302888 198.08119774 C94.3714555 193.67593716 90.01136962 189.25969686 85.66010237 184.8343811 C82.95638084 182.08817848 80.24461762 179.35002257 77.53076172 176.6138382 C76.27106215 175.34022205 75.014865 174.0631311 73.76239777 172.78240204 C72.05668808 171.03904952 70.33915323 169.3082678 68.61810303 167.58007812 C68.12160618 167.06647295 67.62510932 166.55286777 67.11356711 166.02369881 C59.03937524 158.0023756 46.74147342 169.36773829 40.01953125 175.59228516 Z M21.1796875 218.56884766 C17.5647739 225.79867486 21.51500832 238.35305747 23.89355469 245.70800781 C30.01294895 263.03497505 42.10015544 275.43490086 58.1796875 283.88134766 C68.38110035 288.70050033 78.87774101 290.86889933 90.1796875 290.56884766 C90.8396875 289.90884766 91.4996875 289.24884766 92.1796875 288.56884766 C83.07301658 279.43905871 73.96368552 270.31193336 64.8508997 261.18824768 C60.62005881 256.95217678 56.39015779 252.71517598 52.16235352 248.47607422 C48.08617629 244.38907231 44.00759745 240.30448166 39.92730522 236.22158813 C38.36703213 234.65946003 36.80764283 233.0964487 35.24913216 231.53256226 C33.07471679 229.35094202 30.89724731 227.17241629 28.71899414 224.99462891 C28.06803772 224.34007721 27.4170813 223.68552551 26.74639893 223.01113892 C24.33993263 220.00421579 24.33993263 220.00421579 21.1796875 218.56884766 Z " fill="#58A4FA" transform="translate(162.8203125,26.43115234375)"/>
<path d="M0 0 C9.57 0 19.14 0 29 0 C32.02563474 5.29486079 33.56695167 8.54301582 35.125 14.125 C36.78620331 18.84842145 37.87128482 21.73892573 42.375 24.125 C47.90741325 26.26177039 53.75490168 27.53482952 59.50390625 28.96484375 C63.96296386 30.28512338 67.27017496 32.30374094 71 35 C75.7076296 37.84419289 79.56342111 38.64439343 85 38 C87.90228213 37.08666848 90.5825655 35.83532207 93.3125 34.5 C100.67060811 31 100.67060811 31 104 31 C104 31.66 104 32.32 104 33 C104.556875 33.226875 105.11375 33.45375 105.6875 33.6875 C110.88621903 36.63812431 114.5364855 41.71624868 118.3515625 46.23046875 C120.07423737 48.21611689 120.07423737 48.21611689 123 50 C122.23960164 55.48343603 119.77517523 60.16234843 117.43945312 65.1171875 C115.02763752 70.33633488 115.02763752 70.33633488 115 76 C116.14253534 78.71083257 116.14253534 78.71083257 117.75 81.375 C118.26046875 82.26960938 118.7709375 83.16421875 119.296875 84.0859375 C120.51909189 86.17716181 121.77146804 88.25086978 123.04296875 90.3125 C125.28054591 94.23174119 126.42269631 98.28069773 127.5625 102.625 C129.48895572 111.06284238 129.48895572 111.06284238 135.015625 117.29296875 C135.75296875 117.58816406 136.4903125 117.88335937 137.25 118.1875 C138.0440625 118.50847656 138.838125 118.82945312 139.65625 119.16015625 C142.73221753 120.26237795 145.84570874 121.15076774 149 122 C150.65 122.66 152.3 123.32 154 124 C154 133.9 154 143.8 154 154 C149.71 155.65 145.42 157.3 141 159 C137.34901374 160.49358529 134.27271508 161.81818995 131 164 C130.04662504 166.40378381 129.23918349 168.71958093 128.5 171.1875 C126.92999988 176.27733911 125.1720023 181.1319367 123 186 C119.23121414 184.44200307 116.88728855 182.090634 114.0625 179.1875 C113.22847656 178.33542969 112.39445313 177.48335937 111.53515625 176.60546875 C110.28025391 175.31576172 110.28025391 175.31576172 109 174 C106.63991984 171.60372229 104.29386163 169.25693661 101.76171875 167.04296875 C96.29228462 162.15034877 96.29228462 162.15034877 95.453125 158.84765625 C95.43306034 156.15397543 95.83365873 153.63039517 96.52026367 151.02832031 C99.45436579 138.62296643 96.80136194 124.88789552 93 113 C92.73832031 112.18015625 92.47664062 111.3603125 92.20703125 110.515625 C89.00520378 101.38776325 84.14715451 91.82604825 77.125 85.0625 C76.42375 84.381875 75.7225 83.70125 75 83 C75 82.34 75 81.68 75 81 C74.42378906 80.74089844 73.84757813 80.48179687 73.25390625 80.21484375 C70.82190213 78.90400618 68.99287579 77.40402166 66.9375 75.5625 C65.93009766 74.66724609 65.93009766 74.66724609 64.90234375 73.75390625 C63 72 63 72 61.63720703 70.51147461 C59.80617261 68.82105795 58.19583274 68.02372844 55.90234375 67.0625 C55.10530029 66.72613525 54.30825684 66.38977051 53.48706055 66.04321289 C52.64570557 65.69895264 51.80435059 65.35469238 50.9375 65 C50.08003174 64.64478271 49.22256348 64.28956543 48.33911133 63.92358398 C27.88098507 55.55673242 5.85386451 53.78416304 -15.12548828 61.81347656 C-27.97216931 67.21536386 -39.24870155 75.12000733 -48 86 C-48.66 86 -49.32 86 -50 86 C-50.41185547 86.86238281 -50.41185547 86.86238281 -50.83203125 87.7421875 C-51.9908602 89.98233175 -53.30747512 92.01526334 -54.6875 94.125 C-66.85043764 114.29694818 -70.03824865 137.09231825 -65.04516602 159.99829102 C-60.2796082 178.97208925 -47.08026258 197.32348039 -30.87890625 208.0703125 C-17.67108758 215.95213188 -3.12453049 221.15643921 12.375 221.125 C13.06400391 221.12886719 13.75300781 221.13273438 14.46289062 221.13671875 C18.12653748 221.13007569 21.68525809 220.96000032 25.3203125 220.4921875 C35.67562776 219.21768716 35.67562776 219.21768716 39.60546875 221.5390625 C41.64538777 223.58280876 43.28865814 225.67831944 45 228 C46.64291064 229.69008881 48.31261669 231.35431075 50 233 C51.03917386 234.03634504 52.07687556 235.07416787 53.11328125 236.11328125 C53.63857422 236.63857422 54.16386719 237.16386719 54.70507812 237.70507812 C57.13671875 240.13671875 59.56835938 242.56835938 62 245 C61.67 245.99 61.34 246.98 61 248 C58.84765625 249.0625 58.84765625 249.0625 56.0625 250 C55.0725 250.34289062 54.0825 250.68578125 53.0625 251.0390625 C51.1198041 251.6486329 49.16149597 252.21195518 47.1875 252.7109375 C41.85759388 254.05844746 41.85759388 254.05844746 37.625 257.4375 C35.73936335 261.57139573 34.33171442 265.74788797 33.02734375 270.09765625 C31.93362495 273.18751582 31.04412097 275.42423625 29 278 C25.90551758 278.56762695 25.90551758 278.56762695 22.14453125 278.48828125 C21.48289474 278.48120651 20.82125824 278.47413177 20.13957214 278.46684265 C18.02939015 278.43888507 15.9218774 278.37615847 13.8125 278.3125 C12.38089775 278.28741824 10.94925383 278.26460483 9.51757812 278.24414062 C6.0108535 278.18905847 2.50568729 278.10278289 -1 278 C-1.63896715 275.93779297 -2.27675929 273.87522185 -2.9140625 271.8125 C-3.44700928 270.08966797 -3.44700928 270.08966797 -3.99072266 268.33203125 C-4.60662312 266.29869561 -5.20087278 264.25843061 -5.75634766 262.20776367 C-6.49019802 259.58889673 -7.19363701 258.05151226 -9 256 C-13.49738045 253.73383291 -18.17331009 252.39332552 -23 251 C-43.16933638 243.83066362 -43.16933638 243.83066362 -48 239 C-49.85772162 239.08984301 -51.71247985 239.24611861 -53.5625 239.4375 C-55.08037109 239.59025391 -55.08037109 239.59025391 -56.62890625 239.74609375 C-57.41136719 239.82988281 -58.19382812 239.91367187 -59 240 C-59 240.66 -59 241.32 -59 242 C-60.91040052 242.8680908 -62.82860737 243.71901783 -64.75 244.5625 C-65.81734375 245.03816406 -66.8846875 245.51382813 -67.984375 246.00390625 C-71.0197179 247.00651304 -72.13626822 247.27913353 -75 246 C-78.53071642 242.84093794 -81.48541567 239.25343574 -84.51171875 235.625 C-86.09644281 233.78851597 -86.09644281 233.78851597 -88.8125 231.9375 C-91.73173939 229.35188797 -91.74405125 227.85294285 -92 224 C-91.07421875 220.7109375 -91.07421875 220.7109375 -89.6875 217.375 C-89.01267578 215.71597656 -89.01267578 215.71597656 -88.32421875 214.0234375 C-87.55305465 212.26272656 -86.75013274 210.51409896 -85.87109375 208.8046875 C-84.65481752 206.28486858 -84.37564604 203.75473764 -84 201 C-84.66 201 -85.32 201 -86 201 C-87.38952507 198.21477418 -88.76389681 195.42412773 -90.125 192.625 C-90.54096436 191.77462158 -90.95692871 190.92424316 -91.38549805 190.0480957 C-93.81391493 184.9449827 -95.68610094 179.97624226 -97.16845703 174.52734375 C-99.06707409 167.3143371 -99.06707409 167.3143371 -103.68359375 161.68359375 C-106.75329037 160.12332757 -109.71316038 159.01608184 -113 158 C-114.9006919 157.24122576 -116.79701532 156.4713595 -118.6875 155.6875 C-119.49574219 155.38199219 -120.30398437 155.07648438 -121.13671875 154.76171875 C-123 154 -123 154 -124 153 C-124.08775605 150.85441173 -124.10695219 148.70595579 -124.09765625 146.55859375 C-124.09443359 145.25341797 -124.09121094 143.94824219 -124.08789062 142.60351562 C-124.07953401 141.2148431 -124.07106905 139.82617123 -124.0625 138.4375 C-124.05748666 137.04492344 -124.05292347 135.65234519 -124.04882812 134.25976562 C-124.03699434 130.8398013 -124.0205088 127.41992156 -124 124 C-122.99839844 123.60167969 -121.99679688 123.20335937 -120.96484375 122.79296875 C-119.62237704 122.25785964 -118.27993019 121.72270072 -116.9375 121.1875 C-116.28072266 120.92646484 -115.62394531 120.66542969 -114.94726562 120.39648438 C-113.62123763 119.86737961 -112.29733747 119.33291188 -110.97558594 118.79321289 C-109.66486752 118.26694941 -108.34488643 117.76316241 -107.01660156 117.28295898 C-104.23910841 116.23003658 -102.34116835 115.49054997 -100.6171875 113.01171875 C-100.37226563 112.24472656 -100.12734375 111.47773438 -99.875 110.6875 C-99.57335937 109.80578125 -99.27171875 108.9240625 -98.9609375 108.015625 C-98.64382812 107.02046875 -98.32671875 106.0253125 -98 105 C-97.17358858 102.64339454 -96.33993543 100.28931921 -95.5 97.9375 C-95.07847656 96.75027344 -94.65695313 95.56304687 -94.22265625 94.33984375 C-92.19500344 88.80104773 -90.16029282 83.64374816 -86.75 78.8125 C-84.64517819 75.42975066 -84.36040966 73.91749081 -85 70 C-85.90925856 68.31137696 -86.82762129 66.62508258 -87.83984375 64.99609375 C-89.19472223 62.66497286 -90.26545751 60.29694577 -91.3125 57.8125 C-91.65925781 56.99394531 -92.00601563 56.17539063 -92.36328125 55.33203125 C-93.1064815 52.61000333 -92.96742093 51.62723538 -92 49 C-89.31949862 45.65831084 -86.21952089 42.71012656 -83.1875 39.6875 C-82.36701172 38.83865234 -81.54652344 37.98980469 -80.70117188 37.11523438 C-79.90646484 36.31794922 -79.11175781 35.52066406 -78.29296875 34.69921875 C-77.5661792 33.96533936 -76.83938965 33.23145996 -76.09057617 32.4753418 C-74 31 -74 31 -71.95947266 31.18066406 C-70.98953369 31.58623535 -70.98953369 31.58623535 -70 32 C-68.79730469 32.46535156 -67.59460938 32.93070313 -66.35546875 33.41015625 C-64.26794942 34.23443838 -62.18380197 35.06401741 -60.10742188 35.91601562 C-55.59699401 37.67836824 -51.91879817 38.52365196 -47 38 C-44.6443278 36.95864004 -44.6443278 36.95864004 -42.5625 35.375 C-38.21181405 32.56960342 -33.89161727 30.60537982 -29.0625 28.8125 C-28.37438232 28.55339844 -27.68626465 28.29429687 -26.97729492 28.02734375 C-22.95714915 26.56321953 -19.0982152 25.61823978 -14.875 24.875 C-11.4512521 24.0023806 -10.29508825 23.3897392 -8.13671875 20.5390625 C-4.73041346 13.9631183 -2.53234775 6.96395632 0 0 Z " fill="#99C7FE" transform="translate(235,111)"/>
<path d="M0 0 C5.58600091 0.41895007 9.62501555 2.6482816 14 6 C15.16759898 8.33519796 15.15090433 9.76738695 15.19287109 12.37036133 C15.21696548 13.72735893 15.21696548 13.72735893 15.24154663 15.11177063 C15.28598861 19.25102 15.32706103 23.39010887 15.35009766 27.52954102 C15.3666593 29.71291766 15.39395188 31.89624004 15.43212891 34.0793457 C15.48688444 37.2263605 15.50876989 40.3721043 15.5234375 43.51953125 C15.54610687 44.49364456 15.56877625 45.46775787 15.59213257 46.47138977 C15.57791952 51.03008586 15.54015773 53.27088146 12.76464844 57.01733398 C10.25555469 58.8167291 8.11468688 60.10644807 5.2421875 61.203125 C4.36949219 61.5434375 3.49679687 61.88375 2.59765625 62.234375 C1.69917969 62.56953125 0.80070312 62.9046875 -0.125 63.25 C-1.03121094 63.600625 -1.93742187 63.95125 -2.87109375 64.3125 C-6.22983721 65.60623822 -9.58514872 66.86171624 -13 68 C-12.4296875 66.1640625 -12.4296875 66.1640625 -11 64 C-7.8828125 62.5859375 -7.8828125 62.5859375 -4.125 61.375 C0.60144886 59.88219553 0.60144886 59.88219553 5.1328125 57.9140625 C7.38030212 56.813827 9.54850293 56.4555435 12 56 C12.05076475 49.68289629 12.0857608 43.36584531 12.10986328 37.04858398 C12.11991265 34.90012649 12.13355433 32.75168263 12.15087891 30.60327148 C12.17517376 27.51282378 12.18649386 24.42255713 12.1953125 21.33203125 C12.20563507 20.37351761 12.21595764 19.41500397 12.22659302 18.42744446 C12.28626757 11.96270926 12.28626757 11.96270926 10 6 C7.62976776 4.54621082 7.62976776 4.54621082 4.875 3.6875 C3.50988281 3.19830078 3.50988281 3.19830078 2.1171875 2.69921875 C1.41851562 2.46847656 0.71984375 2.23773438 0 2 C0 1.34 0 0.68 0 0 Z " fill="#6CA4E2" transform="translate(390,219)"/>
<path d="M0 0 C6.18134869 5.10448822 11.79822878 10.68294942 17.4375 16.375 C18.35982422 17.30183594 19.28214844 18.22867187 20.23242188 19.18359375 C22.49058625 21.45345846 24.74636942 23.72563538 27 26 C24 26 24 26 22.37426758 24.71484375 C21.80345459 24.12832031 21.2326416 23.54179687 20.64453125 22.9375 C20.02255859 22.30585938 19.40058594 21.67421875 18.75976562 21.0234375 C18.11716797 20.35570312 17.47457031 19.68796875 16.8125 19 C16.15830078 18.33226562 15.50410156 17.66453125 14.83007812 16.9765625 C13.21313865 15.32421559 11.60359509 13.66528399 10 12 C9.01 12.33 8.02 12.66 7 13 C7 13.99 7 14.98 7 16 C5.02 16.33 3.04 16.66 1 17 C1.33 16.01 1.66 15.02 2 14 C1.34 14 0.68 14 0 14 C0 13.34 0 12.68 0 12 C-0.66 12 -1.32 12 -2 12 C-2 11.34 -2 10.68 -2 10 C-5.09342559 11.933297 -5.09342559 11.933297 -6.62890625 15.109375 C-6.75136719 15.73328125 -6.87382812 16.3571875 -7 17 C-7.86625 16.01 -8.7325 15.02 -9.625 14 C-12.12345413 11.46585366 -12.66854671 11.03682814 -16.375 10.625 C-17.24125 10.74875 -18.1075 10.8725 -19 11 C-17 9 -17 9 -13.875 8.875 C-12.92625 8.91625 -11.9775 8.9575 -11 9 C-11 9.66 -11 10.32 -11 11 C-10.34 11 -9.68 11 -9 11 C-8.67 10.01 -8.34 9.02 -8 8 C-8 8.66 -8 9.32 -8 10 C-7.01 10 -6.02 10 -5 10 C-5 9.34 -5 8.68 -5 8 C-3.35 7.34 -1.7 6.68 0 6 C0 4.02 0 2.04 0 0 Z " fill="#61A3F1" transform="translate(428,360)"/>
<path d="M0 0 C1.18126239 3.54378716 0.79078416 4.20271191 -0.6875 7.5 C-1.02136719 8.2734375 -1.35523438 9.046875 -1.69921875 9.84375 C-3.2089523 12.34637138 -4.53101484 13.4480884 -7 15 C-9.21389771 15.3742218 -9.21389771 15.3742218 -11.64501953 15.37231445 C-12.55921661 15.37854324 -13.4734137 15.38477203 -14.41531372 15.39118958 C-15.39458832 15.38197983 -16.37386292 15.37277008 -17.3828125 15.36328125 C-18.39342743 15.36377975 -19.40404236 15.36427826 -20.44528198 15.36479187 C-22.57861297 15.36245362 -24.71194683 15.35273979 -26.84521484 15.33618164 C-30.1197153 15.31253816 -33.39340435 15.31562899 -36.66796875 15.32226562 C-38.73958821 15.31669057 -40.81120423 15.30958177 -42.8828125 15.30078125 C-43.86613556 15.30169266 -44.84945862 15.30260406 -45.86257935 15.30354309 C-46.77047211 15.29401108 -47.67836487 15.28447906 -48.61376953 15.2746582 C-49.41444855 15.27005081 -50.21512756 15.26544342 -51.04006958 15.26069641 C-53 15 -53 15 -55 13 C-39.16 12.67 -23.32 12.34 -7 12 C-6.67 10.68 -6.34 9.36 -6 8 C-5.34 8 -4.68 8 -4 8 C-3.896875 7.236875 -3.79375 6.47375 -3.6875 5.6875 C-2.95635961 2.82940576 -2.23048087 1.84257115 0 0 Z " fill="#6CA8E6" transform="translate(280,390)"/>
<path d="M0 0 C1.35677101 -0.01902626 1.35677101 -0.01902626 2.74095154 -0.03843689 C4.19574669 -0.03403343 4.19574669 -0.03403343 5.67993164 -0.02954102 C7.1851815 -0.03740379 7.1851815 -0.03740379 8.72084045 -0.04542542 C10.8415535 -0.05184429 12.96230216 -0.05051037 15.08300781 -0.04199219 C18.32494646 -0.03348699 21.56512038 -0.06223868 24.80688477 -0.09399414 C26.8687332 -0.09560639 28.93058474 -0.09502817 30.99243164 -0.09204102 C31.96027084 -0.10327499 32.92811005 -0.11450897 33.92527771 -0.12608337 C38.37628204 -0.08008116 40.73365438 -0.02716446 44.55322266 2.43505859 C45.46865845 3.40971069 45.46865845 3.40971069 46.40258789 4.40405273 C46.07258789 5.39405273 45.74258789 6.38405273 45.40258789 7.40405273 C43.90258789 6.02905273 43.90258789 6.02905273 42.40258789 4.40405273 C42.40258789 3.74405273 42.40258789 3.08405273 42.40258789 2.40405273 C35.9424867 2.42034069 29.48353151 2.47516638 23.02392578 2.55664062 C20.82706127 2.57982011 18.63008564 2.59421621 16.43310547 2.59960938 C13.27248898 2.608899 10.11362013 2.64989151 6.95336914 2.69702148 C5.97298172 2.69308884 4.9925943 2.68915619 3.98249817 2.68510437 C-1.80774627 2.79752255 -1.80774627 2.79752255 -6.63183594 5.88574219 C-7.28047607 6.71678467 -7.92911621 7.54782715 -8.59741211 8.40405273 C-9.58741211 8.89905273 -9.58741211 8.89905273 -10.59741211 9.40405273 C-8.93327744 3.16354772 -6.71815619 0.04576035 0 0 Z " fill="#6FA7E6" transform="translate(231.597412109375,94.595947265625)"/>
<path d="M0 0 C-2.81914429 2.81914429 -5.89857096 3.20543177 -9.6875 4.21875 C-12.15894322 4.86321736 -12.15894322 4.86321736 -14 7 C-14.33052455 9.18124591 -14.33052455 9.18124591 -14.31884766 11.72509766 C-14.33871735 12.70596344 -14.35858704 13.68682922 -14.37905884 14.69741821 C-14.39061005 15.75891083 -14.40216125 16.82040344 -14.4140625 17.9140625 C-14.44311172 19.54122696 -14.44311172 19.54122696 -14.4727478 21.20126343 C-14.53266426 24.67576159 -14.57897739 28.15029267 -14.625 31.625 C-14.66316865 33.97657718 -14.70221971 36.32814021 -14.7421875 38.6796875 C-14.83837559 44.4529997 -14.92338753 50.22639666 -15 56 C-17.42717975 53.57282025 -17.2587483 52.95470481 -17.29052734 49.62963867 C-17.30328705 48.7249736 -17.31604675 47.82030853 -17.32919312 46.88822937 C-17.33141876 45.90804337 -17.33364441 44.92785736 -17.3359375 43.91796875 C-17.3425943 42.91163895 -17.3492511 41.90530914 -17.35610962 40.8684845 C-17.36624895 38.73582796 -17.37092624 36.6031396 -17.37060547 34.47045898 C-17.37496869 31.21089074 -17.41124792 27.95268696 -17.44921875 24.69335938 C-17.45508864 22.62240047 -17.45905688 20.55143512 -17.4609375 18.48046875 C-17.47530853 17.50635544 -17.48967957 16.53224213 -17.50448608 15.52861023 C-17.47536341 11.20217677 -17.42105717 8.69503196 -15.14160156 4.93237305 C-12.65384673 2.68766494 -10.54372933 1.69263117 -7.375 0.625 C-6.41335937 0.28726563 -5.45171875 -0.05046875 -4.4609375 -0.3984375 C-2 -1 -2 -1 0 0 Z " fill="#6EA7E5" transform="translate(112,219)"/>
<path d="M0 0 C2.90336311 1.33657024 5.2102811 2.84722571 7.625 4.9375 C8.21539062 5.44152344 8.80578125 5.94554687 9.4140625 6.46484375 C11 8 11 8 13 11 C17.16366205 11.46262912 20.27858558 10.91387028 24 9 C24.33 8.34 24.66 7.68 25 7 C26.299375 7.020625 27.59875 7.04125 28.9375 7.0625 C30.29165633 7.08399454 31.64756083 7.07148199 33 7 C33.33 6.67 33.66 6.34 34 6 C38.59285826 5.61230508 43.20654244 5.52921227 47.8125 5.375 C49.75866211 5.29765625 49.75866211 5.29765625 51.74414062 5.21875 C52.99001953 5.17492187 54.23589844 5.13109375 55.51953125 5.0859375 C56.66526611 5.0451709 57.81100098 5.0044043 58.99145508 4.96240234 C61.56440541 4.99455639 63.56496839 5.22845317 66 6 C66 6.66 66 7.32 66 8 C65.28569824 7.98428955 64.57139648 7.9685791 63.83544922 7.95239258 C43.12934174 7.34577573 43.12934174 7.34577573 23.140625 12.1015625 C19.33264035 13.19091134 15.88822148 13.86564694 12 13 C9.42576808 11.36827373 7.51756529 9.32968752 5.5 7.0625 C4.96375 6.49853516 4.4275 5.93457031 3.875 5.35351562 C0 1.22644292 0 1.22644292 0 0 Z " fill="#71A7E6" transform="translate(346,309)"/>
<path d="M0 0 C1.64391844 2.95905318 2.73865785 5.602552 3 9 C1.625 10.625 1.625 10.625 0 12 C-1.15839043 15.47517129 -1.22801218 18.6727002 -1.31640625 22.29296875 C-1.33718735 22.99899734 -1.35796844 23.70502594 -1.37937927 24.43244934 C-1.44467491 26.68403551 -1.50366647 28.93573662 -1.5625 31.1875 C-1.60570425 32.7155066 -1.64931916 34.24350164 -1.69335938 35.77148438 C-1.80033574 39.51420562 -1.90165922 43.2570423 -2 47 C-2.33 47 -2.66 47 -3 47 C-5.6367725 31.51959372 -4.97786586 14.93359757 0 0 Z " fill="#6BA4E1" transform="translate(11,76)"/>
<path d="M0 0 C5.625 -0.25 5.625 -0.25 9 2 C9.36698735 3.32446562 9.69690223 4.65947002 10 6 C13.18496333 11.31173038 16.73535796 14.72422273 22 18 C23.6875 20.0625 23.6875 20.0625 25 22 C25.98165594 23.01801357 26.97591432 24.0246803 28 25 C27.01 25.33 26.02 25.66 25 26 C21.43645168 22.46109324 17.87614125 18.91897325 14.31884766 15.3737793 C13.10717739 14.16715088 11.89461294 12.96141972 10.68115234 11.7565918 C8.9413478 10.02885937 7.20474035 8.29796998 5.46875 6.56640625 C4.92190552 6.02472305 4.37506104 5.48303986 3.81164551 4.92494202 C2.52197869 3.63546982 1.2580767 2.32031135 0 1 C0 0.67 0 0.34 0 0 Z " fill="#65A6ED" transform="translate(30,98)"/>
<path d="M0 0 C0.66 0 1.32 0 2 0 C1.72285156 1.16273438 1.44570313 2.32546875 1.16015625 3.5234375 C-1.40975546 14.73084606 -2.72546355 25.5106497 -3 37 C-3.33 37 -3.66 37 -4 37 C-4 29.74 -4 22.48 -4 15 C-4.99 14.67 -5.98 14.34 -7 14 C-7 11.69 -7 9.38 -7 7 C-6.34 6.67 -5.68 6.34 -5 6 C-5 6.66 -5 7.32 -5 8 C-4.34 8 -3.68 8 -3 8 C-2.814375 6.8553125 -2.814375 6.8553125 -2.625 5.6875 C-2 3 -2 3 0 0 Z " fill="#66A5EE" transform="translate(319,367)"/>
<path d="M0 0 C1.670625 0.2165625 1.670625 0.2165625 3.375 0.4375 C4.91656258 0.62585383 6.45823482 0.81331179 8 1 C8.68964844 1.08958984 9.37929687 1.17917969 10.08984375 1.27148438 C17.92539796 2.18723895 25.75015658 2.11212743 33.625 2.0625 C35.02473797 2.05747197 36.4244777 2.05291138 37.82421875 2.04882812 C41.21619169 2.03713167 44.60807233 2.02074086 48 2 C48 2.33 48 2.66 48 3 C32.5498235 5.30109012 17.17595238 6.79472119 2 2 C1.34 1.34 0.68 0.68 0 0 Z " fill="#63A6F4" transform="translate(224,328)"/>
<path d="M0 0 C4.66874537 3.89976721 9.09127809 7.95214644 13.37109375 12.2734375 C13.93828629 12.84204498 14.50547882 13.41065247 15.08985901 13.99649048 C16.87479913 15.78696236 18.65620256 17.58090484 20.4375 19.375 C21.65796939 20.60049323 22.87867053 21.82575572 24.09960938 23.05078125 C27.06908756 26.03119774 30.03540257 29.01472894 33 32 C29.71432731 32 28.68224375 31.4798677 25.9375 29.8125 C25.24527344 29.40644531 24.55304688 29.00039063 23.83984375 28.58203125 C21.54792617 26.61127409 21.11559927 24.78899819 20 22 C17.79572418 19.43365094 17.79572418 19.43365094 15.1875 17 C14.33542969 16.175 13.48335938 15.35 12.60546875 14.5 C11.74566406 13.675 10.88585937 12.85 10 12 C8.33210378 10.3345638 6.66528297 8.66804922 5 7 C4.071875 6.113125 3.14375 5.22625 2.1875 4.3125 C0 2 0 2 0 0 Z " fill="#6AA2E2" transform="translate(277,314)"/>
<path d="M0 0 C3.39131372 5.08697058 4.30103085 8.4505219 4.265625 14.58203125 C4.26753845 15.31443527 4.2694519 16.04683929 4.27142334 16.80143738 C4.27278181 18.34882959 4.26910896 19.89623333 4.26074219 21.44360352 C4.25008367 23.79404812 4.26062464 26.14372042 4.2734375 28.49414062 C4.27211494 30.00260583 4.26955057 31.51107057 4.265625 33.01953125 C4.26967346 33.71456253 4.27372192 34.40959381 4.27789307 35.12568665 C4.2344744 39.72123313 3.61387977 43.6910487 2 48 C1.01 48.66 0.02 49.32 -1 50 C-0.86722656 49.34773438 -0.73445312 48.69546875 -0.59765625 48.0234375 C-0.42105469 47.14945313 -0.24445313 46.27546875 -0.0625 45.375 C0.11152344 44.51648438 0.28554687 43.65796875 0.46484375 42.7734375 C0.64144531 41.85820313 0.81804687 40.94296875 1 40 C1.18304688 39.10023437 1.36609375 38.20046875 1.5546875 37.2734375 C2.14687499 32.92034001 2.19077506 28.63858303 2.1875 24.25 C2.18814453 23.36054687 2.18878906 22.47109375 2.18945312 21.5546875 C2.14600728 16.16740246 1.82301592 11.10917126 0.4375 5.875 C0 4 0 4 0 0 Z " fill="#6DA5E6" transform="translate(181,81)"/>
<path d="M0 0 C1.43255127 -0.0012085 1.43255127 -0.0012085 2.89404297 -0.00244141 C7.59775461 0.03471271 12.06289113 0.21919831 16.6875 1.1875 C16.6875 1.5175 16.6875 1.8475 16.6875 2.1875 C15.81013184 2.20731934 14.93276367 2.22713867 14.02880859 2.24755859 C10.75217423 2.325976 7.47597139 2.41267883 4.19970703 2.50488281 C2.78572937 2.54300238 1.37166035 2.57788404 -0.04248047 2.609375 C-2.0833384 2.65539858 -4.1235766 2.71332667 -6.1640625 2.7734375 C-7.38947754 2.8048584 -8.61489258 2.8362793 -9.87744141 2.86865234 C-13.30698073 3.18698769 -16.10477233 3.96366816 -19.3125 5.1875 C-19.6425 4.8575 -19.9725 4.5275 -20.3125 4.1875 C-22.31208364 4.14669217 -24.31295254 4.14495644 -26.3125 4.1875 C-18.13939486 -0.21340277 -9.06436828 0.00744568 0 0 Z " fill="#6EA5E5" transform="translate(105.3125,6.8125)"/>
<path d="M0 0 C1.99585508 1.75211349 3.90890268 3.54304182 5.76953125 5.4375 C4.77953125 6.0975 3.78953125 6.7575 2.76953125 7.4375 C0.14453125 6.6875 0.14453125 6.6875 -2.23046875 5.4375 C-2.56046875 4.7775 -2.89046875 4.1175 -3.23046875 3.4375 C-6.17776412 2.27938612 -6.17776412 2.27938612 -9.23046875 2.4375 C-11.56611808 2.12080179 -13.89984695 1.78929197 -16.23046875 1.4375 C-11.35322718 -1.81399438 -5.19998057 -3.64271844 0 0 Z " fill="#5AA4F9" transform="translate(422.23046875,353.5625)"/>
<path d="M0 0 C3.44770327 6.15661298 4.32791142 12.27286109 4.25 19.1875 C4.25773437 19.88552734 4.26546875 20.58355469 4.2734375 21.30273438 C4.25926134 25.02752063 4.05853506 27.8386783 2 31 C-2.75 29.125 -2.75 29.125 -5 28 C-5.625 25.4375 -5.625 25.4375 -6 23 C-4.02 24.65 -2.04 26.3 0 28 C2.57760017 19.14205656 0.80412678 9.03206684 0 0 Z " fill="#6BA9E3" transform="translate(474,377)"/>
<path d="M0 0 C-3.90480249 1.35862973 -7.7101776 0.89469712 -11.75 0.5625 C-12.44738281 0.51029297 -13.14476562 0.45808594 -13.86328125 0.40429688 C-15.57596203 0.27525928 -17.28805066 0.13840386 -19 0 C-19 2.58926331 -18.17346382 3.20051661 -16.5 5.125 C-15.675 6.07375 -14.85 7.0225 -14 8 C-17.43595166 6.47291037 -20.11912454 4.40072955 -23 2 C-22.67 0.35 -22.34 -1.3 -22 -3 C-14.057458 -5.647514 -7.55908954 -2.78035477 0 0 Z " fill="#69A8F2" transform="translate(266,184)"/>
<path d="M0 0 C1.67284539 2.50926809 2.5395493 4.23367329 3.47265625 7.01953125 C3.73240234 7.79490234 3.99214844 8.57027344 4.25976562 9.36914062 C4.52466797 10.17544922 4.78957031 10.98175781 5.0625 11.8125 C5.33126953 12.60720703 5.60003906 13.40191406 5.87695312 14.22070312 C7.95813716 20.49539515 9.14358003 26.22643732 9.0625 32.875 C9.05347656 33.84179688 9.04445312 34.80859375 9.03515625 35.8046875 C9.02355469 36.52914062 9.01195312 37.25359375 9 38 C6.65199415 34.47799123 6.65523117 32.55358551 6.4375 28.375 C6.57346982 24.3682245 6.57346982 24.3682245 5 21 C4.95919217 19.00041636 4.95745644 16.99954746 5 15 C4.34 15 3.68 15 3 15 C2.814375 14.071875 2.814375 14.071875 2.625 13.125 C2.12802644 10.80879168 2.12802644 10.80879168 0 9 C-0.1953125 6.8359375 -0.1953125 6.8359375 -0.125 4.375 C-0.10695312 3.55773437 -0.08890625 2.74046875 -0.0703125 1.8984375 C-0.04710937 1.27195312 -0.02390625 0.64546875 0 0 Z " fill="#6CA8E6" transform="translate(192,63)"/>
<path d="M0 0 C0.33 0 0.66 0 1 0 C1.33 3.3 1.66 6.6 2 10 C2.99 10 3.98 10 5 10 C5.33 10.99 5.66 11.98 6 13 C4.02 13.99 4.02 13.99 2 15 C2.99 15.66 3.98 16.32 5 17 C5.6875 19.625 5.6875 19.625 6 22 C4.85073734 21.04578192 3.70569459 20.08647955 2.5625 19.125 C1.92441406 18.59132813 1.28632813 18.05765625 0.62890625 17.5078125 C-1.81749383 15.2432791 -1.98818326 14.20088459 -2.1875 10.8125 C-1.99003615 6.79740178 -1.23938106 3.79560448 0 0 Z " fill="#60A4F1" transform="translate(354,406)"/>
<path d="M0 0 C3.45099998 1.45708888 5.39637655 3.34774721 7.875 6.125 C11.03814398 9.47161837 11.03814398 9.47161837 15.5 10.5 C16.325 10.335 17.15 10.17 18 10 C18.12375 10.556875 18.2475 11.11375 18.375 11.6875 C18.9677119 14.07752696 18.9677119 14.07752696 20.0625 16.5625 C21 19 21 19 21 22 C18.00611124 19.03075698 15.01546454 16.05829855 12.02783203 13.08276367 C11.01017212 12.0701449 9.99161821 11.05842377 8.97216797 10.04760742 C7.51035593 8.5978706 6.05174758 7.14497792 4.59375 5.69140625 C3.71396484 4.81685791 2.83417969 3.94230957 1.92773438 3.04125977 C0 1 0 1 0 0 Z " fill="#69A8EC" transform="translate(202,262)"/>
<path d="M0 0 C4.55583516 0.34168764 8.47675045 1.46292952 12.30664062 3.92456055 C16.16968364 8.65923885 14.77522383 15.98801072 14.5 21.8125 C14.45984691 23.28310689 14.42334924 24.75381843 14.390625 26.22460938 C14.3027065 29.81858854 14.16481436 33.40863172 14 37 C13.67 37 13.34 37 13 37 C12.98018066 36.23856689 12.96036133 35.47713379 12.93994141 34.69262695 C12.84450078 31.23224528 12.73489788 27.77245145 12.625 24.3125 C12.5940625 23.11431641 12.563125 21.91613281 12.53125 20.68164062 C12.49257813 19.52470703 12.45390625 18.36777344 12.4140625 17.17578125 C12.3826416 16.11270752 12.3512207 15.04963379 12.31884766 13.9543457 C11.99186535 10.92462682 11.38340603 8.7090699 10 6 C7.62976776 4.54621082 7.62976776 4.54621082 4.875 3.6875 C3.96492188 3.36136719 3.05484375 3.03523437 2.1171875 2.69921875 C1.41851562 2.46847656 0.71984375 2.23773438 0 2 C0 1.34 0 0.68 0 0 Z " fill="#64A8F2" transform="translate(390,219)"/>
<path d="M0 0 C1.02899414 0.0501123 2.05798828 0.10022461 3.11816406 0.15185547 C4.24996094 0.20083984 5.38175781 0.24982422 6.54785156 0.30029297 C8.32289062 0.40857422 8.32289062 0.40857422 10.13378906 0.51904297 C11.885625 0.59251953 11.885625 0.59251953 13.67285156 0.66748047 C19.53271548 0.95980928 24.84098753 1.4329933 30.38378906 3.39404297 C30.38378906 4.05404297 30.38378906 4.71404297 30.38378906 5.39404297 C29.36800781 5.24966797 28.35222656 5.10529297 27.30566406 4.95654297 C16.19823017 3.43536635 5.53101191 2.67908561 -5.61621094 4.39404297 C-3.98386833 1.55594516 -3.31803896 0.49974943 0 0 Z " fill="#6BA6E9" transform="translate(96.6162109375,21.60595703125)"/>
<path d="M0 0 C0.57540527 0.12552246 1.15081055 0.25104492 1.74365234 0.38037109 C8.66877318 1.83446831 15.60131237 2.78864351 22.625 3.625 C24.27435547 3.82609375 24.27435547 3.82609375 25.95703125 4.03125 C28.63762658 4.35758335 31.31859098 4.68043394 34 5 C34 5.33 34 5.66 34 6 C26.90182926 6.87715038 20.07656273 7.31047458 13 6 C12.67 5.67 12.34 5.34 12 5 C10.1128125 5.12375 10.1128125 5.12375 8.1875 5.25 C6.01171875 5.296875 6.01171875 5.296875 4 5 C1.5 2.5 1.5 2.5 0 0 Z " fill="#6BA5E9" transform="translate(367,471)"/>
<path d="M0 0 C0 0.66 0 1.32 0 2 C-1.81209723 2.45992316 -3.62470361 2.91784036 -5.4375 3.375 C-6.52546875 3.65085937 -7.6134375 3.92671875 -8.734375 4.2109375 C-11.54466709 4.88997937 -14.34849932 5.45967406 -17.1875 6 C-18.445625 6.33 -19.70375 6.66 -21 7 C-21.33 7.99 -21.66 8.98 -22 10 C-22.66 10 -23.32 10 -24 10 C-24 9.34 -24 8.68 -24 8 C-24.61875 8.20625 -25.2375 8.4125 -25.875 8.625 C-26.57625 8.74875 -27.2775 8.8725 -28 9 C-28.66 8.34 -29.32 7.68 -30 7 C-25.75222625 5.82512185 -21.50144326 4.661523 -17.25 3.5 C-16.0434375 3.16613281 -14.836875 2.83226562 -13.59375 2.48828125 C-11.85351562 2.01455078 -11.85351562 2.01455078 -10.078125 1.53125 C-9.00981445 1.23798828 -7.94150391 0.94472656 -6.84082031 0.64257812 C-4 0 -4 0 0 0 Z " fill="#69A5EA" transform="translate(406,355)"/>
<path d="M0 0 C0.86625 0.4640625 0.86625 0.4640625 1.75 0.9375 C3.84294184 1.92583364 5.74535275 2.5168613 8 3 C8.061875 3.8971875 8.061875 3.8971875 8.125 4.8125 C8.84302388 7.32373953 8.84302388 7.32373953 11.875 8.375 C15.72690776 10.37799204 16.38812265 12.05090048 18 16 C18.65806934 17.33759746 19.32302662 18.67187001 20 20 C15.07809171 15.99379558 10.55349248 11.66383798 6.0625 7.1875 C5.47057861 6.60009033 4.87865723 6.01268066 4.26879883 5.4074707 C0 1.12370457 0 1.12370457 0 0 Z " fill="#68A3E7" transform="translate(326,289)"/>
<path d="M0 0 C2.475 0.495 2.475 0.495 5 1 C4.67 1.99 4.34 2.98 4 4 C4.66 4.33 5.32 4.66 6 5 C5.67 5.66 5.34 6.32 5 7 C5.66 7 6.32 7 7 7 C7.19335938 7.60328125 7.38671875 8.2065625 7.5859375 8.828125 C7.84632813 9.62734375 8.10671875 10.4265625 8.375 11.25 C8.63023437 12.03890625 8.88546875 12.8278125 9.1484375 13.640625 C9.94044262 16.00746246 9.94044262 16.00746246 11.125 18.125 C12.32398098 20.69424496 11.74097443 22.33249205 11 25 C8.87002321 21.80503482 7.85741117 18.94301062 6.625 15.3125 C4.75385977 9.95448718 2.69400387 4.98889606 0 0 Z " fill="#66A5EB" transform="translate(463,352)"/>
<path d="M0 0 C0.57363281 0.0721875 1.14726563 0.144375 1.73828125 0.21875 C14.69554377 1.63441449 28.06379984 1.62792631 41 0 C34.91471767 4.05685489 28.17492942 3.22029729 21.10058594 3.24023438 C19.00676159 3.24996857 16.91390801 3.28103215 14.8203125 3.3125 C13.4843808 3.31902827 12.14844212 3.32427943 10.8125 3.328125 C9.60207031 3.3374707 8.39164063 3.34681641 7.14453125 3.35644531 C3.78367555 2.97547875 2.43045438 2.28420495 0 0 Z " fill="#73A8E4" transform="translate(84,182)"/>
<path d="M0 0 C1.08539063 0.48210937 2.17078125 0.96421875 3.2890625 1.4609375 C4.73431252 2.09909985 6.17962853 2.73711277 7.625 3.375 C8.33785156 3.69210938 9.05070312 4.00921875 9.78515625 4.3359375 C13.80459396 6.10596512 17.80107481 7.68866374 22 9 C21.67 9.66 21.34 10.32 21 11 C20.01 11 19.02 11 18 11 C18 10.34 18 9.68 18 9 C16.96875 9.020625 15.9375 9.04125 14.875 9.0625 C10.30326852 8.9887624 6.33358835 8.44452945 2 7 C2.99 6.67 3.98 6.34 5 6 C5 5.34 5 4.68 5 4 C2.525 3.01 2.525 3.01 0 2 C0 1.34 0 0.68 0 0 Z " fill="#69A4E6" transform="translate(62,172)"/>
<path d="M0 0 C0.99 0.495 0.99 0.495 2 1 C2.73075648 3.3140622 3.40138258 5.64828869 4 8 C4.9075 8.12375 5.815 8.2475 6.75 8.375 C9.58970323 8.92109677 11.52590591 9.57263803 14 11 C14 11.66 14 12.32 14 13 C15.423125 12.9071875 15.423125 12.9071875 16.875 12.8125 C17.90625 12.874375 18.9375 12.93625 20 13 C20.99 14.485 20.99 14.485 22 16 C7.57040835 13.04193371 7.57040835 13.04193371 2 8 C0.06769314 4.95194176 0 3.80180714 0 0 Z " fill="#64A6F4" transform="translate(364,218)"/>
<path d="M0 0 C3.36913678 1.89000356 4.48061273 4.19220514 6.5625 7.4375 C8.80867657 9.86356517 11.16521155 12.16142277 13.5625 14.4375 C13.2325 15.0975 12.9025 15.7575 12.5625 16.4375 C11.69367188 15.4990625 10.82484375 14.560625 9.9296875 13.59375 C8.76644288 12.37421935 7.60233472 11.15551196 6.4375 9.9375 C5.86773437 9.31746094 5.29796875 8.69742188 4.7109375 8.05859375 C1.11268863 4.27914566 1.11268863 4.27914566 -3.8671875 3.03125 C-4.71539062 3.1653125 -5.56359375 3.299375 -6.4375 3.4375 C-6.1075 2.4475 -5.7775 1.4575 -5.4375 0.4375 C-2.4375 -0.5625 -2.4375 -0.5625 0 0 Z " fill="#6DA5E7" transform="translate(226.4375,186.5625)"/>
<path d="M0 0 C3.31002696 1.43753955 5.43889464 3.22483544 7.9375 5.8125 C10.24181656 8.19434497 12.55508747 10.51405436 15 12.75 C17 15 17 15 17 19 C15.35 19 13.7 19 12 19 C12 18.34 12 17.68 12 17 C12.99 16.67 13.98 16.34 15 16 C14.54560547 15.55084229 14.09121094 15.10168457 13.62304688 14.63891602 C11.57945761 12.61602464 9.53968777 10.58932487 7.5 8.5625 C6.78457031 7.85544922 6.06914062 7.14839844 5.33203125 6.41992188 C4.65527344 5.74638672 3.97851562 5.07285156 3.28125 4.37890625 C2.65283203 3.7557251 2.02441406 3.13254395 1.37695312 2.49047852 C0 1 0 1 0 0 Z " fill="#6DA5E6" transform="translate(390,458)"/>
<path d="M0 0 C1.65 0 3.3 0 5 0 C5.226875 0.78375 5.45375 1.5675 5.6875 2.375 C6.74653828 5.2197245 6.74653828 5.2197245 9.5 6 C10.325 6.33 11.15 6.66 12 7 C12.70211894 8.65204456 13.36971413 10.31923769 14 12 C16.01735205 13.34410262 16.01735205 13.34410262 18 14 C17.01 14.66 16.02 15.32 15 16 C12.49599357 13.5248518 9.99748094 11.04423106 7.5 8.5625 C6.78457031 7.85544922 6.06914062 7.14839844 5.33203125 6.41992188 C4.65527344 5.74638672 3.97851562 5.07285156 3.28125 4.37890625 C2.65283203 3.7557251 2.02441406 3.13254395 1.37695312 2.49047852 C0 1 0 1 0 0 Z " fill="#68A5E9" transform="translate(360,428)"/>
<path d="M0 0 C-8.13321728 3.78781041 -16.36257767 6.61092574 -25 9 C-19.82058219 3.07819897 -7.75060481 -2.31011547 0 0 Z " fill="#66A8F5" transform="translate(233,170)"/>
<path d="M0 0 C5.06623768 4.23816537 9.80038069 8.67408963 14.4375 13.375 C15.07365234 14.01566406 15.70980469 14.65632813 16.36523438 15.31640625 C17.91250332 16.87530879 19.45736492 18.43651416 21 20 C20.34 20.33 19.68 20.66 19 21 C14 16 9 11 4 6 C3.23816406 5.27941406 2.47632813 4.55882812 1.69140625 3.81640625 C0 2 0 2 0 0 Z " fill="#6BA2E0" transform="translate(251,288)"/>
<path d="M0 0 C0.86625 0.4640625 0.86625 0.4640625 1.75 0.9375 C3.90141503 2.09795529 3.90141503 2.09795529 6.0625 2.25 C9.13701304 3.44013408 9.60981611 6.10841751 11 9 C12.64646685 10.68662458 14.31183067 12.35511706 16 14 C16.70460885 15.31367751 17.37947867 16.64457553 18 18 C13.46334263 14.2698595 9.22058878 10.32946434 5.0625 6.1875 C4.31746216 5.44922974 4.31746216 5.44922974 3.55737305 4.69604492 C0 1.12375366 0 1.12375366 0 0 Z " fill="#69A2E7" transform="translate(70,25)"/>
<path d="M0 0 C2.475 0.99 2.475 0.99 5 2 C4.67 3.98 4.34 5.96 4 8 C4.66 8 5.32 8 6 8 C8.04169485 10.90548882 9 12.40142046 9 16 C0.80812391 6.95527106 0.80812391 6.95527106 -1 3 C-0.67 2.01 -0.34 1.02 0 0 Z " fill="#68A6ED" transform="translate(313,443)"/>
<path d="M0 0 C0.33 0 0.66 0 1 0 C1.66268329 7.12384541 -0.74611936 13.30879185 -3 20 C-3.33 20 -3.66 20 -4 20 C-4.30131427 12.91911475 -3.38717911 6.30470733 0 0 Z " fill="#6AA6ED" transform="translate(491,407)"/>
<path d="M0 0 C8.0848329 1.52956298 8.0848329 1.52956298 11 5 C11 5.66 11 6.32 11 7 C10.113125 6.690625 9.22625 6.38125 8.3125 6.0625 C3.39034615 4.48369593 0.07191703 3.69579276 -5 5 C-5 4.34 -5 3.68 -5 3 C-3.68 3 -2.36 3 -1 3 C-0.67 2.01 -0.34 1.02 0 0 Z " fill="#67A6EE" transform="translate(182,364)"/>
<path d="M0 0 C3.49741728 1.29762832 6.51716882 2.81379238 9.625 4.875 C10.38039063 5.36742187 11.13578125 5.85984375 11.9140625 6.3671875 C14.06328712 8.04953936 15.47183993 9.75156066 17 12 C16.443125 11.71125 15.88625 11.4225 15.3125 11.125 C12.91505355 9.9586747 10.48403061 8.9660119 8 8 C8 7.34 8 6.68 8 6 C6.02 6 4.04 6 2 6 C2.33 4.68 2.66 3.36 3 2 C2.01 2 1.02 2 0 2 C0 1.34 0 0.68 0 0 Z " fill="#65A8EE" transform="translate(442,311)"/>
<path d="M0 0 C6.62177926 0.30656385 11.22125154 1.74288723 17 5 C17 5.66 17 6.32 17 7 C19.475 7.495 19.475 7.495 22 8 C21.67 8.99 21.34 9.98 21 11 C20.40574219 10.61328125 19.81148438 10.2265625 19.19921875 9.828125 C13.02961437 5.95173283 6.92680043 3.23869976 0 1 C0 0.67 0 0.34 0 0 Z " fill="#71A8E6" transform="translate(267,185)"/>
<path d="M0 0 C3.39608504 1.45546502 5.40860299 3.40860299 8 6 C9.051875 6.495 9.051875 6.495 10.125 7 C12.51637507 8.27540004 12.81112116 9.62224233 14 12 C16.0335948 13.26804566 16.0335948 13.26804566 18 14 C17.01 14.66 16.02 15.32 15 16 C12.49599357 13.5248518 9.99748094 11.04423106 7.5 8.5625 C6.78457031 7.85544922 6.06914063 7.14839844 5.33203125 6.41992188 C4.65527344 5.74638672 3.97851562 5.07285156 3.28125 4.37890625 C2.65283203 3.7557251 2.02441406 3.13254395 1.37695312 2.49047852 C0 1 0 1 0 0 Z " fill="#68A6E9" transform="translate(56,124)"/>
<path d="M0 0 C4.13621084 3.3810038 7.81316569 6.66590534 11 11 C9.02 10.34 7.04 9.68 5 9 C5 8.34 5 7.68 5 7 C3.68 7 2.36 7 1 7 C0.01 6.34 -0.98 5.68 -2 5 C-2 4.01 -2 3.02 -2 2 C-1.34 2 -0.68 2 0 2 C0 1.34 0 0.68 0 0 Z " fill="#64A7EF" transform="translate(268,208)"/>
<path d="M0 0 C0 0.99 0 1.98 0 3 C-0.66 3 -1.32 3 -2 3 C-2.33 3.66 -2.66 4.32 -3 5 C-4.32 4.67 -5.64 4.34 -7 4 C-7.33 7.3 -7.66 10.6 -8 14 C-10 11 -10 11 -10 7.5625 C-9 4 -9 4 -6.125 1.5625 C-3 0 -3 0 0 0 Z " fill="#70A5DD" transform="translate(78,11)"/>
<path d="M0 0 C21.72340426 -0.38297872 21.72340426 -0.38297872 31 2 C31 2.33 31 2.66 31 3 C29.083412 3.02712153 27.1667127 3.04645097 25.25 3.0625 C23.64898437 3.07990234 23.64898437 3.07990234 22.015625 3.09765625 C19.40164926 3.01300678 17.4994394 2.63418612 15 2 C12.41343327 1.77711499 9.84047222 1.58685615 7.25 1.4375 C6.55261719 1.39431641 5.85523438 1.35113281 5.13671875 1.30664062 C3.42468078 1.20110404 1.71236439 1.1001009 0 1 C0 0.67 0 0.34 0 0 Z " fill="#68A8F4" transform="translate(240,167)"/>
<path d="M0 0 C4.18423892 3.50897269 8.19588166 7.08060535 12 11 C9.5625 10.625 9.5625 10.625 7 10 C6.67 9.34 6.34 8.68 6 8 C4.824375 8.0928125 4.824375 8.0928125 3.625 8.1875 C2.325625 8.0946875 2.325625 8.0946875 1 8 C0.34 7.01 -0.32 6.02 -1 5 C-0.34 5 0.32 5 1 5 C0.67 3.35 0.34 1.7 0 0 Z " fill="#5FA2EF" transform="translate(43,157)"/>
<path d="M0 0 C7.57142857 6.28571429 7.57142857 6.28571429 10 10 C9.0925 9.62875 8.185 9.2575 7.25 8.875 C3.78200562 7.55536066 3.78200562 7.55536066 0 10 C0 6.7 0 3.4 0 0 Z " fill="#63A4EC" transform="translate(122,54)"/>
<path d="M0 0 C1.70189768 3.28505832 3.14432232 6.64617346 4.5625 10.0625 C4.99691406 11.10535156 5.43132812 12.14820313 5.87890625 13.22265625 C6.64679605 15.12498952 7.35126842 17.05380526 8 19 C6.68 18.67 5.36 18.34 4 18 C3.67 15.69 3.34 13.38 3 11 C2.34 11 1.68 11 1 11 C-0.17571451 7.32589215 -0.07366746 3.83070817 0 0 Z " fill="#6AA4E6" transform="translate(185,266)"/>
<path d="M0 0 C1.28226945 3.5609521 0.71916503 5.35111081 -0.8125 8.75 C-2.69431248 13.1387253 -3.9651452 17.34315342 -5 22 C-5.66 22 -6.32 22 -7 22 C-6.44147333 16.5632024 -5.06042383 12.0816633 -2.9375 7.0625 C-2.65583984 6.37865234 -2.37417969 5.69480469 -2.08398438 4.99023438 C-1.3964595 3.32386054 -0.69923825 1.66149273 0 0 Z " fill="#62A5F3" transform="translate(176,211)"/>
<path d="M0 0 C0 0.33 0 0.66 0 1 C-0.928125 1.144375 -1.85625 1.28875 -2.8125 1.4375 C-6.00725111 1.92100111 -6.00725111 1.92100111 -9 3 C-9.33 4.155 -9.66 5.31 -10 6.5 C-10.33 7.655 -10.66 8.81 -11 10 C-11.99 10.33 -12.98 10.66 -14 11 C-12.89157372 6.19681945 -11.98692714 3.04882664 -8 0 C-5.00418914 -1.21704816 -3.04838368 -0.97983761 0 0 Z " fill="#64A4EA" transform="translate(377,364)"/>
<path d="M0 0 C0.66 0 1.32 0 2 0 C2.12375 1.03125 2.2475 2.0625 2.375 3.125 C2.93889814 6.62116846 3.78682059 9.68397627 5 13 C4.34 13 3.68 13 3 13 C3 12.01 3 11.02 3 10 C1.35 9.67 -0.3 9.34 -2 9 C-1.34 8.67 -0.68 8.34 0 8 C0 7.34 0 6.68 0 6 C-0.66 6 -1.32 6 -2 6 C-1.125 1.125 -1.125 1.125 0 0 Z " fill="#64A4EE" transform="translate(366,180)"/>
<path d="M0 0 C4.83675937 4.11124547 4.83675937 4.11124547 5.5625 8.0625 C4.88943111 11.5774153 3.73706304 12.77613628 1 15 C1.33 13.02 1.66 11.04 2 9 C1.34 9 0.68 9 0 9 C0.33 8.34 0.66 7.68 1 7 C2.33304698 4.10813214 2.33304698 4.10813214 1.0625 1.8125 C0.711875 1.214375 0.36125 0.61625 0 0 Z " fill="#6BA6EA" transform="translate(427,472)"/>
<path d="M0 0 C2.19459255 0.98378287 3.79664694 1.77896406 5.4375 3.5625 C7.49199044 5.45263121 9.27994277 5.6324247 12 6 C12 7.98 12 9.96 12 12 C7.47384007 8.32167983 3.60575001 4.58913637 0 0 Z " fill="#64A0E9" transform="translate(458,413)"/>
<path d="M0 0 C1.23922223 3.71766668 0.57018942 5.43889537 -0.4375 9.1875 C-0.72496094 10.27417969 -1.01242187 11.36085938 -1.30859375 12.48046875 C-1.53675781 13.31191406 -1.76492188 14.14335937 -2 15 C-2.33 15 -2.66 15 -3 15 C-2.979375 13.783125 -2.95875 12.56625 -2.9375 11.3125 C-2.93175884 8.08022678 -3.21233685 5.15065259 -4 2 C-2.68 1.34 -1.36 0.68 0 0 Z " fill="#60A0EF" transform="translate(374,394)"/>
<path d="M0 0 C7.59 0 15.18 0 23 0 C22.67 0.99 22.34 1.98 22 3 C19.2705414 2.85856168 16.54151877 2.71200471 13.8125 2.5625 C13.04357422 2.52318359 12.27464844 2.48386719 11.48242188 2.44335938 C7.56748925 2.22492966 3.82879312 1.91307892 0 1 C0 0.67 0 0.34 0 0 Z " fill="#6FAAF2" transform="translate(85,199)"/>
<path d="M0 0 C-0.804375 0.28875 -1.60875 0.5775 -2.4375 0.875 C-5.1326468 1.73262568 -5.1326468 1.73262568 -6 4 C-7.36125 3.938125 -7.36125 3.938125 -8.75 3.875 C-11.91083821 3.77279857 -11.91083821 3.77279857 -14.125 5.0625 C-16 6 -16 6 -18.25 5.625 C-18.8275 5.41875 -19.405 5.2125 -20 5 C-14.20008064 1.79478141 -6.6562201 -2.26986308 0 0 Z " fill="#65A8F6" transform="translate(294,361)"/>
<path d="M0 0 C5.00613773 3.72549784 7.95577773 7.57158595 11 13 C10.34 13.66 9.68 14.32 9 15 C5.82389762 11.40598941 3.56788757 8.58305596 2 4 C1.34786461 2.65949948 0.68620031 1.32338632 0 0 Z " fill="#6AA5EB" transform="translate(468,332)"/>
<path d="M0 0 C1.64391844 2.95905318 2.73865785 5.602552 3 9 C1.6875 10.625 1.6875 10.625 0 12 C-0.66 12.99 -1.32 13.98 -2 15 C-2.21755666 9.5610835 -2.10428384 5.12919186 0 0 Z " fill="#69A9F1" transform="translate(11,76)"/>
<path d="M0 0 C1.093125 0.0825 2.18625 0.165 3.3125 0.25 C0.66511084 1.7106285 -0.58198334 2.25 -3.6875 2.25 C-3.80867188 2.92546875 -3.92984375 3.6009375 -4.0546875 4.296875 C-4.22226562 5.18890625 -4.38984375 6.0809375 -4.5625 7 C-4.80613281 8.32257813 -4.80613281 8.32257813 -5.0546875 9.671875 C-5.65546264 12.11947744 -6.46747117 14.05599857 -7.6875 16.25 C-7.60006669 14.33249714 -7.4918811 12.41593335 -7.375 10.5 C-7.31699219 9.43265625 -7.25898438 8.3653125 -7.19921875 7.265625 C-6.34329905 2.22157914 -5.20213358 0.35268702 0 0 Z " fill="#659FE5" transform="translate(382.6875,376.75)"/>
<path d="M0 0 C7.58954531 0.44644384 14.01639737 3.11500562 21 6 C14.37722419 8.20759194 6.10348585 3.8482934 0 1 C0 0.67 0 0.34 0 0 Z " fill="#6CA4E4" transform="translate(123,9)"/>
<path d="M0 0 C0.99 0.33 1.98 0.66 3 1 C3 1.66 3 2.32 3 3 C3.99 3.33 4.98 3.66 6 4 C6.984375 5.9609375 6.984375 5.9609375 7.75 8.375 C8.01296875 9.16648438 8.2759375 9.95796875 8.546875 10.7734375 C9 13 9 13 8 16 C5.33333333 10.66666667 2.66666667 5.33333333 0 0 Z " fill="#6DA7EB" transform="translate(304,211)"/>
<path d="M0 0 C1.62441951 5.05374959 -0.12126353 8.49083962 -2.0625 13.25 C-2.42472656 14.14203125 -2.78695313 15.0340625 -3.16015625 15.953125 C-3.43730469 16.62859375 -3.71445312 17.3040625 -4 18 C-5.72251754 13.9154674 -4.07280563 10.63026304 -2.5625 6.75 C-2.31951172 6.1003125 -2.07652344 5.450625 -1.82617188 4.78125 C-1.22714006 3.18383183 -0.61485679 1.59139406 0 0 Z " fill="#63A5F5" transform="translate(271,370)"/>
<path d="M0 0 C1.12588014 0.95729916 2.2506715 1.91587895 3.375 2.875 C4.00148438 3.40867188 4.62796875 3.94234375 5.2734375 4.4921875 C6.55836651 5.61432007 7.79371975 6.79371975 9 8 C8.01 8.33 7.02 8.66 6 9 C4.68 7.68 3.36 6.36 2 5 C2 5.66 2 6.32 2 7 C1.01 7.33 0.02 7.66 -1 8 C-1.66 7.34 -2.32 6.68 -3 6 C-2.01 5.34 -1.02 4.68 0 4 C0 2.68 0 1.36 0 0 Z " fill="#62A5F1" transform="translate(308,248)"/>
<path d="M0 0 C4.30041016 3.86913693 6.78146659 9.32296567 7.25 15.0625 C7.1675 15.701875 7.085 16.34125 7 17 C5.14189 14.212835 3.77102653 11.53697 2.375 8.5 C1.92898437 7.5409375 1.48296875 6.581875 1.0234375 5.59375 C0 3 0 3 0 0 Z " fill="#699FE4" transform="translate(125,163)"/>
<path d="M0 0 C0.33 0.66 0.66 1.32 1 2 C2.65 2 4.3 2 6 2 C3.28817788 4.60334924 2.10866187 4.99456691 -1.75 5.1875 C-2.8225 5.125625 -3.895 5.06375 -5 5 C-5.33 4.34 -5.66 3.68 -6 3 C-4.02 2.01 -2.04 1.02 0 0 Z " fill="#5FA3EF" transform="translate(162,371)"/>
<path d="M0 0 C2.47186455 2.96346786 3.66248361 5.54041689 4.6875 9.25 C4.93886719 10.14203125 5.19023437 11.0340625 5.44921875 11.953125 C5.72185547 12.96632813 5.72185547 12.96632813 6 14 C4.0625 13.1875 4.0625 13.1875 2 12 C1 9 1 9 1 6 C0.67 5.67 0.34 5.34 0 5 C-0.04063832 3.33382885 -0.042721 1.66611905 0 0 Z " fill="#6BA7ED" transform="translate(483,354)"/>
<path d="M0 0 C0.66 0 1.32 0 2 0 C2 0.99 2 1.98 2 3 C2.66 3 3.32 3 4 3 C4 7.95 4 12.9 4 18 C3.67 18 3.34 18 3 18 C2.01 12.06 1.02 6.12 0 0 Z " fill="#6FACE9" transform="translate(313,228)"/>
<path d="M0 0 C-2.34400368 2.34400368 -3.69775873 2.54411672 -6.875 3.3125 C-11.35235253 4.56771155 -13.54982759 5.87925549 -16 10 C-15.8125 7.6875 -15.8125 7.6875 -15 5 C-11.54402942 2.27711409 -4.28301736 -2.14150868 0 0 Z " fill="#6DA7EB" transform="translate(112,219)"/>
<path d="M0 0 C0.99 0.495 0.99 0.495 2 1 C2 1.66 2 2.32 2 3 C2.66 3 3.32 3 4 3 C4 4.32 4 5.64 4 7 C4.66 7 5.32 7 6 7 C6.77842938 10.40562852 7.09978121 13.50765756 7 17 C5.02114001 14.03171001 3.74135003 11.22552946 2.375 7.9375 C1.92898437 6.87402344 1.48296875 5.81054688 1.0234375 4.71484375 C0 2 0 2 0 0 Z " fill="#6CA4E5" transform="translate(174,64)"/>
<path d="M0 0 C1.16915233 4.6766093 0.45376457 6.69677051 -0.9375 11.25 C-1.31777344 12.51328125 -1.69804687 13.7765625 -2.08984375 15.078125 C-2.39019531 16.04234375 -2.69054687 17.0065625 -3 18 C-3.33 18 -3.66 18 -4 18 C-4.33 15.03 -4.66 12.06 -5 9 C-4.01 9 -3.02 9 -2 9 C-1.34 6.03 -0.68 3.06 0 0 Z " fill="#67A5E9" transform="translate(143,99)"/>
<path d="M0 0 C1.14926266 0.95421808 2.29430541 1.91352045 3.4375 2.875 C4.07558594 3.40867187 4.71367187 3.94234375 5.37109375 4.4921875 C7 6 7 6 8 8 C5.69 8 3.38 8 1 8 C0.67 5.36 0.34 2.72 0 0 Z " fill="#63A5ED" transform="translate(138,70)"/>
<path d="M0 0 C1.12894876 0.93274109 2.25300876 1.87140122 3.375 2.8125 C4.00148438 3.33457031 4.62796875 3.85664063 5.2734375 4.39453125 C7 6 7 6 9 9 C7.35 8.67 5.7 8.34 4 8 C4 7.34 4 6.68 4 6 C3.01 6.33 2.02 6.66 1 7 C0 2.25 0 2.25 0 0 Z " fill="#63A1EB" transform="translate(370,415)"/>
<path d="M0 0 C5.73490428 -0.58819531 10.06191892 1.29393157 15 4 C15.66 4.66 16.32 5.32 17 6 C10.99522721 5.35083537 5.599219 3.14204997 0 1 C0 0.67 0 0.34 0 0 Z " fill="#6DA5E5" transform="translate(127,27)"/>
<path d="M0 0 C0.59167969 0.08378906 1.18335938 0.16757812 1.79296875 0.25390625 C6.09939457 0.80889424 9.75552644 1.23226652 14 0 C11.73943528 2.7822335 10.5944274 3.90092877 7 4.5 C3.4055726 3.90092877 2.26056472 2.7822335 0 0 Z " fill="#6AA4E8" transform="translate(473,428)"/>
<path d="M0 0 C0.474375 0.433125 0.94875 0.86625 1.4375 1.3125 C5.03330605 3.68046984 8.89991387 4.76471764 13 6 C13 6.33 13 6.66 13 7 C7.25 8.125 7.25 8.125 5 7 C5 6.34 5 5.68 5 5 C3.35 4.67 1.7 4.34 0 4 C0 2.68 0 1.36 0 0 Z " fill="#62A2ED" transform="translate(284,118)"/>
<path d="M0 0 C2.64 0.33 5.28 0.66 8 1 C3.34714182 4.10190545 -1.41532676 5.33846504 -7 5 C-4.35261084 3.5393715 -3.10551666 3 0 3 C0 2.01 0 1.02 0 0 Z " fill="#6BA8EA" transform="translate(420,486)"/>
<path d="M0 0 C2.64 1.98 5.28 3.96 8 6 C8.33 4.68 8.66 3.36 9 2 C9.33 2.66 9.66 3.32 10 4 C9.0625 6.125 9.0625 6.125 8 8 C3.25 6.125 3.25 6.125 1 5 C0.375 2.4375 0.375 2.4375 0 0 Z " fill="#6AA5EF" transform="translate(468,400)"/>
<path d="M0 0 C4.66283606 3.51582826 7.72210402 6.03648545 9 12 C8.01 12.495 8.01 12.495 7 13 C6.7525 12.030625 6.505 11.06125 6.25 10.0625 C5.8375 9.051875 5.425 8.04125 5 7 C2.96756452 6.03122943 2.96756452 6.03122943 1 6 C0.67 4.02 0.34 2.04 0 0 Z " fill="#73A7E4" transform="translate(314,351)"/>
<path d="M0 0 C7.48291572 6.15034169 7.48291572 6.15034169 10 10 C8.35 10 6.7 10 5 10 C4.731875 9.236875 4.46375 8.47375 4.1875 7.6875 C3.04199033 5.09503074 2.00288478 3.91184456 0 2 C0 1.34 0 0.68 0 0 Z " fill="#67A6E7" transform="translate(224,261)"/>
<path d="M0 0 C0.33 0.99 0.66 1.98 1 3 C-2.3 5.97 -5.6 8.94 -9 12 C-9.66 11.67 -10.32 11.34 -11 11 C-7.37 7.37 -3.74 3.74 0 0 Z " fill="#89C1FE" transform="translate(155,148)"/>
<path d="M0 0 C2.31 0.33 4.62 0.66 7 1 C7.33 1.99 7.66 2.98 8 4 C9.62652316 5.70586575 11.29006566 7.3777546 13 9 C9.91220974 7.53400783 7.09532795 5.82973607 4.25 3.9375 C3.45078125 3.41027344 2.6515625 2.88304687 1.828125 2.33984375 C1.22484375 1.89769531 0.6215625 1.45554688 0 1 C0 0.67 0 0.34 0 0 Z " fill="#66A1E2" transform="translate(144,34)"/>
<path d="M0 0 C2.75 0.125 2.75 0.125 6 1 C8.8233967 4.19489626 9.93364096 6.10415297 10.25 10.375 C10.1675 11.24125 10.085 12.1075 10 13 C7.86335404 10.86335404 7.53101115 9.81515376 6.6875 7 C5.47764232 3.51587016 5.47764232 3.51587016 2.3125 1.5 C1.1678125 1.2525 1.1678125 1.2525 0 1 C0 0.67 0 0.34 0 0 Z " fill="#6DA5E3" transform="translate(209,377)"/>
<path d="M0 0 C1.58560393 0.25720674 3.16845924 0.53138799 4.75 0.8125 C5.63171875 0.96332031 6.5134375 1.11414063 7.421875 1.26953125 C10.1910911 2.05414248 11.8259401 3.14595359 14 5 C11.26980214 6.06528748 10.20701188 6.07998186 7.421875 5.00390625 C6.54015625 4.52824219 5.6584375 4.05257813 4.75 3.5625 C3.85796875 3.08941406 2.9659375 2.61632812 2.046875 2.12890625 C1.37140625 1.75636719 0.6959375 1.38382812 0 1 C0 0.67 0 0.34 0 0 Z " fill="#67A6E6" transform="translate(420,302)"/>
<path d="M0 0 C3.83132316 1.56090944 6.1075134 4.1075134 9 7 C9.99 7.33 10.98 7.66 12 8 C11.67 9.32 11.34 10.64 11 12 C9.16364422 10.19047409 7.33083792 8.37759362 5.5 6.5625 C4.97535156 6.04623047 4.45070313 5.52996094 3.91015625 4.99804688 C2.58775448 3.68423213 1.29164432 2.34406495 0 1 C0 0.67 0 0.34 0 0 Z " fill="#6EA4E2" transform="translate(314,277)"/>
<path d="M0 0 C4.19162145 0.95264124 5.7207791 1.63260408 8.375 5.125 C8.91125 6.07375 9.4475 7.0225 10 8 C9.67 8.66 9.34 9.32 9 10 C7.49702124 8.52386015 5.99768715 7.04400843 4.5 5.5625 C3.6646875 4.73878906 2.829375 3.91507813 1.96875 3.06640625 C0 1 0 1 0 0 Z " fill="#6AA6E9" transform="translate(192,252)"/>
<path d="M0 0 C3.39608504 1.45546502 5.40860299 3.40860299 8 6 C10.13309192 7.23512079 10.13309192 7.23512079 12 8 C11.01 9.485 11.01 9.485 10 11 C8.33035479 9.35718838 6.6643536 7.71067239 5 6.0625 C4.071875 5.14597656 3.14375 4.22945313 2.1875 3.28515625 C0 1 0 1 0 0 Z " fill="#69A4E3" transform="translate(376,444)"/>
<path d="M0 0 C0.33 0 0.66 0 1 0 C2.61050328 8.03501094 2.61050328 8.03501094 0.0625 12.0625 C-0.618125 12.701875 -1.29875 13.34125 -2 14 C-2.21192221 8.80790596 -1.5912689 4.873261 0 0 Z " fill="#69A4E8" transform="translate(354,406)"/>
<path d="M0 0 C3.21043882 1.38188453 5.04936365 2.92421903 7.25 5.625 C7.77078125 6.25664062 8.2915625 6.88828125 8.828125 7.5390625 C9.40820312 8.26222656 9.40820312 8.26222656 10 9 C7.525 8.01 7.525 8.01 5 7 C5 6.34 5 5.68 5 5 C4.38125 4.71125 3.7625 4.4225 3.125 4.125 C1 3 1 3 -1 1 C-0.67 0.67 -0.34 0.34 0 0 Z " fill="#6EA3E5" transform="translate(343,125)"/>
<path d="M0 0 C0.33 0.99 0.66 1.98 1 3 C0.34 3.66 -0.32 4.32 -1 5 C-1.99 5 -2.98 5 -4 5 C-4 5.66 -4 6.32 -4 7 C-6.64 7 -9.28 7 -12 7 C-8.93841678 4.95894452 -6.19240849 3.94396184 -2.7421875 2.78125 C-0.80226108 2.13213728 -0.80226108 2.13213728 0 0 Z " fill="#669FE9" transform="translate(215,118)"/>
<path d="M0 0 C1.56384852 5.46759069 0.26010091 9.8771046 -2 15 C-3.31534494 11.34142468 -2.65468309 8.91973519 -1.5625 5.25 C-1.27503906 4.26515625 -0.98757813 3.2803125 -0.69140625 2.265625 C-0.46324219 1.51796875 -0.23507812 0.7703125 0 0 Z " fill="#6BA4E6" transform="translate(358,391)"/>
<path d="M0 0 C2.31 0.66 4.62 1.32 7 2 C7 2.66 7 3.32 7 4 C7.78375 3.938125 8.5675 3.87625 9.375 3.8125 C10.674375 3.9053125 10.674375 3.9053125 12 4 C12.99 5.485 12.99 5.485 14 7 C4.22210581 3.99633316 4.22210581 3.99633316 0 1 C0 0.67 0 0.34 0 0 Z " fill="#6AAAF8" transform="translate(208,321)"/>
<path d="M0 0 C1.98 1.65 3.96 3.3 6 5 C4.1875 6.5625 4.1875 6.5625 2 8 C1.01 7.67 0.02 7.34 -1 7 C-0.67 4.69 -0.34 2.38 0 0 Z " fill="#62A5F0" transform="translate(218,255)"/>
<path d="M0 0 C5.28137429 0.51525603 8.57221156 2.25477117 13 5 C9.29218328 6.23593891 8.32489747 5.5678132 4.8125 4.0625 C3.91144531 3.68222656 3.01039063 3.30195313 2.08203125 2.91015625 C1.39496094 2.60980469 0.70789063 2.30945313 0 2 C0 1.34 0 0.68 0 0 Z " fill="#6DA5E7" transform="translate(390,219)"/>
<path d="M0 0 C1.65 0 3.3 0 5 0 C5 0.66 5 1.32 5 2 C5.763125 2.103125 6.52625 2.20625 7.3125 2.3125 C10.17059424 3.04364039 11.15742885 3.76951913 13 6 C8.14036821 5.39254603 4.2594482 3.27241033 0 1 C0 0.67 0 0.34 0 0 Z " fill="#67ABED" transform="translate(58,189)"/>
<path d="M0 0 C0.33 0.66 0.66 1.32 1 2 C-0.98 4.31 -2.96 6.62 -5 9 C-5.99 8.67 -6.98 8.34 -8 8 C-5.36 5.36 -2.72 2.72 0 0 Z " fill="#69A4E9" transform="translate(142,138)"/>
<path d="M0 0 C1.14926266 0.95421808 2.29430541 1.91352045 3.4375 2.875 C4.07558594 3.40867187 4.71367188 3.94234375 5.37109375 4.4921875 C7 6 7 6 8 8 C6 7 4 6 2 5 C1.67 5.99 1.34 6.98 1 8 C0.67 5.36 0.34 2.72 0 0 Z " fill="#67A3E8" transform="translate(59,104)"/>
<path d="M0 0 C1.65 0 3.3 0 5 0 C6.06775224 1.96466413 7.06553465 3.96855359 8 6 C7.67 6.66 7.34 7.32 7 8 C5.83035398 6.8572081 4.66435444 5.71068285 3.5 4.5625 C2.8503125 3.92441406 2.200625 3.28632812 1.53125 2.62890625 C0 1 0 1 0 0 Z " fill="#6AA6EB" transform="translate(104,59)"/>
<path d="M0 0 C2.62030687 4.86628419 4.3283194 9.4185702 4 15 C2.35173889 12.03312999 1.55728913 9.34373475 1 6 C0.34 6 -0.32 6 -1 6 C-0.67 4.02 -0.34 2.04 0 0 Z " fill="#6BA6E6" transform="translate(317,412)"/>
<path d="M0 0 C1.14926266 0.95421808 2.29430541 1.91352045 3.4375 2.875 C4.07558594 3.40867187 4.71367187 3.94234375 5.37109375 4.4921875 C7 6 7 6 8 8 C7.01 8.33 6.02 8.66 5 9 C4.67 7.68 4.34 6.36 4 5 C3.01 5 2.02 5 1 5 C0.67 3.35 0.34 1.7 0 0 Z " fill="#68A4E8" transform="translate(460,392)"/>
<path d="M0 0 C0.66 0 1.32 0 2 0 C2.33 0.99 2.66 1.98 3 3 C2.34 3.66 1.68 4.32 1 5 C0.60235737 6.98821313 0.26224651 8.98944339 0 11 C-0.66 11 -1.32 11 -2 11 C-1.125 3.375 -1.125 3.375 0 0 Z " fill="#6AA7E8" transform="translate(361,380)"/>
<path d="M0 0 C0 0.33 0 0.66 0 1 C-0.94875 1.309375 -1.8975 1.61875 -2.875 1.9375 C-5.86080408 2.87394742 -5.86080408 2.87394742 -8 4 C-10.00800456 3.71887936 -12.01014051 3.38932033 -14 3 C-9.25294723 -0.16470185 -5.68228705 -0.10927475 0 0 Z " fill="#6BA5E6" transform="translate(420,352)"/>
<path d="M0 0 C0.33 0 0.66 0 1 0 C0.53199289 4.05606165 0.12046792 7.46588679 -2 11 C-2.66 11 -3.32 11 -4 11 C-3.52269162 9.5410574 -3.04308958 8.08286504 -2.5625 6.625 C-2.29566406 5.81289062 -2.02882813 5.00078125 -1.75390625 4.1640625 C-1 2 -1 2 0 0 Z " fill="#64A7F5" transform="translate(357,164)"/>
<path d="M0 0 C0.99 0.33 1.98 0.66 3 1 C0.93243723 3.7972908 -0.14440371 4.02692273 -3.6875 4.6875 C-4.780625 4.790625 -5.87375 4.89375 -7 5 C-6.34 4.01 -5.68 3.02 -5 2 C-2.375 1.8125 -2.375 1.8125 0 2 C0 1.34 0 0.68 0 0 Z " fill="#66A4ED" transform="translate(131,132)"/>
<path d="M0 0 C1.90389849 2.85584773 2.69462177 4.9311762 3.625 8.1875 C4.01558594 9.53908203 4.01558594 9.53908203 4.4140625 10.91796875 C4.60742188 11.60503906 4.80078125 12.29210937 5 13 C3.5 11.625 3.5 11.625 2 10 C2 9.34 2 8.68 2 8 C1.34 8 0.68 8 0 8 C0 5.36 0 2.72 0 0 Z " fill="#6CA2E1" transform="translate(27,127)"/>
<path d="M0 0 C0.33 0 0.66 0 1 0 C1 1.98 1 3.96 1 6 C1.66 6 2.32 6 3 6 C3 6.66 3 7.32 3 8 C1.35 7.67 -0.3 7.34 -2 7 C-2.125 4.625 -2.125 4.625 -2 2 C-1.34 1.34 -0.68 0.68 0 0 Z " fill="#65A6F0" transform="translate(199,119)"/>
<path d="M0 0 C2.475 0.99 2.475 0.99 5 2 C5 3.65 5 5.3 5 7 C3.02 5.35 1.04 3.7 -1 2 C-0.67 1.34 -0.34 0.68 0 0 Z " fill="#64A2EB" transform="translate(25,91)"/>
<path d="M0 0 C1.98 1.65 3.96 3.3 6 5 C3.13822943 6.43088528 1.06624227 5.59991697 -2 5 C-1.125 1.125 -1.125 1.125 0 0 Z " fill="#63A4EC" transform="translate(132,64)"/>
<path d="M0 0 C-0.83144531 0.29003906 -0.83144531 0.29003906 -1.6796875 0.5859375 C-2.40414063 0.84632813 -3.12859375 1.10671875 -3.875 1.375 C-4.59429687 1.63023437 -5.31359375 1.88546875 -6.0546875 2.1484375 C-8.18157994 2.93877783 -8.18157994 2.93877783 -10 5 C-10.33 3.68 -10.66 2.36 -11 1 C-4.03571429 -1.27678571 -4.03571429 -1.27678571 0 0 Z " fill="#64A2EA" transform="translate(294,377)"/>
<path d="M0 0 C0.66 0.33 1.32 0.66 2 1 C2 1.66 2 2.32 2 3 C1.34 3 0.68 3 0 3 C-0.33 4.65 -0.66 6.3 -1 8 C-3 6 -3 6 -3.125 3.375 C-3.08375 2.59125 -3.0425 1.8075 -3 1 C-2.01 0.67 -1.02 0.34 0 0 Z " fill="#60AEFC" transform="translate(184,242)"/>
<path d="M0 0 C1.14926266 0.95421808 2.29430541 1.91352045 3.4375 2.875 C4.07558594 3.40867188 4.71367187 3.94234375 5.37109375 4.4921875 C7 6 7 6 8 8 C5.125 7.375 5.125 7.375 2 6 C0.625 2.875 0.625 2.875 0 0 Z " fill="#6CA8E8" transform="translate(279,219)"/>
<path d="M0 0 C5.65394631 -0.34615998 9.03006806 0.56574762 14 3 C10.45332822 4.25127906 8.27746562 3.72285053 4.75 2.5625 C3.85796875 2.27503906 2.9659375 1.98757812 2.046875 1.69140625 C1.37140625 1.46324219 0.6959375 1.23507813 0 1 C0 0.67 0 0.34 0 0 Z " fill="#6FAAE9" transform="translate(71,195)"/>
<path d="M0 0 C0.36923077 5.41538462 0.36923077 5.41538462 -1.5 8.375 C-1.995 8.91125 -2.49 9.4475 -3 10 C-3 8.35 -3 6.7 -3 5 C-3.66 4.67 -4.32 4.34 -5 4 C-1.125 0 -1.125 0 0 0 Z " fill="#619EEA" transform="translate(376,158)"/>
<path d="M0 0 C7.38461538 0.49230769 7.38461538 0.49230769 10.5 3.0625 C10.995 3.701875 11.49 4.34125 12 5 C10.37276701 4.54965877 8.74826336 4.08944646 7.125 3.625 C5.76761719 3.24214844 5.76761719 3.24214844 4.3828125 2.8515625 C2 2 2 2 0 0 Z " fill="#72A8EE" transform="translate(356,484)"/>
<path d="M0 0 C0 0.66 0 1.32 0 2 C-1.11375 2.474375 -2.2275 2.94875 -3.375 3.4375 C-5.26710994 4.25306463 -7.15712709 5.07856355 -9 6 C-9.66 5.34 -10.32 4.68 -11 4 C-9.5437455 3.32880451 -8.08492133 2.66318193 -6.625 2 C-5.81289062 1.62875 -5.00078125 1.2575 -4.1640625 0.875 C-2 0 -2 0 0 0 Z " fill="#64A6F4" transform="translate(175,353)"/>
<path d="M0 0 C2.375 0.1875 2.375 0.1875 5 1 C6.3125 3.5625 6.3125 3.5625 7 6 C5.68 6.33 4.36 6.66 3 7 C3 6.01 3 5.02 3 4 C1.56009377 1.82967524 1.56009377 1.82967524 0 0 Z " fill="#6CA3EE" transform="translate(250,310)"/>
<path d="M0 0 C3.80666984 1.44390925 5.26602582 3.34952803 7 7 C6.67 7.66 6.34 8.32 6 9 C4.99406757 7.8803014 3.9954151 6.7540588 3 5.625 C2.443125 4.99851562 1.88625 4.37203125 1.3125 3.7265625 C0 2 0 2 0 0 Z " fill="#61A7F5" transform="translate(184,299)"/>
<path d="M0 0 C0.66 0.33 1.32 0.66 2 1 C0.73046875 2.49739583 -0.5390625 3.99479167 -1.80859375 5.4921875 C-3.0878152 7.00594079 -3.0878152 7.00594079 -4 9 C-4.66 9 -5.32 9 -6 9 C-4.83857315 4.64464931 -3.92300495 2.35380297 0 0 Z " fill="#63A5F4" transform="translate(370,271)"/>
<path d="M0 0 C0.99 0.33 1.98 0.66 3 1 C1.7260411 3.03833424 0.38938077 5.03852126 -1 7 C-1.66 7 -2.32 7 -3 7 C-1.125 1.125 -1.125 1.125 0 0 Z " fill="#8BC3FE" transform="translate(147,192)"/>
<path d="M0 0 C1.14926266 0.95421808 2.29430541 1.91352045 3.4375 2.875 C4.07558594 3.40867187 4.71367187 3.94234375 5.37109375 4.4921875 C7 6 7 6 8 8 C7.01 8 6.02 8 5 8 C5 7.34 5 6.68 5 6 C4.01 6 3.02 6 2 6 C1.34 4.02 0.68 2.04 0 0 Z " fill="#69A3E4" transform="translate(400,445)"/>
<path d="M0 0 C2.31 1.98 4.62 3.96 7 6 C6.01 6.66 5.02 7.32 4 8 C0 2.25 0 2.25 0 0 Z " fill="#68A6EA" transform="translate(421,353)"/>
<path d="M0 0 C2.97 0.495 2.97 0.495 6 1 C5.67 1.66 5.34 2.32 5 3 C2.35139573 3.59355614 -0.29197322 3.74209269 -3 4 C-2.67 3.34 -2.34 2.68 -2 2 C-1.34 2 -0.68 2 0 2 C0 1.34 0 0.68 0 0 Z " fill="#68A8F2" transform="translate(370,316)"/>
<path d="M0 0 C1.32 0.33 2.64 0.66 4 1 C4.33 2.98 4.66 4.96 5 7 C3.0625 6.3125 3.0625 6.3125 1 5 C0.25 2.375 0.25 2.375 0 0 Z " fill="#61A4EB" transform="translate(371,296)"/>
<path d="M0 0 C1.77706209 2.66559313 2.87548273 5.0280615 4 8 C2.68 8 1.36 8 0 8 C-0.38063221 5.6739143 -0.71269945 3.33944736 -1 1 C-0.67 0.67 -0.34 0.34 0 0 Z " fill="#67A6F1" transform="translate(187,220)"/>
<path d="M0 0 C0.66 0.33 1.32 0.66 2 1 C0.02 3.31 -1.96 5.62 -4 8 C-4.33 6.68 -4.66 5.36 -5 4 C-3.35 2.68 -1.7 1.36 0 0 Z " fill="#62A6E4" transform="translate(202,201)"/>
<path d="M0 0 C2 2 2 2 2 6 C-0.64 6 -3.28 6 -6 6 C-3 4 -3 4 0 4 C0 2.68 0 1.36 0 0 Z " fill="#4DA9FC" transform="translate(91,128)"/>
<path d="M0 0 C6.52307692 -0.36923077 6.52307692 -0.36923077 8.9375 1.5 C9.288125 1.995 9.63875 2.49 10 3 C9.67 3.99 9.34 4.98 9 6 C7.5 4.625 7.5 4.625 6 3 C6 2.34 6 1.68 6 1 C4.02 1 2.04 1 0 1 C0 0.67 0 0.34 0 0 Z " fill="#72A9E9" transform="translate(268,96)"/>
<path d="M0 0 C1.14926266 0.95421808 2.29430541 1.91352045 3.4375 2.875 C4.07558594 3.40867187 4.71367188 3.94234375 5.37109375 4.4921875 C7 6 7 6 8 8 C7.01 8 6.02 8 5 8 C5 7.34 5 6.68 5 6 C4.01 6 3.02 6 2 6 C1.34 4.02 0.68 2.04 0 0 Z " fill="#68A1E4" transform="translate(32,77)"/>
<path d="M0 0 C0 0.99 0 1.98 0 3 C-0.66 3 -1.32 3 -2 3 C-2.33 3.66 -2.66 4.32 -3 5 C-3.99 4.34 -4.98 3.68 -6 3 C-3.375 0 -3.375 0 0 0 Z " fill="#67A3EF" transform="translate(78,11)"/>
<path d="M0 0 C0.99 0.33 1.98 0.66 3 1 C2.42655063 3.86724686 2.1385485 4.8614515 0 7 C0 6.34 0 5.68 0 5 C-0.66 4.67 -1.32 4.34 -2 4 C-1.34 2.68 -0.68 1.36 0 0 Z " fill="#5AA9F3" transform="translate(363,375)"/>
<path d="M0 0 C0.33 0.66 0.66 1.32 1 2 C3.02463255 2.65213292 3.02463255 2.65213292 5 3 C5 3.99 5 4.98 5 6 C3.68 5.67 2.36 5.34 1 5 C0.67 3.35 0.34 1.7 0 0 Z " fill="#67A6F3" transform="translate(97,272)"/>
<path d="M0 0 C0.66 0 1.32 0 2 0 C2 0.66 2 1.32 2 2 C2.66 2 3.32 2 4 2 C5.0625 3.8125 5.0625 3.8125 6 6 C5.67 6.99 5.34 7.98 5 9 C4.16396622 7.68921847 3.3312426 6.37632511 2.5 5.0625 C2.0359375 4.33160156 1.571875 3.60070312 1.09375 2.84765625 C0 1 0 1 0 0 Z " fill="#69AEED" transform="translate(18,149)"/>
<path d="M0 0 C-2.90092502 1.93395001 -3.89674737 2.30131941 -7.1875 2.625 C-8.445625 2.74875 -9.70375 2.8725 -11 3 C-8.21756596 -1.17365106 -4.53441502 -0.22300402 0 0 Z " fill="#68A2EB" transform="translate(124,137)"/>
<path d="M0 0 C1.98 1.65 3.96 3.3 6 5 C4.68 5.33 3.36 5.66 2 6 C0 3 0 3 0 0 Z " fill="#66A6ED" transform="translate(391,436)"/>
<path d="M0 0 C0.66 0 1.32 0 2 0 C3.06775224 1.96466413 4.06553465 3.96855359 5 6 C4.67 6.66 4.34 7.32 4 8 C1.44971017 6.72485508 1.06918289 5.59658703 0 3 C0 2.01 0 1.02 0 0 Z " fill="#67A6EB" transform="translate(321,428)"/>
<path d="M0 0 C1.65 0 3.3 0 5 0 C5.33 1.98 5.66 3.96 6 6 C3.97945196 4.35830472 1.97956942 2.69088222 0 1 C0 0.67 0 0.34 0 0 Z " fill="#67A4ED" transform="translate(432,387)"/>
<path d="M0 0 C3 3.75 3 3.75 3 6 C-0.16115776 4.63016497 -0.9927092 4.0109362 -3 1 C-2.01 0.67 -1.02 0.34 0 0 Z " fill="#64A3EA" transform="translate(36,169)"/>
<path d="M0 0 C2.4375 0.6875 2.4375 0.6875 5 2 C5.8125 4.625 5.8125 4.625 6 7 C1.125 2.25 1.125 2.25 0 0 Z " fill="#6BA5EA" transform="translate(24,159)"/>
<path d="M0 0 C1.485 0.99 1.485 0.99 3 2 C3.6875 5.625 3.6875 5.625 4 9 C1.18167487 7.59083743 0.97406539 5.92219617 0 3 C0 2.01 0 1.02 0 0 Z " fill="#70A5ED" transform="translate(13,137)"/>
<path d="M0 0 C2.02054804 1.64169528 4.02043058 3.30911778 6 5 C6 5.33 6 5.66 6 6 C4.35 6 2.7 6 1 6 C0.67 4.02 0.34 2.04 0 0 Z " fill="#66A3ED" transform="translate(42,87)"/>
<path d="M0 0 C2.64 0.66 5.28 1.32 8 2 C7.01 2.495 7.01 2.495 6 3 C6 3.66 6 4.32 6 5 C2.83884224 3.63016497 2.0072908 3.0109362 0 0 Z " fill="#63A2ED" transform="translate(120,75)"/>
<path d="M0 0 C1.32 1.32 2.64 2.64 4 4 C2.02 4 0.04 4 -2 4 C-2.33 3.01 -2.66 2.02 -3 1 C-2.01 0.67 -1.02 0.34 0 0 Z " fill="#65A0EC" transform="translate(94,26)"/>
</svg>
