<?xml version="1.0" standalone="no"?>
<!DOCTYPE svg PUBLIC "-//W3C//DTD SVG 20010904//EN"
 "http://www.w3.org/TR/2001/REC-SVG-20010904/DTD/svg10.dtd">
<svg version="1.0" xmlns="http://www.w3.org/2000/svg"
 width="90" height="90" viewBox="0 0 512.000000 512.000000"
 preserveAspectRatio="xMidYMid meet">
<metadata>
Created by potrace 1.16, written by Peter Selinger 2001-2019
</metadata>
<g transform="translate(0.000000,512.000000) scale(0.100000,-0.100000)"
fill="#000000" stroke="none">
<path d="M2153 4633 c-12 -3 -34 -18 -48 -34 -38 -46 -34 -89 21 -184 25 -44
75 -140 112 -212 67 -132 67 -133 47 -152 -30 -30 -415 -231 -441 -231 -28 0
-29 0 -143 220 -50 96 -103 185 -117 198 -35 31 -97 30 -129 -2 -62 -62 -94
-300 -60 -452 10 -44 28 -103 41 -133 l25 -55 -140 -140 c-114 -115 -141 -149
-150 -183 -19 -71 -3 -106 93 -202 l85 -84 -39 -77 c-21 -42 -53 -118 -70
-168 l-33 -92 -114 0 c-138 0 -180 -17 -213 -85 -18 -38 -20 -62 -20 -284 0
-269 4 -291 64 -334 27 -19 46 -22 153 -25 l121 -4 32 -91 c17 -50 49 -125 70
-167 l39 -77 -85 -84 c-61 -61 -87 -95 -95 -122 -20 -73 -9 -89 180 -281 97
-98 190 -184 208 -192 76 -33 124 -14 234 93 l76 73 94 -44 c52 -24 127 -54
167 -67 l72 -23 0 -115 c0 -132 13 -171 67 -207 l33 -22 -103 -12 c-56 -7
-108 -14 -114 -16 -22 -6 -14 -42 16 -76 l29 -33 254 0 c292 0 299 2 320 79
l11 44 59 5 c70 6 115 31 142 77 18 31 20 49 18 150 l-3 116 73 23 c40 13 116
43 167 67 l95 44 63 -62 c35 -34 63 -65 63 -69 0 -4 -39 -23 -87 -44 -49 -20
-92 -40 -96 -44 -4 -4 13 -26 37 -49 38 -35 52 -42 87 -42 37 0 48 6 108 65
42 40 76 65 90 65 12 0 34 6 49 14 39 21 347 335 366 373 21 41 20 95 0 136
-10 18 -50 66 -91 108 l-73 76 49 103 c27 57 58 131 68 166 l18 64 120 0 c135
0 168 12 205 72 19 31 20 51 20 294 0 255 -1 262 -23 295 -37 56 -75 69 -207
69 l-115 0 -28 83 c-16 45 -47 120 -69 166 l-40 83 81 82 c83 85 101 116 101
167 0 63 -82 169 -130 169 -61 0 -65 -46 -10 -106 22 -24 40 -53 40 -65 0 -13
-37 -59 -100 -124 -55 -57 -100 -106 -100 -109 0 -3 25 -55 55 -115 30 -60 66
-146 80 -192 45 -145 28 -134 195 -137 85 -1 149 -7 157 -14 18 -15 19 -488 1
-506 -8 -8 -56 -12 -148 -12 -94 0 -141 -4 -152 -12 -8 -7 -29 -58 -46 -113
-17 -55 -56 -149 -86 -209 -39 -78 -52 -114 -46 -125 5 -9 49 -56 99 -106 66
-65 91 -96 91 -114 0 -35 -315 -351 -349 -351 -16 0 -56 32 -126 100 -57 55
-105 100 -108 100 -3 0 -52 -24 -109 -53 -57 -30 -151 -69 -209 -87 -57 -18
-110 -40 -116 -48 -9 -11 -13 -58 -13 -152 0 -92 -4 -140 -12 -148 -18 -18
-494 -17 -505 1 -4 6 -10 77 -13 157 -6 167 7 150 -140 196 -47 14 -133 51
-192 81 -83 42 -111 52 -125 44 -10 -5 -58 -50 -108 -100 -54 -55 -98 -91
-110 -91 -23 0 -355 326 -355 349 0 8 45 60 100 117 55 56 100 109 100 117 0
8 -22 57 -50 109 -27 52 -66 144 -85 204 -20 60 -43 115 -52 121 -12 9 -60 13
-155 13 -126 0 -138 2 -148 19 -6 12 -10 110 -10 250 0 195 2 232 16 245 12
13 41 16 152 16 75 0 142 4 149 8 7 4 28 56 47 115 19 59 58 151 86 205 27 54
50 107 50 117 0 10 -45 65 -100 120 -55 56 -100 108 -100 115 0 8 58 72 130
144 l129 131 68 -66 c37 -37 89 -81 115 -98 26 -17 52 -40 58 -51 6 -10 10
-90 10 -180 l0 -160 -46 -63 c-65 -88 -130 -227 -161 -343 -23 -86 -26 -119
-27 -254 -1 -176 16 -262 77 -407 90 -213 280 -415 492 -520 173 -86 386 -125
570 -103 668 80 1086 723 879 1350 -70 210 -201 388 -379 516 -49 34 -64 52
-69 77 -4 17 -26 68 -49 112 -47 90 -76 111 -133 100 -35 -6 -38 -10 -99 -109
-9 -15 -18 -15 -115 0 -68 10 -137 14 -197 11 -51 -3 -93 -4 -93 -2 0 1 22 17
49 35 89 56 185 168 234 272 44 91 67 163 67 210 0 13 4 29 9 37 8 12 12 12
25 2 13 -11 16 -38 16 -150 0 -75 4 -142 9 -149 4 -7 61 -31 127 -53 65 -22
155 -59 199 -83 44 -23 88 -45 98 -49 15 -6 42 15 122 93 115 112 133 119 181
69 42 -44 58 -51 88 -37 40 18 34 56 -16 105 -53 51 -77 63 -122 63 -57 0 -85
-16 -171 -101 l-82 -80 -90 44 c-49 24 -124 54 -166 68 l-77 24 0 117 c0 157
-20 204 -99 229 -42 14 -51 24 -51 60 0 42 -47 185 -82 252 -42 79 -163 202
-247 251 -95 55 -234 98 -288 89z m131 -137 c181 -65 330 -234 377 -426 8 -30
13 -98 13 -150 -1 -116 -33 -219 -98 -319 -49 -74 -82 -108 -176 -178 -115
-86 -105 7 -108 -948 -1 -456 0 -840 3 -853 8 -33 52 -48 76 -26 18 16 19 50
19 814 l0 797 38 7 c59 9 210 7 279 -5 l63 -11 0 -549 c0 -546 0 -549 -20
-549 -36 0 -97 -38 -119 -73 -37 -61 -23 -164 28 -199 18 -13 18 -16 -10 -100
-27 -80 -69 -290 -69 -344 0 -23 -3 -24 -57 -24 -215 0 -432 92 -600 254 l-53
50 0 811 c0 763 -2 812 -19 850 -10 22 -33 53 -52 68 -19 15 -61 50 -95 76
-100 80 -176 204 -203 329 -22 104 -6 311 27 344 6 6 41 -52 102 -169 51 -98
99 -187 106 -197 24 -35 67 -56 116 -56 41 0 76 15 265 116 120 63 228 126
240 140 30 33 45 92 33 133 -5 17 -52 115 -104 216 -53 101 -96 186 -96 189 0
11 30 6 94 -18z m683 -1258 l28 -53 3 -542 3 -543 -61 0 -60 0 0 543 0 543 26
52 c14 29 28 52 30 52 2 0 16 -24 31 -52z m218 -260 c358 -328 404 -864 108
-1258 l-47 -63 -24 76 -24 76 26 31 c14 17 31 49 37 70 24 78 -40 173 -125
187 l-36 6 0 468 c0 258 4 469 9 469 4 0 39 -28 76 -62z m-1415 -690 c-1 -534
2 -520 -60 -371 -57 137 -73 214 -74 363 0 161 21 262 85 401 23 49 43 89 45
89 2 0 4 -217 4 -482z m1382 -305 c22 -20 23 -56 2 -77 -13 -14 -47 -16 -214
-16 -167 0 -201 2 -214 16 -21 20 -20 53 1 76 15 16 35 18 211 18 168 0 198
-2 214 -17z m-29 -285 c14 -46 28 -92 31 -103 12 -47 -226 -182 -370 -210 -44
-8 -83 -15 -87 -15 -18 0 21 212 60 333 l26 77 157 0 158 0 25 -82z"/>
<path d="M2080 2903 c-40 -14 -40 -18 -40 -580 0 -530 0 -543 20 -563 25 -25
42 -25 64 -2 15 17 16 68 14 572 -3 540 -3 553 -23 565 -11 7 -27 10 -35 8z"/>
</g>
</svg>
